{"glyphs":{"0":{"ha":833,"x_min":56,"x_max":778,"o":"m 417 -12 q 148 117 240 -12 q 56 496 56 247 q 148 869 56 740 q 417 999 240 999 q 685 870 593 999 q 778 496 778 742 q 685 118 778 249 q 417 -12 593 -12 m 417 128 q 556 216 513 128 q 600 496 600 304 q 556 772 600 685 q 417 858 513 858 q 277 772 321 858 q 233 496 233 685 q 277 216 233 304 q 417 128 321 128 z "},"1":{"ha":833,"x_min":156,"x_max":765,"o":"m 765 146 l 765 0 l 156 0 l 156 146 l 372 146 l 372 783 l 171 663 l 171 822 l 446 989 l 550 989 l 550 146 l 765 146 z "},"2":{"ha":835,"x_min":69,"x_max":763,"o":"m 763 146 l 763 0 l 99 0 l 99 132 l 435 494 q 522 614 494 560 q 550 721 550 668 q 510 824 550 789 q 397 858 471 858 q 129 756 267 858 l 69 886 q 219 970 128 939 q 404 1001 311 1001 q 640 928 553 1001 q 726 732 726 856 q 690 572 726 647 q 567 404 653 497 l 324 146 l 763 146 z "},"3":{"ha":833,"x_min":54,"x_max":750,"o":"m 569 508 q 703 422 657 485 q 750 268 750 360 q 655 64 750 139 q 399 -11 560 -11 q 206 19 299 -11 q 54 104 114 50 l 115 235 q 392 132 247 132 q 533 169 486 132 q 579 283 579 207 q 532 394 579 358 q 386 429 485 429 l 256 429 l 256 572 l 363 572 q 554 718 554 572 q 513 822 554 786 q 396 858 471 858 q 129 756 263 858 l 69 886 q 220 970 129 939 q 407 1001 311 1001 q 640 930 553 1001 q 726 739 726 858 q 684 597 725 657 q 569 508 643 536 z "},"4":{"ha":833,"x_min":54,"x_max":800,"o":"m 800 193 l 660 193 l 660 0 l 485 0 l 485 193 l 54 193 l 54 326 l 517 989 l 660 989 l 660 333 l 800 333 l 800 193 m 485 333 l 485 710 l 224 333 l 485 333 z "},"5":{"ha":833,"x_min":85,"x_max":782,"o":"m 469 632 q 633 592 563 632 q 743 481 704 553 q 782 317 782 410 q 738 145 782 219 q 610 30 693 71 q 417 -11 526 -11 q 233 20 324 -11 q 85 104 143 51 l 144 235 q 419 132 279 132 q 562 178 513 132 q 611 311 611 225 q 560 442 611 393 q 425 492 510 492 q 315 470 367 492 q 225 407 264 449 l 117 407 l 117 989 l 736 989 l 736 850 l 292 850 l 292 581 q 469 632 367 632 z "},"6":{"ha":833,"x_min":58,"x_max":781,"o":"m 478 635 q 634 594 565 635 q 742 482 703 554 q 781 317 781 410 q 738 147 781 222 q 620 30 696 72 q 449 -12 544 -12 q 160 115 261 -12 q 58 476 58 242 q 106 758 58 640 q 245 939 154 876 q 461 1001 336 1001 q 634 972 550 1001 q 781 886 718 942 l 719 756 q 468 858 589 858 q 299 765 358 858 q 236 499 239 672 q 333 598 268 561 q 478 635 399 635 m 440 129 q 563 179 517 129 q 610 311 610 229 q 563 442 610 393 q 439 492 517 492 q 313 442 361 492 q 264 311 264 392 q 313 180 264 231 q 440 129 363 129 z "},"7":{"ha":833,"x_min":72,"x_max":761,"o":"m 761 989 l 761 856 l 313 0 l 121 0 l 568 843 l 72 843 l 72 989 l 761 989 z "},"8":{"ha":833,"x_min":46,"x_max":788,"o":"m 583 508 q 733 421 679 485 q 788 267 788 357 q 741 119 788 182 q 610 22 694 56 q 417 -11 526 -11 q 223 22 307 -11 q 92 119 139 56 q 46 267 46 182 q 100 421 46 357 q 250 508 154 485 q 119 596 167 536 q 71 735 71 656 q 115 876 71 815 q 238 969 160 936 q 417 1001 317 1001 q 595 969 517 1001 q 718 876 674 936 q 763 735 763 815 q 715 594 763 654 q 583 508 667 533 m 417 861 q 288 824 335 861 q 240 717 240 786 q 288 610 240 651 q 417 557 336 569 q 545 610 497 569 q 593 717 593 651 q 546 824 593 786 q 417 861 499 861 m 417 129 q 565 168 511 129 q 618 279 618 207 q 563 389 618 347 q 417 443 508 431 q 270 389 325 431 q 215 279 215 347 q 269 168 215 207 q 417 129 322 129 z "},"9":{"ha":833,"x_min":53,"x_max":776,"o":"m 385 1001 q 674 874 572 1001 q 776 513 776 747 q 728 231 776 349 q 588 50 679 113 q 372 -12 497 -12 q 199 17 283 -12 q 54 103 115 47 l 114 233 q 365 131 246 131 q 535 224 475 131 q 599 493 596 318 q 502 392 567 429 q 356 354 438 354 q 199 394 268 354 q 92 507 131 435 q 53 672 53 579 q 95 842 53 767 q 213 959 138 917 q 385 1001 289 1001 m 394 497 q 521 547 472 497 q 569 678 569 597 q 521 809 569 758 q 394 860 472 860 q 270 810 317 860 q 224 678 224 760 q 270 547 224 596 q 394 497 317 497 z "},"\u0000":{"ha":0,"x_min":0,"x_max":0,"o":""},"\r":{"ha":381,"x_min":0,"x_max":0,"o":""}," ":{"ha":381,"x_min":0,"x_max":0,"o":""},"A":{"ha":1042,"x_min":0,"x_max":1042,"o":"m 764 232 l 281 232 l 181 0 l 0 0 l 447 989 l 593 989 l 1042 0 l 863 0 l 764 232 m 704 371 l 522 794 l 340 371 l 704 371 z "},"Á":{"ha":1042,"x_min":0,"x_max":1042,"o":"m 764 232 l 281 232 l 181 0 l 0 0 l 447 989 l 593 989 l 1042 0 l 863 0 l 764 232 m 704 371 l 522 794 l 340 371 l 704 371 m 464 1074 l 607 1289 l 775 1289 l 576 1074 l 464 1074 z "},"Ă":{"ha":1042,"x_min":0,"x_max":1042,"o":"m 764 232 l 281 232 l 181 0 l 0 0 l 447 989 l 593 989 l 1042 0 l 863 0 l 764 232 m 704 371 l 522 794 l 340 371 l 704 371 m 521 1088 q 371 1125 435 1088 q 279 1239 307 1163 l 365 1276 q 431 1214 393 1232 q 521 1196 469 1196 q 609 1214 571 1196 q 675 1276 647 1232 l 761 1239 q 670 1126 733 1164 q 521 1088 607 1088 z "},"Ắ":{"ha":1042,"x_min":0,"x_max":1042,"o":"m 764 232 l 281 232 l 181 0 l 0 0 l 447 989 l 593 989 l 1042 0 l 863 0 l 764 232 m 704 371 l 522 794 l 340 371 l 704 371 m 468 1221 l 607 1418 l 767 1418 l 572 1221 l 468 1221 m 521 1067 q 371 1104 435 1067 q 279 1218 307 1142 l 350 1249 q 422 1183 376 1204 q 521 1161 467 1161 q 619 1183 574 1161 q 690 1249 664 1204 l 761 1218 q 670 1105 733 1143 q 521 1067 607 1067 z "},"Ặ":{"ha":1042,"x_min":0,"x_max":1042,"o":"m 764 232 l 281 232 l 181 0 l 0 0 l 447 989 l 593 989 l 1042 0 l 863 0 l 764 232 m 704 371 l 522 794 l 340 371 l 704 371 m 604 -108 l 604 -271 l 436 -271 l 436 -108 l 604 -108 m 521 1088 q 371 1125 435 1088 q 279 1239 307 1163 l 365 1276 q 431 1214 393 1232 q 521 1196 469 1196 q 609 1214 571 1196 q 675 1276 647 1232 l 761 1239 q 670 1126 733 1164 q 521 1088 607 1088 z "},"Ằ":{"ha":1042,"x_min":0,"x_max":1042,"o":"m 764 232 l 281 232 l 181 0 l 0 0 l 447 989 l 593 989 l 1042 0 l 863 0 l 764 232 m 704 371 l 522 794 l 340 371 l 704 371 m 274 1418 l 433 1418 l 572 1221 l 468 1221 l 274 1418 m 521 1067 q 371 1104 435 1067 q 279 1218 307 1142 l 350 1249 q 422 1183 376 1204 q 521 1161 467 1161 q 619 1183 574 1161 q 690 1249 664 1204 l 761 1218 q 670 1105 733 1143 q 521 1067 607 1067 z "},"Ẳ":{"ha":1042,"x_min":0,"x_max":1042,"o":"m 764 232 l 281 232 l 181 0 l 0 0 l 447 989 l 593 989 l 1042 0 l 863 0 l 764 232 m 704 371 l 522 794 l 340 371 l 704 371 m 567 1222 l 474 1222 l 474 1249 q 491 1287 474 1274 q 538 1311 508 1300 q 558 1319 549 1315 q 567 1329 567 1324 q 554 1345 567 1339 q 515 1351 542 1351 q 435 1336 479 1351 l 410 1401 q 536 1426 467 1426 q 642 1403 603 1426 q 681 1342 681 1379 q 664 1301 681 1315 q 615 1275 647 1288 q 578 1256 590 1264 q 567 1233 567 1247 l 567 1222 m 521 1067 q 371 1104 435 1067 q 279 1218 307 1142 l 350 1249 q 422 1183 376 1204 q 521 1161 467 1161 q 619 1183 574 1161 q 690 1249 664 1204 l 761 1218 q 670 1105 733 1143 q 521 1067 607 1067 z "},"Ẵ":{"ha":1042,"x_min":0,"x_max":1042,"o":"m 764 232 l 281 232 l 181 0 l 0 0 l 447 989 l 593 989 l 1042 0 l 863 0 l 764 232 m 704 371 l 522 794 l 340 371 l 704 371 m 283 1282 q 324 1387 283 1346 q 425 1428 364 1428 q 475 1420 451 1428 q 536 1396 499 1413 q 578 1378 557 1386 q 615 1371 600 1371 q 659 1385 643 1371 q 678 1424 675 1399 l 757 1424 q 717 1319 757 1360 q 615 1278 676 1278 q 569 1284 592 1278 q 528 1298 547 1290 q 504 1308 510 1306 q 425 1333 454 1333 q 381 1319 397 1333 q 363 1282 365 1306 l 283 1282 m 521 1067 q 371 1104 435 1067 q 279 1218 307 1142 l 350 1249 q 422 1183 376 1204 q 521 1161 467 1161 q 619 1183 574 1161 q 690 1249 664 1204 l 761 1218 q 670 1105 733 1143 q 521 1067 607 1067 z "},"Â":{"ha":1042,"x_min":0,"x_max":1042,"o":"m 764 232 l 281 232 l 181 0 l 0 0 l 447 989 l 593 989 l 1042 0 l 863 0 l 764 232 m 704 371 l 522 794 l 340 371 l 704 371 m 290 1074 l 468 1289 l 572 1289 l 750 1074 l 613 1074 l 521 1201 l 428 1074 l 290 1074 z "},"Ấ":{"ha":1042,"x_min":0,"x_max":1042,"o":"m 764 232 l 281 232 l 181 0 l 0 0 l 447 989 l 593 989 l 1042 0 l 863 0 l 764 232 m 704 371 l 522 794 l 340 371 l 704 371 m 647 1221 l 758 1418 l 911 1418 l 738 1221 l 647 1221 m 290 1074 l 468 1272 l 572 1272 l 750 1074 l 614 1074 l 521 1188 l 426 1074 l 290 1074 z "},"Ậ":{"ha":1042,"x_min":0,"x_max":1042,"o":"m 764 232 l 281 232 l 181 0 l 0 0 l 447 989 l 593 989 l 1042 0 l 863 0 l 764 232 m 704 371 l 522 794 l 340 371 l 704 371 m 604 -108 l 604 -271 l 436 -271 l 436 -108 l 604 -108 m 290 1074 l 468 1289 l 572 1289 l 750 1074 l 613 1074 l 521 1201 l 428 1074 l 290 1074 z "},"Ầ":{"ha":1042,"x_min":0,"x_max":1042,"o":"m 764 232 l 281 232 l 181 0 l 0 0 l 447 989 l 593 989 l 1042 0 l 863 0 l 764 232 m 704 371 l 522 794 l 340 371 l 704 371 m 542 1418 l 694 1418 l 797 1221 l 707 1221 l 542 1418 m 290 1074 l 468 1272 l 572 1272 l 750 1074 l 614 1074 l 521 1188 l 426 1074 l 290 1074 z "},"Ẩ":{"ha":1042,"x_min":0,"x_max":1042,"o":"m 764 232 l 281 232 l 181 0 l 0 0 l 447 989 l 593 989 l 1042 0 l 863 0 l 764 232 m 704 371 l 522 794 l 340 371 l 704 371 m 739 1222 l 646 1222 l 646 1249 q 663 1287 646 1274 q 710 1311 681 1300 q 730 1319 721 1315 q 739 1329 739 1324 q 726 1345 739 1339 q 689 1351 714 1351 q 606 1336 651 1351 l 581 1401 q 707 1426 638 1426 q 813 1403 774 1426 q 853 1342 853 1379 q 836 1301 853 1315 q 788 1275 819 1288 q 751 1256 763 1264 q 739 1233 739 1247 l 739 1222 m 290 1074 l 468 1272 l 572 1272 l 750 1074 l 614 1074 l 521 1188 l 426 1074 l 290 1074 z "},"Ẫ":{"ha":1042,"x_min":0,"x_max":1042,"o":"m 764 232 l 281 232 l 181 0 l 0 0 l 447 989 l 593 989 l 1042 0 l 863 0 l 764 232 m 704 371 l 522 794 l 340 371 l 704 371 m 283 1294 q 324 1398 283 1357 q 425 1439 364 1439 q 475 1432 451 1439 q 536 1410 499 1425 q 615 1388 592 1388 q 659 1401 643 1388 q 678 1438 675 1414 l 757 1438 q 716 1335 757 1376 q 615 1293 675 1293 q 565 1300 589 1293 q 504 1322 542 1307 q 425 1346 451 1346 q 381 1332 397 1346 q 363 1294 365 1318 l 283 1294 m 290 1074 l 468 1272 l 572 1272 l 750 1074 l 614 1074 l 521 1188 l 426 1074 l 290 1074 z "},"Ȁ":{"ha":1042,"x_min":0,"x_max":1042,"o":"m 764 232 l 281 232 l 181 0 l 0 0 l 447 989 l 593 989 l 1042 0 l 863 0 l 764 232 m 704 371 l 522 794 l 340 371 l 704 371 m 244 1289 l 369 1289 l 472 1074 l 383 1074 l 244 1289 m 429 1289 l 556 1289 l 657 1074 l 568 1074 l 429 1289 z "},"Ä":{"ha":1042,"x_min":0,"x_max":1042,"o":"m 764 232 l 281 232 l 181 0 l 0 0 l 447 989 l 593 989 l 1042 0 l 863 0 l 764 232 m 704 371 l 522 794 l 340 371 l 704 371 m 475 1263 l 475 1103 l 308 1103 l 308 1263 l 475 1263 m 732 1263 l 732 1103 l 565 1103 l 565 1263 l 732 1263 z "},"Ạ":{"ha":1042,"x_min":0,"x_max":1042,"o":"m 764 232 l 281 232 l 181 0 l 0 0 l 447 989 l 593 989 l 1042 0 l 863 0 l 764 232 m 704 371 l 522 794 l 340 371 l 704 371 m 604 -108 l 604 -271 l 436 -271 l 436 -108 l 604 -108 z "},"À":{"ha":1042,"x_min":0,"x_max":1042,"o":"m 764 232 l 281 232 l 181 0 l 0 0 l 447 989 l 593 989 l 1042 0 l 863 0 l 764 232 m 704 371 l 522 794 l 340 371 l 704 371 m 265 1289 l 433 1289 l 576 1074 l 464 1074 l 265 1289 z "},"Ả":{"ha":1042,"x_min":0,"x_max":1042,"o":"m 764 232 l 281 232 l 181 0 l 0 0 l 447 989 l 593 989 l 1042 0 l 863 0 l 764 232 m 704 371 l 522 794 l 340 371 l 704 371 m 567 1074 l 474 1074 l 474 1101 q 490 1140 474 1126 q 533 1167 506 1153 q 559 1181 551 1175 q 567 1193 567 1186 q 515 1218 567 1218 q 435 1203 479 1218 l 410 1271 q 536 1294 468 1294 q 641 1269 601 1294 q 681 1206 681 1244 q 663 1163 681 1178 q 614 1133 646 1147 q 578 1113 589 1121 q 567 1090 567 1104 l 567 1074 z "},"Ȃ":{"ha":1042,"x_min":0,"x_max":1042,"o":"m 764 232 l 281 232 l 181 0 l 0 0 l 447 989 l 593 989 l 1042 0 l 863 0 l 764 232 m 704 371 l 522 794 l 340 371 l 704 371 m 521 1276 q 670 1238 607 1276 q 761 1125 733 1200 l 675 1089 q 609 1150 647 1132 q 521 1168 571 1168 q 432 1150 471 1168 q 365 1089 393 1132 l 279 1125 q 371 1239 307 1201 q 521 1276 435 1276 z "},"Ā":{"ha":1042,"x_min":0,"x_max":1042,"o":"m 764 232 l 281 232 l 181 0 l 0 0 l 447 989 l 593 989 l 1042 0 l 863 0 l 764 232 m 704 371 l 522 794 l 340 371 l 704 371 m 304 1239 l 736 1239 l 736 1125 l 304 1125 l 304 1239 z "},"Ą":{"ha":1042,"x_min":0,"x_max":1064,"o":"m 1064 -244 q 931 -274 1001 -274 q 806 -232 856 -274 q 757 -122 757 -190 q 781 -35 757 -75 q 850 29 806 4 l 764 232 l 281 232 l 181 0 l 0 0 l 447 989 l 593 989 l 1042 0 l 986 0 q 905 -27 935 0 q 875 -99 875 -54 q 898 -157 875 -136 q 963 -178 921 -178 q 1040 -158 997 -178 l 1064 -244 m 704 371 l 522 794 l 340 371 l 704 371 z "},"Å":{"ha":1042,"x_min":0,"x_max":1042,"o":"m 764 232 l 281 232 l 181 0 l 0 0 l 438 968 q 390 1019 408 988 q 372 1089 372 1051 q 416 1192 372 1150 q 521 1235 460 1235 q 627 1192 583 1235 q 671 1089 671 1150 q 653 1018 671 1050 q 603 967 635 986 l 1042 0 l 863 0 l 764 232 m 521 1154 q 476 1135 494 1154 q 457 1089 457 1117 q 476 1042 457 1061 q 521 1022 494 1022 q 567 1042 549 1022 q 585 1089 585 1061 q 567 1135 585 1117 q 521 1154 549 1154 m 704 371 l 522 794 l 340 371 l 704 371 z "},"Ǻ":{"ha":1042,"x_min":0,"x_max":1042,"o":"m 764 232 l 281 232 l 181 0 l 0 0 l 438 968 q 390 1019 408 988 q 372 1089 372 1051 q 416 1192 372 1150 q 521 1235 460 1235 q 589 1218 557 1235 l 688 1324 l 857 1324 l 656 1154 q 671 1089 671 1124 q 653 1018 671 1050 q 603 967 635 986 l 1042 0 l 863 0 l 764 232 m 521 1154 q 476 1135 494 1154 q 457 1089 457 1117 q 476 1042 457 1061 q 521 1022 494 1022 q 567 1042 549 1022 q 585 1089 585 1061 q 567 1135 585 1117 q 521 1154 549 1154 m 704 371 l 522 794 l 340 371 l 704 371 z "},"Ã":{"ha":1042,"x_min":0,"x_max":1042,"o":"m 764 232 l 281 232 l 181 0 l 0 0 l 447 989 l 593 989 l 1042 0 l 863 0 l 764 232 m 704 371 l 522 794 l 340 371 l 704 371 m 283 1092 q 322 1231 283 1183 q 425 1278 361 1278 q 474 1268 451 1278 q 536 1236 497 1258 q 615 1203 588 1203 q 659 1222 643 1203 q 678 1274 675 1242 l 757 1274 q 718 1135 757 1182 q 615 1088 679 1088 q 566 1097 589 1088 q 504 1129 543 1107 q 425 1163 453 1163 q 381 1143 397 1163 q 363 1092 365 1124 l 283 1092 z "},"Æ":{"ha":1399,"x_min":-28,"x_max":1340,"o":"m 864 847 l 885 574 l 1311 574 l 1311 432 l 896 432 l 919 142 l 1340 142 l 1340 0 l 768 0 l 750 232 l 304 232 l 167 0 l -28 0 l 586 989 l 1340 989 l 1340 847 l 864 847 m 703 847 l 669 847 l 386 371 l 740 371 l 703 847 z "},"Ǽ":{"ha":1399,"x_min":-28,"x_max":1340,"o":"m 864 847 l 885 574 l 1311 574 l 1311 432 l 896 432 l 919 142 l 1340 142 l 1340 0 l 768 0 l 750 232 l 304 232 l 167 0 l -28 0 l 586 989 l 1340 989 l 1340 847 l 864 847 m 703 847 l 669 847 l 386 371 l 740 371 l 703 847 m 647 1074 l 790 1289 l 958 1289 l 760 1074 l 647 1074 z "},"B":{"ha":958,"x_min":107,"x_max":894,"o":"m 715 511 q 848 424 801 486 q 894 269 894 361 q 805 72 894 143 q 556 0 715 0 l 107 0 l 107 989 l 542 989 q 782 920 694 989 q 869 731 869 851 q 828 595 869 653 q 715 511 788 538 m 282 572 l 513 572 q 699 711 699 572 q 653 815 699 781 q 513 850 607 850 l 282 850 l 282 572 m 536 139 q 678 174 633 139 q 724 283 724 208 q 678 396 724 360 q 536 432 633 432 l 282 432 l 282 139 l 536 139 z "},"C":{"ha":951,"x_min":75,"x_max":890,"o":"m 556 -12 q 301 50 410 -12 q 133 227 192 113 q 75 496 75 342 q 133 763 75 649 q 301 940 192 878 q 556 1001 410 1001 q 744 970 656 1001 q 890 883 832 939 l 832 753 q 699 831 765 807 q 558 856 633 856 q 337 763 415 856 q 258 496 258 669 q 336 227 258 321 q 558 133 414 133 q 699 158 633 133 q 832 236 765 182 l 890 106 q 744 19 832 50 q 556 -12 656 -12 z "},"Ć":{"ha":951,"x_min":75,"x_max":890,"o":"m 556 -12 q 301 50 410 -12 q 133 227 192 113 q 75 496 75 342 q 133 763 75 649 q 301 940 192 878 q 556 1001 410 1001 q 744 970 656 1001 q 890 883 832 939 l 832 753 q 699 831 765 807 q 558 856 633 856 q 337 763 415 856 q 258 496 258 669 q 336 227 258 321 q 558 133 414 133 q 699 158 633 133 q 832 236 765 182 l 890 106 q 744 19 832 50 q 556 -12 656 -12 m 492 1074 l 635 1289 l 803 1289 l 604 1074 l 492 1074 z "},"Č":{"ha":951,"x_min":75,"x_max":890,"o":"m 556 -12 q 301 50 410 -12 q 133 227 192 113 q 75 496 75 342 q 133 763 75 649 q 301 940 192 878 q 556 1001 410 1001 q 744 970 656 1001 q 890 883 832 939 l 832 753 q 699 831 765 807 q 558 856 633 856 q 337 763 415 856 q 258 496 258 669 q 336 227 258 321 q 558 133 414 133 q 699 158 633 133 q 832 236 765 182 l 890 106 q 744 19 832 50 q 556 -12 656 -12 m 778 1289 l 600 1074 l 496 1074 l 318 1289 l 456 1289 l 549 1160 l 640 1289 l 778 1289 z "},"Ç":{"ha":951,"x_min":75,"x_max":890,"o":"m 890 106 q 756 24 836 54 q 583 -12 676 -7 l 578 -57 q 601 -56 586 -56 q 683 -81 651 -56 q 714 -153 714 -107 q 667 -240 714 -207 q 535 -274 619 -274 q 469 -267 504 -274 q 407 -249 433 -261 l 424 -175 q 532 -194 483 -194 q 601 -153 601 -194 q 554 -122 601 -122 q 499 -132 535 -122 l 472 -106 l 483 -8 q 266 73 358 7 q 124 247 174 139 q 75 496 75 356 q 133 763 75 649 q 301 940 192 878 q 556 1001 410 1001 q 744 970 656 1001 q 890 883 832 939 l 832 753 q 699 831 765 807 q 558 856 633 856 q 337 763 415 856 q 258 496 258 669 q 336 227 258 321 q 558 133 414 133 q 699 158 633 133 q 832 236 765 182 l 890 106 z "},"Ḉ":{"ha":951,"x_min":75,"x_max":890,"o":"m 604 1074 l 492 1074 l 635 1289 l 803 1289 l 604 1074 m 890 106 q 756 24 836 54 q 583 -12 676 -7 l 578 -57 q 601 -56 586 -56 q 683 -81 651 -56 q 714 -153 714 -107 q 667 -240 714 -207 q 535 -274 619 -274 q 469 -267 504 -274 q 407 -249 433 -261 l 424 -175 q 532 -194 483 -194 q 601 -153 601 -194 q 554 -122 601 -122 q 499 -132 535 -122 l 472 -106 l 483 -8 q 266 73 358 7 q 124 247 174 139 q 75 496 75 356 q 133 763 75 649 q 301 940 192 878 q 556 1001 410 1001 q 744 970 656 1001 q 890 883 832 939 l 832 753 q 699 831 765 807 q 558 856 633 856 q 337 763 415 856 q 258 496 258 669 q 336 227 258 321 q 558 133 414 133 q 699 158 633 133 q 832 236 765 182 l 890 106 z "},"Ĉ":{"ha":951,"x_min":75,"x_max":890,"o":"m 556 -12 q 301 50 410 -12 q 133 227 192 113 q 75 496 75 342 q 133 763 75 649 q 301 940 192 878 q 556 1001 410 1001 q 744 970 656 1001 q 890 883 832 939 l 832 753 q 699 831 765 807 q 558 856 633 856 q 337 763 415 856 q 258 496 258 669 q 336 227 258 321 q 558 133 414 133 q 699 158 633 133 q 832 236 765 182 l 890 106 q 744 19 832 50 q 556 -12 656 -12 m 318 1074 l 496 1289 l 600 1289 l 778 1074 l 640 1074 l 549 1201 l 456 1074 l 318 1074 z "},"Ċ":{"ha":951,"x_min":75,"x_max":890,"o":"m 556 -12 q 301 50 410 -12 q 133 227 192 113 q 75 496 75 342 q 133 763 75 649 q 301 940 192 878 q 556 1001 410 1001 q 744 970 656 1001 q 890 883 832 939 l 832 753 q 699 831 765 807 q 558 856 633 856 q 337 763 415 856 q 258 496 258 669 q 336 227 258 321 q 558 133 414 133 q 699 158 633 133 q 832 236 765 182 l 890 106 q 744 19 832 50 q 556 -12 656 -12 m 644 1268 l 644 1097 l 451 1097 l 451 1268 l 644 1268 z "},"D":{"ha":1058,"x_min":107,"x_max":982,"o":"m 107 989 l 471 989 q 848 860 714 989 q 982 496 982 731 q 848 130 982 260 q 471 0 714 0 l 107 0 l 107 989 m 460 146 q 801 496 801 146 q 460 843 801 843 l 286 843 l 286 146 l 460 146 z "},"Ǆ":{"ha":1882,"x_min":107,"x_max":1832,"o":"m 107 989 l 471 989 q 848 860 714 989 q 982 496 982 731 q 848 130 982 260 q 471 0 714 0 l 107 0 l 107 989 m 460 146 q 801 496 801 146 q 460 843 801 843 l 286 843 l 286 146 l 460 146 m 1832 143 l 1832 0 l 1106 0 l 1106 131 l 1614 846 l 1106 846 l 1106 989 l 1817 989 l 1817 860 l 1306 143 l 1832 143 m 1690 1289 l 1513 1074 l 1408 1074 l 1231 1289 l 1368 1289 l 1461 1160 l 1553 1289 l 1690 1289 z "},"Ð":{"ha":1090,"x_min":17,"x_max":1014,"o":"m 504 989 q 880 860 746 989 q 1014 496 1014 731 q 880 131 1014 261 q 504 0 746 0 l 140 0 l 140 431 l 17 431 l 17 569 l 140 569 l 140 989 l 504 989 m 493 146 q 835 496 835 146 q 493 843 835 843 l 319 843 l 319 569 l 583 569 l 583 431 l 319 431 l 319 146 l 493 146 z "},"Ď":{"ha":1058,"x_min":107,"x_max":982,"o":"m 107 989 l 471 989 q 848 860 714 989 q 982 496 982 731 q 848 130 982 260 q 471 0 714 0 l 107 0 l 107 989 m 460 146 q 801 496 801 146 q 460 843 801 843 l 286 843 l 286 146 l 460 146 m 757 1289 l 579 1074 l 475 1074 l 297 1289 l 435 1289 l 528 1160 l 619 1289 l 757 1289 z "},"Đ":{"ha":1090,"x_min":17,"x_max":1014,"o":"m 504 989 q 880 860 746 989 q 1014 496 1014 731 q 880 131 1014 261 q 504 0 746 0 l 140 0 l 140 431 l 17 431 l 17 569 l 140 569 l 140 989 l 504 989 m 493 146 q 835 496 835 146 q 493 843 835 843 l 319 843 l 319 569 l 583 569 l 583 431 l 319 431 l 319 146 l 493 146 z "},"Ḍ":{"ha":1058,"x_min":107,"x_max":982,"o":"m 107 989 l 471 989 q 848 860 714 989 q 982 496 982 731 q 848 130 982 260 q 471 0 714 0 l 107 0 l 107 989 m 460 146 q 801 496 801 146 q 460 843 801 843 l 286 843 l 286 146 l 460 146 m 613 -108 l 613 -271 l 444 -271 l 444 -108 l 613 -108 z "},"Ḏ":{"ha":1058,"x_min":107,"x_max":982,"o":"m 107 989 l 471 989 q 848 860 714 989 q 982 496 982 731 q 848 130 982 260 q 471 0 714 0 l 107 0 l 107 989 m 460 146 q 801 496 801 146 q 460 843 801 843 l 286 843 l 286 146 l 460 146 m 313 -136 l 744 -136 l 744 -244 l 313 -244 l 313 -136 z "},"ǅ":{"ha":1789,"x_min":107,"x_max":1736,"o":"m 107 989 l 471 989 q 848 860 714 989 q 982 496 982 731 q 848 130 982 260 q 471 0 714 0 l 107 0 l 107 989 m 460 146 q 801 496 801 146 q 460 843 801 843 l 286 843 l 286 146 l 460 146 m 1736 132 l 1736 0 l 1126 0 l 1126 121 l 1514 571 l 1135 571 l 1135 701 l 1721 701 l 1721 583 l 1332 132 l 1736 132 m 1663 1078 l 1488 792 l 1378 792 l 1203 1078 l 1344 1078 l 1433 900 l 1521 1078 l 1663 1078 z "},"E":{"ha":826,"x_min":107,"x_max":768,"o":"m 107 989 l 768 989 l 768 847 l 282 847 l 282 574 l 739 574 l 739 432 l 282 432 l 282 142 l 768 142 l 768 0 l 107 0 l 107 989 z "},"É":{"ha":826,"x_min":107,"x_max":768,"o":"m 107 989 l 768 989 l 768 847 l 282 847 l 282 574 l 739 574 l 739 432 l 282 432 l 282 142 l 768 142 l 768 0 l 107 0 l 107 989 m 403 1074 l 546 1289 l 714 1289 l 515 1074 l 403 1074 z "},"Ĕ":{"ha":826,"x_min":107,"x_max":768,"o":"m 107 989 l 768 989 l 768 847 l 282 847 l 282 574 l 739 574 l 739 432 l 282 432 l 282 142 l 768 142 l 768 0 l 107 0 l 107 989 m 460 1088 q 310 1125 374 1088 q 218 1239 246 1163 l 304 1276 q 370 1214 332 1232 q 460 1196 408 1196 q 548 1214 510 1196 q 614 1276 586 1232 l 700 1239 q 609 1126 672 1164 q 460 1088 546 1088 z "},"Ě":{"ha":826,"x_min":107,"x_max":768,"o":"m 107 989 l 768 989 l 768 847 l 282 847 l 282 574 l 739 574 l 739 432 l 282 432 l 282 142 l 768 142 l 768 0 l 107 0 l 107 989 m 689 1289 l 511 1074 l 407 1074 l 229 1289 l 367 1289 l 460 1160 l 551 1289 l 689 1289 z "},"Ȩ":{"ha":826,"x_min":107,"x_max":768,"o":"m 282 847 l 282 574 l 739 574 l 739 432 l 282 432 l 282 142 l 768 142 l 768 0 l 496 0 l 489 -57 q 513 -56 497 -56 q 594 -81 563 -56 q 625 -153 625 -107 q 578 -240 625 -207 q 446 -274 531 -274 q 380 -267 415 -274 q 318 -249 344 -261 l 335 -175 q 443 -194 394 -194 q 513 -153 513 -194 q 465 -122 513 -122 q 410 -132 446 -122 l 383 -106 l 396 0 l 107 0 l 107 989 l 768 989 l 768 847 l 282 847 z "},"Ḝ":{"ha":826,"x_min":107,"x_max":768,"o":"m 460 1088 q 310 1125 374 1088 q 218 1239 246 1163 l 304 1276 q 370 1214 332 1232 q 460 1196 408 1196 q 548 1214 510 1196 q 614 1276 586 1232 l 700 1239 q 609 1126 672 1164 q 460 1088 546 1088 m 282 847 l 282 574 l 739 574 l 739 432 l 282 432 l 282 142 l 768 142 l 768 0 l 496 0 l 489 -57 q 513 -56 497 -56 q 594 -81 563 -56 q 625 -153 625 -107 q 578 -240 625 -207 q 446 -274 531 -274 q 380 -267 415 -274 q 318 -249 344 -261 l 335 -175 q 443 -194 394 -194 q 513 -153 513 -194 q 465 -122 513 -122 q 410 -132 446 -122 l 383 -106 l 396 0 l 107 0 l 107 989 l 768 989 l 768 847 l 282 847 z "},"Ê":{"ha":826,"x_min":107,"x_max":768,"o":"m 107 989 l 768 989 l 768 847 l 282 847 l 282 574 l 739 574 l 739 432 l 282 432 l 282 142 l 768 142 l 768 0 l 107 0 l 107 989 m 229 1074 l 407 1289 l 511 1289 l 689 1074 l 551 1074 l 460 1201 l 367 1074 l 229 1074 z "},"Ế":{"ha":826,"x_min":107,"x_max":850,"o":"m 107 989 l 768 989 l 768 847 l 282 847 l 282 574 l 739 574 l 739 432 l 282 432 l 282 142 l 768 142 l 768 0 l 107 0 l 107 989 m 586 1221 l 697 1418 l 850 1418 l 676 1221 l 586 1221 m 229 1074 l 407 1272 l 511 1272 l 689 1074 l 553 1074 l 460 1188 l 365 1074 l 229 1074 z "},"Ệ":{"ha":826,"x_min":107,"x_max":768,"o":"m 107 989 l 768 989 l 768 847 l 282 847 l 282 574 l 739 574 l 739 432 l 282 432 l 282 142 l 768 142 l 768 0 l 107 0 l 107 989 m 543 -108 l 543 -271 l 375 -271 l 375 -108 l 543 -108 m 229 1074 l 407 1289 l 511 1289 l 689 1074 l 551 1074 l 460 1201 l 367 1074 l 229 1074 z "},"Ề":{"ha":826,"x_min":107,"x_max":768,"o":"m 107 989 l 768 989 l 768 847 l 282 847 l 282 574 l 739 574 l 739 432 l 282 432 l 282 142 l 768 142 l 768 0 l 107 0 l 107 989 m 481 1418 l 633 1418 l 736 1221 l 646 1221 l 481 1418 m 229 1074 l 407 1272 l 511 1272 l 689 1074 l 553 1074 l 460 1188 l 365 1074 l 229 1074 z "},"Ể":{"ha":826,"x_min":107,"x_max":792,"o":"m 107 989 l 768 989 l 768 847 l 282 847 l 282 574 l 739 574 l 739 432 l 282 432 l 282 142 l 768 142 l 768 0 l 107 0 l 107 989 m 678 1222 l 585 1222 l 585 1249 q 602 1287 585 1274 q 649 1311 619 1300 q 669 1319 660 1315 q 678 1329 678 1324 q 665 1345 678 1339 q 628 1351 653 1351 q 544 1336 590 1351 l 519 1401 q 646 1426 576 1426 q 752 1403 713 1426 q 792 1342 792 1379 q 775 1301 792 1315 q 726 1275 758 1288 q 690 1256 701 1264 q 678 1233 678 1247 l 678 1222 m 229 1074 l 407 1272 l 511 1272 l 689 1074 l 553 1074 l 460 1188 l 365 1074 l 229 1074 z "},"Ễ":{"ha":826,"x_min":107,"x_max":768,"o":"m 107 989 l 768 989 l 768 847 l 282 847 l 282 574 l 739 574 l 739 432 l 282 432 l 282 142 l 768 142 l 768 0 l 107 0 l 107 989 m 222 1294 q 263 1398 222 1357 q 364 1439 303 1439 q 414 1432 390 1439 q 475 1410 438 1425 q 554 1388 531 1388 q 598 1401 582 1388 q 617 1438 614 1414 l 696 1438 q 655 1335 696 1376 q 554 1293 614 1293 q 504 1300 528 1293 q 443 1322 481 1307 q 364 1346 390 1346 q 320 1332 336 1346 q 301 1294 304 1318 l 222 1294 m 229 1074 l 407 1272 l 511 1272 l 689 1074 l 553 1074 l 460 1188 l 365 1074 l 229 1074 z "},"Ȅ":{"ha":826,"x_min":107,"x_max":768,"o":"m 107 989 l 768 989 l 768 847 l 282 847 l 282 574 l 739 574 l 739 432 l 282 432 l 282 142 l 768 142 l 768 0 l 107 0 l 107 989 m 183 1289 l 308 1289 l 411 1074 l 322 1074 l 183 1289 m 368 1289 l 494 1289 l 596 1074 l 507 1074 l 368 1289 z "},"Ë":{"ha":826,"x_min":107,"x_max":768,"o":"m 107 989 l 768 989 l 768 847 l 282 847 l 282 574 l 739 574 l 739 432 l 282 432 l 282 142 l 768 142 l 768 0 l 107 0 l 107 989 m 414 1263 l 414 1103 l 247 1103 l 247 1263 l 414 1263 m 671 1263 l 671 1103 l 504 1103 l 504 1263 l 671 1263 z "},"Ė":{"ha":826,"x_min":107,"x_max":768,"o":"m 107 989 l 768 989 l 768 847 l 282 847 l 282 574 l 739 574 l 739 432 l 282 432 l 282 142 l 768 142 l 768 0 l 107 0 l 107 989 m 556 1268 l 556 1097 l 363 1097 l 363 1268 l 556 1268 z "},"Ẹ":{"ha":826,"x_min":107,"x_max":768,"o":"m 107 989 l 768 989 l 768 847 l 282 847 l 282 574 l 739 574 l 739 432 l 282 432 l 282 142 l 768 142 l 768 0 l 107 0 l 107 989 m 543 -108 l 543 -271 l 375 -271 l 375 -108 l 543 -108 z "},"È":{"ha":826,"x_min":107,"x_max":768,"o":"m 107 989 l 768 989 l 768 847 l 282 847 l 282 574 l 739 574 l 739 432 l 282 432 l 282 142 l 768 142 l 768 0 l 107 0 l 107 989 m 204 1289 l 372 1289 l 515 1074 l 403 1074 l 204 1289 z "},"Ẻ":{"ha":826,"x_min":107,"x_max":768,"o":"m 107 989 l 768 989 l 768 847 l 282 847 l 282 574 l 739 574 l 739 432 l 282 432 l 282 142 l 768 142 l 768 0 l 107 0 l 107 989 m 506 1074 l 413 1074 l 413 1101 q 428 1140 413 1126 q 472 1167 444 1153 q 498 1181 490 1175 q 506 1193 506 1186 q 454 1218 506 1218 q 374 1203 418 1218 l 349 1271 q 475 1294 407 1294 q 580 1269 540 1294 q 619 1206 619 1244 q 602 1163 619 1178 q 553 1133 585 1147 q 517 1113 528 1121 q 506 1090 506 1104 l 506 1074 z "},"Ȇ":{"ha":826,"x_min":107,"x_max":768,"o":"m 107 989 l 768 989 l 768 847 l 282 847 l 282 574 l 739 574 l 739 432 l 282 432 l 282 142 l 768 142 l 768 0 l 107 0 l 107 989 m 460 1276 q 609 1238 546 1276 q 700 1125 672 1200 l 614 1089 q 548 1150 586 1132 q 460 1168 510 1168 q 371 1150 410 1168 q 304 1089 332 1132 l 218 1125 q 310 1239 246 1201 q 460 1276 374 1276 z "},"Ē":{"ha":826,"x_min":107,"x_max":768,"o":"m 107 989 l 768 989 l 768 847 l 282 847 l 282 574 l 739 574 l 739 432 l 282 432 l 282 142 l 768 142 l 768 0 l 107 0 l 107 989 m 243 1239 l 675 1239 l 675 1125 l 243 1125 l 243 1239 z "},"Ḗ":{"ha":826,"x_min":107,"x_max":768,"o":"m 107 989 l 768 989 l 768 847 l 282 847 l 282 574 l 739 574 l 739 432 l 282 432 l 282 142 l 768 142 l 768 0 l 107 0 l 107 989 m 243 1239 l 675 1239 l 675 1125 l 243 1125 l 243 1239 m 403 1299 l 546 1514 l 714 1514 l 515 1299 l 403 1299 z "},"Ḕ":{"ha":826,"x_min":107,"x_max":768,"o":"m 107 989 l 768 989 l 768 847 l 282 847 l 282 574 l 739 574 l 739 432 l 282 432 l 282 142 l 768 142 l 768 0 l 107 0 l 107 989 m 243 1239 l 675 1239 l 675 1125 l 243 1125 l 243 1239 m 204 1514 l 372 1514 l 515 1299 l 403 1299 l 204 1514 z "},"Ę":{"ha":826,"x_min":107,"x_max":819,"o":"m 819 -244 q 688 -274 758 -274 q 563 -231 611 -274 q 514 -122 514 -189 q 568 0 514 -49 l 107 0 l 107 989 l 768 989 l 768 847 l 282 847 l 282 574 l 739 574 l 739 432 l 282 432 l 282 142 l 768 142 l 768 0 l 740 0 q 660 -26 689 0 q 632 -99 632 -53 q 655 -158 632 -137 q 718 -178 678 -178 q 796 -158 754 -178 l 819 -244 z "},"Ẽ":{"ha":826,"x_min":107,"x_max":768,"o":"m 107 989 l 768 989 l 768 847 l 282 847 l 282 574 l 739 574 l 739 432 l 282 432 l 282 142 l 768 142 l 768 0 l 107 0 l 107 989 m 222 1092 q 261 1231 222 1183 q 364 1278 300 1278 q 413 1268 390 1278 q 475 1236 436 1258 q 554 1203 526 1203 q 598 1222 582 1203 q 617 1274 614 1242 l 696 1274 q 657 1135 696 1182 q 554 1088 618 1088 q 505 1097 528 1088 q 443 1129 482 1107 q 364 1163 392 1163 q 320 1143 336 1163 q 301 1092 304 1124 l 222 1092 z "},"F":{"ha":794,"x_min":107,"x_max":753,"o":"m 107 989 l 753 989 l 753 846 l 285 846 l 285 575 l 725 575 l 725 431 l 285 431 l 285 0 l 107 0 l 107 989 z "},"G":{"ha":1026,"x_min":75,"x_max":932,"o":"m 932 535 l 932 60 q 768 7 864 26 q 572 -12 672 -12 q 307 49 419 -12 q 135 224 194 110 q 75 496 75 338 q 135 765 75 651 q 305 940 194 879 q 564 1001 415 1001 q 759 971 668 1001 q 911 885 850 940 l 850 754 q 714 832 781 808 q 568 856 647 856 q 337 764 415 856 q 258 496 258 672 q 339 222 258 314 q 579 129 419 129 q 771 156 676 129 l 771 406 l 557 406 l 557 535 l 932 535 z "},"Ğ":{"ha":1026,"x_min":75,"x_max":932,"o":"m 932 535 l 932 60 q 768 7 864 26 q 572 -12 672 -12 q 307 49 419 -12 q 135 224 194 110 q 75 496 75 338 q 135 765 75 651 q 305 940 194 879 q 564 1001 415 1001 q 759 971 668 1001 q 911 885 850 940 l 850 754 q 714 832 781 808 q 568 856 647 856 q 337 764 415 856 q 258 496 258 672 q 339 222 258 314 q 579 129 419 129 q 771 156 676 129 l 771 406 l 557 406 l 557 535 l 932 535 m 563 1088 q 413 1125 476 1088 q 321 1239 349 1163 l 407 1276 q 473 1214 435 1232 q 563 1196 511 1196 q 651 1214 613 1196 q 717 1276 689 1232 l 803 1239 q 712 1126 775 1164 q 563 1088 649 1088 z "},"Ǧ":{"ha":1026,"x_min":75,"x_max":932,"o":"m 932 535 l 932 60 q 768 7 864 26 q 572 -12 672 -12 q 307 49 419 -12 q 135 224 194 110 q 75 496 75 338 q 135 765 75 651 q 305 940 194 879 q 564 1001 415 1001 q 759 971 668 1001 q 911 885 850 940 l 850 754 q 714 832 781 808 q 568 856 647 856 q 337 764 415 856 q 258 496 258 672 q 339 222 258 314 q 579 129 419 129 q 771 156 676 129 l 771 406 l 557 406 l 557 535 l 932 535 m 792 1289 l 614 1074 l 510 1074 l 332 1289 l 469 1289 l 563 1160 l 654 1289 l 792 1289 z "},"Ĝ":{"ha":1026,"x_min":75,"x_max":932,"o":"m 932 535 l 932 60 q 768 7 864 26 q 572 -12 672 -12 q 307 49 419 -12 q 135 224 194 110 q 75 496 75 338 q 135 765 75 651 q 305 940 194 879 q 564 1001 415 1001 q 759 971 668 1001 q 911 885 850 940 l 850 754 q 714 832 781 808 q 568 856 647 856 q 337 764 415 856 q 258 496 258 672 q 339 222 258 314 q 579 129 419 129 q 771 156 676 129 l 771 406 l 557 406 l 557 535 l 932 535 m 332 1074 l 510 1289 l 614 1289 l 792 1074 l 654 1074 l 563 1201 l 469 1074 l 332 1074 z "},"Ģ":{"ha":1026,"x_min":75,"x_max":932,"o":"m 932 535 l 932 60 q 768 7 864 26 q 572 -12 672 -12 q 307 49 419 -12 q 135 224 194 110 q 75 496 75 338 q 135 765 75 651 q 305 940 194 879 q 564 1001 415 1001 q 759 971 668 1001 q 911 885 850 940 l 850 754 q 714 832 781 808 q 568 856 647 856 q 337 764 415 856 q 258 496 258 672 q 339 222 258 314 q 579 129 419 129 q 771 156 676 129 l 771 406 l 557 406 l 557 535 l 932 535 m 663 -96 l 663 -182 q 645 -290 663 -243 q 583 -378 628 -337 l 517 -331 q 565 -239 558 -289 l 481 -239 l 481 -96 l 663 -96 z "},"Ġ":{"ha":1026,"x_min":75,"x_max":932,"o":"m 932 535 l 932 60 q 768 7 864 26 q 572 -12 672 -12 q 307 49 419 -12 q 135 224 194 110 q 75 496 75 338 q 135 765 75 651 q 305 940 194 879 q 564 1001 415 1001 q 759 971 668 1001 q 911 885 850 940 l 850 754 q 714 832 781 808 q 568 856 647 856 q 337 764 415 856 q 258 496 258 672 q 339 222 258 314 q 579 129 419 129 q 771 156 676 129 l 771 406 l 557 406 l 557 535 l 932 535 m 658 1268 l 658 1097 l 465 1097 l 465 1268 l 658 1268 z "},"Ḡ":{"ha":1026,"x_min":75,"x_max":932,"o":"m 932 535 l 932 60 q 768 7 864 26 q 572 -12 672 -12 q 307 49 419 -12 q 135 224 194 110 q 75 496 75 338 q 135 765 75 651 q 305 940 194 879 q 564 1001 415 1001 q 759 971 668 1001 q 911 885 850 940 l 850 754 q 714 832 781 808 q 568 856 647 856 q 337 764 415 856 q 258 496 258 672 q 339 222 258 314 q 579 129 419 129 q 771 156 676 129 l 771 406 l 557 406 l 557 535 l 932 535 m 346 1239 l 778 1239 l 778 1125 l 346 1125 l 346 1239 z "},"H":{"ha":1075,"x_min":107,"x_max":968,"o":"m 968 989 l 968 0 l 790 0 l 790 429 l 283 429 l 283 0 l 107 0 l 107 989 l 283 989 l 283 575 l 790 575 l 790 989 l 968 989 z "},"Ħ":{"ha":1140,"x_min":17,"x_max":1124,"o":"m 1124 719 l 1000 719 l 1000 0 l 824 0 l 824 429 l 317 429 l 317 0 l 140 0 l 140 719 l 17 719 l 17 853 l 140 853 l 140 989 l 317 989 l 317 853 l 824 853 l 824 989 l 1000 989 l 1000 853 l 1124 853 l 1124 719 m 824 719 l 317 719 l 317 575 l 824 575 l 824 719 z "},"Ḫ":{"ha":1075,"x_min":107,"x_max":968,"o":"m 968 989 l 968 0 l 790 0 l 790 429 l 283 429 l 283 0 l 107 0 l 107 989 l 283 989 l 283 575 l 790 575 l 790 989 l 968 989 m 538 -310 q 383 -261 451 -310 q 288 -117 314 -212 l 375 -81 q 538 -196 436 -196 q 699 -81 638 -196 l 786 -117 q 692 -261 760 -212 q 538 -310 624 -310 z "},"Ĥ":{"ha":1075,"x_min":107,"x_max":968,"o":"m 968 989 l 968 0 l 790 0 l 790 429 l 283 429 l 283 0 l 107 0 l 107 989 l 283 989 l 283 575 l 790 575 l 790 989 l 968 989 m 307 1074 l 485 1289 l 589 1289 l 767 1074 l 629 1074 l 538 1201 l 444 1074 l 307 1074 z "},"Ḥ":{"ha":1075,"x_min":107,"x_max":968,"o":"m 968 989 l 968 0 l 790 0 l 790 429 l 283 429 l 283 0 l 107 0 l 107 989 l 283 989 l 283 575 l 790 575 l 790 989 l 968 989 m 621 -108 l 621 -271 l 453 -271 l 453 -108 l 621 -108 z "},"I":{"ha":393,"x_min":107,"x_max":286,"o":"m 107 989 l 286 989 l 286 0 l 107 0 l 107 989 z "},"Í":{"ha":393,"x_min":107,"x_max":450,"o":"m 107 989 l 286 989 l 286 0 l 107 0 l 107 989 m 139 1074 l 282 1289 l 450 1289 l 251 1074 l 139 1074 z "},"Ĭ":{"ha":393,"x_min":-46,"x_max":436,"o":"m 107 989 l 286 989 l 286 0 l 107 0 l 107 989 m 196 1088 q 46 1125 110 1088 q -46 1239 -18 1163 l 40 1276 q 106 1214 68 1232 q 196 1196 144 1196 q 284 1214 246 1196 q 350 1276 322 1232 l 436 1239 q 345 1126 408 1164 q 196 1088 282 1088 z "},"Î":{"ha":393,"x_min":-35,"x_max":425,"o":"m 107 989 l 286 989 l 286 0 l 107 0 l 107 989 m -35 1074 l 143 1289 l 247 1289 l 425 1074 l 288 1074 l 196 1201 l 103 1074 l -35 1074 z "},"Ȉ":{"ha":393,"x_min":-81,"x_max":332,"o":"m 107 989 l 286 989 l 286 0 l 107 0 l 107 989 m -81 1289 l 44 1289 l 147 1074 l 58 1074 l -81 1289 m 104 1289 l 231 1289 l 332 1074 l 243 1074 l 104 1289 z "},"Ï":{"ha":393,"x_min":-17,"x_max":407,"o":"m 107 989 l 286 989 l 286 0 l 107 0 l 107 989 m 150 1263 l 150 1103 l -17 1103 l -17 1263 l 150 1263 m 407 1263 l 407 1103 l 240 1103 l 240 1263 l 407 1263 z "},"Ḯ":{"ha":393,"x_min":-17,"x_max":450,"o":"m 107 989 l 286 989 l 286 0 l 107 0 l 107 989 m 150 1263 l 150 1103 l -17 1103 l -17 1263 l 150 1263 m 407 1263 l 407 1103 l 240 1103 l 240 1263 l 407 1263 m 139 1299 l 282 1514 l 450 1514 l 251 1299 l 139 1299 z "},"İ":{"ha":393,"x_min":99,"x_max":292,"o":"m 107 989 l 286 989 l 286 0 l 107 0 l 107 989 m 292 1268 l 292 1097 l 99 1097 l 99 1268 l 292 1268 z "},"Ị":{"ha":393,"x_min":107,"x_max":286,"o":"m 107 989 l 286 989 l 286 0 l 107 0 l 107 989 m 279 -108 l 279 -271 l 111 -271 l 111 -108 l 279 -108 z "},"Ì":{"ha":393,"x_min":-60,"x_max":286,"o":"m 107 989 l 286 989 l 286 0 l 107 0 l 107 989 m -60 1289 l 108 1289 l 251 1074 l 139 1074 l -60 1289 z "},"Ỉ":{"ha":393,"x_min":85,"x_max":356,"o":"m 107 989 l 286 989 l 286 0 l 107 0 l 107 989 m 242 1074 l 149 1074 l 149 1101 q 165 1140 149 1126 q 208 1167 181 1153 q 234 1181 226 1175 q 242 1193 242 1186 q 190 1218 242 1218 q 110 1203 154 1218 l 85 1271 q 211 1294 143 1294 q 316 1269 276 1294 q 356 1206 356 1244 q 338 1163 356 1178 q 289 1133 321 1147 q 253 1113 264 1121 q 242 1090 242 1104 l 242 1074 z "},"Ȋ":{"ha":393,"x_min":-46,"x_max":436,"o":"m 107 989 l 286 989 l 286 0 l 107 0 l 107 989 m 196 1276 q 345 1238 282 1276 q 436 1125 408 1200 l 350 1089 q 284 1150 322 1132 q 196 1168 246 1168 q 107 1150 146 1168 q 40 1089 68 1132 l -46 1125 q 46 1239 -18 1201 q 196 1276 110 1276 z "},"Ī":{"ha":393,"x_min":-21,"x_max":411,"o":"m 107 989 l 286 989 l 286 0 l 107 0 l 107 989 m -21 1239 l 411 1239 l 411 1125 l -21 1125 l -21 1239 z "},"Į":{"ha":393,"x_min":32,"x_max":339,"o":"m 339 -244 q 206 -274 276 -274 q 81 -232 129 -274 q 32 -121 32 -190 q 107 17 32 -36 l 107 989 l 286 989 l 286 0 l 269 0 q 183 -28 215 0 q 150 -99 150 -56 q 173 -157 150 -136 q 236 -178 196 -178 q 314 -158 272 -178 l 339 -244 z "},"Ĩ":{"ha":393,"x_min":-42,"x_max":432,"o":"m 107 989 l 286 989 l 286 0 l 107 0 l 107 989 m -42 1092 q -3 1231 -42 1183 q 100 1278 36 1278 q 149 1268 126 1278 q 211 1236 172 1258 q 290 1203 263 1203 q 334 1222 318 1203 q 353 1274 350 1242 l 432 1274 q 393 1135 432 1182 q 290 1088 354 1088 q 241 1097 264 1088 q 179 1129 218 1107 q 100 1163 128 1163 q 56 1143 72 1163 q 38 1092 40 1124 l -42 1092 z "},"J":{"ha":501,"x_min":-3,"x_max":394,"o":"m -3 -101 q 97 -111 68 -111 q 190 -78 165 -111 q 215 42 215 -44 l 215 989 l 394 989 l 394 42 q 335 -188 394 -117 q 131 -260 275 -260 q -3 -249 64 -260 l -3 -101 z "},"Ĵ":{"ha":501,"x_min":-3,"x_max":533,"o":"m -3 -101 q 97 -111 68 -111 q 190 -78 165 -111 q 215 42 215 -44 l 215 989 l 394 989 l 394 42 q 335 -188 394 -117 q 131 -260 275 -260 q -3 -249 64 -260 l -3 -101 m 74 1074 l 251 1289 l 356 1289 l 533 1074 l 396 1074 l 304 1201 l 211 1074 l 74 1074 z "},"K":{"ha":925,"x_min":107,"x_max":965,"o":"m 746 0 l 286 463 l 286 0 l 107 0 l 107 989 l 286 989 l 286 546 l 728 989 l 943 989 l 463 514 l 965 0 l 746 0 z "},"Ķ":{"ha":925,"x_min":107,"x_max":965,"o":"m 746 0 l 286 463 l 286 0 l 107 0 l 107 989 l 286 989 l 286 546 l 728 989 l 943 989 l 463 514 l 965 0 l 746 0 m 556 -96 l 556 -182 q 538 -290 556 -243 q 476 -378 521 -337 l 410 -331 q 458 -239 451 -289 l 374 -239 l 374 -96 l 556 -96 z "},"L":{"ha":778,"x_min":107,"x_max":749,"o":"m 107 989 l 286 989 l 286 147 l 749 147 l 749 0 l 107 0 l 107 989 z "},"Ǉ":{"ha":1197,"x_min":107,"x_max":1090,"o":"m 107 989 l 286 989 l 286 147 l 707 147 l 707 0 l 107 0 l 107 989 m 692 -101 q 793 -111 763 -111 q 885 -78 861 -111 q 910 42 910 -44 l 910 989 l 1090 989 l 1090 42 q 1031 -188 1090 -117 q 826 -260 971 -260 q 692 -249 758 -260 l 692 -101 z "},"Ĺ":{"ha":778,"x_min":107,"x_max":749,"o":"m 107 989 l 286 989 l 286 147 l 749 147 l 749 0 l 107 0 l 107 989 m 139 1074 l 282 1289 l 450 1289 l 251 1074 l 139 1074 z "},"Ľ":{"ha":778,"x_min":107,"x_max":749,"o":"m 107 989 l 286 989 l 286 147 l 749 147 l 749 0 l 107 0 l 107 989 m 408 719 l 408 989 l 529 989 l 493 719 l 408 719 z "},"Ļ":{"ha":778,"x_min":107,"x_max":749,"o":"m 107 989 l 286 989 l 286 147 l 749 147 l 749 0 l 107 0 l 107 989 m 526 -96 l 526 -182 q 509 -290 526 -243 q 447 -378 492 -337 l 381 -331 q 429 -239 422 -289 l 344 -239 l 344 -96 l 526 -96 z "},"Ŀ":{"ha":778,"x_min":107,"x_max":749,"o":"m 107 989 l 286 989 l 286 147 l 749 147 l 749 0 l 107 0 l 107 989 m 624 581 l 624 410 l 429 410 l 429 581 l 624 581 z "},"Ḷ":{"ha":778,"x_min":107,"x_max":749,"o":"m 107 989 l 286 989 l 286 147 l 749 147 l 749 0 l 107 0 l 107 989 m 519 -108 l 519 -271 l 351 -271 l 351 -108 l 519 -108 z "},"ǈ":{"ha":1140,"x_min":107,"x_max":1054,"o":"m 107 989 l 286 989 l 286 147 l 749 147 l 749 0 l 107 0 l 107 989 m 693 -154 q 761 -165 731 -165 q 842 -136 811 -165 q 872 -42 872 -107 l 872 701 l 1044 701 l 1044 -50 q 981 -242 1044 -175 q 801 -308 918 -308 q 693 -293 739 -308 l 693 -154 m 1054 1019 l 1054 849 l 861 849 l 861 1019 l 1054 1019 z "},"Ḻ":{"ha":778,"x_min":107,"x_max":749,"o":"m 107 989 l 286 989 l 286 147 l 749 147 l 749 0 l 107 0 l 107 989 m 219 -136 l 651 -136 l 651 -244 l 219 -244 l 219 -136 z "},"Ł":{"ha":811,"x_min":13,"x_max":782,"o":"m 782 147 l 782 0 l 140 0 l 140 371 l 13 297 l 13 453 l 140 526 l 140 989 l 319 989 l 319 631 l 578 779 l 578 622 l 319 474 l 319 147 l 782 147 z "},"M":{"ha":1181,"x_min":110,"x_max":1071,"o":"m 1071 989 l 1071 0 l 913 0 l 913 614 l 650 0 l 532 0 l 268 607 l 268 0 l 110 0 l 110 989 l 251 989 l 592 215 l 929 989 l 1071 989 z "},"Ṃ":{"ha":1181,"x_min":110,"x_max":1071,"o":"m 1071 989 l 1071 0 l 913 0 l 913 614 l 650 0 l 532 0 l 268 607 l 268 0 l 110 0 l 110 989 l 251 989 l 592 215 l 929 989 l 1071 989 m 674 -108 l 674 -271 l 506 -271 l 506 -108 l 674 -108 z "},"N":{"ha":1049,"x_min":107,"x_max":940,"o":"m 940 989 l 940 0 l 807 0 l 274 693 l 274 0 l 107 0 l 107 989 l 240 989 l 772 297 l 772 989 l 940 989 z "},"Ǌ":{"ha":1550,"x_min":107,"x_max":1443,"o":"m 940 989 l 940 0 l 807 0 l 274 693 l 274 0 l 107 0 l 107 989 l 240 989 l 772 297 l 772 989 l 940 989 m 1046 -101 q 1146 -111 1117 -111 q 1239 -78 1214 -111 q 1264 42 1264 -44 l 1264 989 l 1443 989 l 1443 42 q 1383 -188 1443 -117 q 1179 -260 1324 -260 q 1046 -249 1113 -260 l 1046 -101 z "},"Ń":{"ha":1049,"x_min":107,"x_max":940,"o":"m 940 989 l 940 0 l 807 0 l 274 693 l 274 0 l 107 0 l 107 989 l 240 989 l 772 297 l 772 989 l 940 989 m 467 1074 l 610 1289 l 778 1289 l 579 1074 l 467 1074 z "},"Ň":{"ha":1049,"x_min":107,"x_max":940,"o":"m 940 989 l 940 0 l 807 0 l 274 693 l 274 0 l 107 0 l 107 989 l 240 989 l 772 297 l 772 989 l 940 989 m 753 1289 l 575 1074 l 471 1074 l 293 1289 l 431 1289 l 524 1160 l 615 1289 l 753 1289 z "},"Ņ":{"ha":1049,"x_min":107,"x_max":940,"o":"m 940 989 l 940 0 l 807 0 l 274 693 l 274 0 l 107 0 l 107 989 l 240 989 l 772 297 l 772 989 l 940 989 m 615 -96 l 615 -182 q 598 -290 615 -243 q 536 -378 581 -337 l 469 -331 q 518 -239 511 -289 l 433 -239 l 433 -96 l 615 -96 z "},"Ṅ":{"ha":1049,"x_min":107,"x_max":940,"o":"m 940 989 l 940 0 l 807 0 l 274 693 l 274 0 l 107 0 l 107 989 l 240 989 l 772 297 l 772 989 l 940 989 m 619 1268 l 619 1097 l 426 1097 l 426 1268 l 619 1268 z "},"Ṇ":{"ha":1049,"x_min":107,"x_max":940,"o":"m 940 989 l 940 0 l 807 0 l 274 693 l 274 0 l 107 0 l 107 989 l 240 989 l 772 297 l 772 989 l 940 989 m 608 -108 l 608 -271 l 440 -271 l 440 -108 l 608 -108 z "},"Ŋ":{"ha":1049,"x_min":107,"x_max":940,"o":"m 940 989 l 940 25 q 872 -177 940 -106 q 665 -257 803 -249 l 550 -262 l 539 -125 l 636 -119 q 736 -80 701 -115 q 771 18 771 -44 l 771 47 l 274 693 l 274 0 l 107 0 l 107 989 l 240 989 l 772 297 l 772 989 l 940 989 z "},"ǋ":{"ha":1411,"x_min":107,"x_max":1325,"o":"m 940 989 l 940 0 l 807 0 l 274 693 l 274 0 l 107 0 l 107 989 l 240 989 l 772 297 l 772 989 l 940 989 m 964 -154 q 1032 -165 1001 -165 q 1113 -136 1082 -165 q 1143 -42 1143 -107 l 1143 701 l 1315 701 l 1315 -50 q 1252 -242 1315 -175 q 1072 -308 1189 -308 q 964 -293 1010 -308 l 964 -154 m 1325 1019 l 1325 849 l 1132 849 l 1132 1019 l 1325 1019 z "},"Ṉ":{"ha":1049,"x_min":107,"x_max":940,"o":"m 940 989 l 940 0 l 807 0 l 274 693 l 274 0 l 107 0 l 107 989 l 240 989 l 772 297 l 772 989 l 940 989 m 308 -136 l 740 -136 l 740 -244 l 308 -244 l 308 -136 z "},"Ñ":{"ha":1049,"x_min":107,"x_max":940,"o":"m 940 989 l 940 0 l 807 0 l 274 693 l 274 0 l 107 0 l 107 989 l 240 989 l 772 297 l 772 989 l 940 989 m 286 1092 q 325 1231 286 1183 q 428 1278 364 1278 q 477 1268 454 1278 q 539 1236 500 1258 q 618 1203 590 1203 q 662 1222 646 1203 q 681 1274 678 1242 l 760 1274 q 721 1135 760 1182 q 618 1088 682 1088 q 569 1097 592 1088 q 507 1129 546 1107 q 428 1163 456 1163 q 384 1143 400 1163 q 365 1092 368 1124 l 286 1092 z "},"O":{"ha":1092,"x_min":75,"x_max":1015,"o":"m 546 -12 q 297 49 403 -12 q 133 226 190 111 q 75 496 75 340 q 132 765 75 650 q 295 940 189 879 q 546 1001 401 1001 q 797 940 690 1001 q 959 765 903 879 q 1015 496 1015 650 q 958 226 1015 340 q 796 49 901 111 q 546 -12 690 -12 m 546 131 q 760 225 683 131 q 836 496 836 319 q 760 765 836 671 q 546 858 683 858 q 332 765 408 858 q 256 496 256 672 q 332 225 256 319 q 546 131 408 131 z "},"Ó":{"ha":1092,"x_min":75,"x_max":1015,"o":"m 546 -12 q 297 49 403 -12 q 133 226 190 111 q 75 496 75 340 q 132 765 75 650 q 295 940 189 879 q 546 1001 401 1001 q 797 940 690 1001 q 959 765 903 879 q 1015 496 1015 650 q 958 226 1015 340 q 796 49 901 111 q 546 -12 690 -12 m 546 131 q 760 225 683 131 q 836 496 836 319 q 760 765 836 671 q 546 858 683 858 q 332 765 408 858 q 256 496 256 672 q 332 225 256 319 q 546 131 408 131 m 489 1074 l 632 1289 l 800 1289 l 601 1074 l 489 1074 z "},"Ŏ":{"ha":1092,"x_min":75,"x_max":1015,"o":"m 546 -12 q 297 49 403 -12 q 133 226 190 111 q 75 496 75 340 q 132 765 75 650 q 295 940 189 879 q 546 1001 401 1001 q 797 940 690 1001 q 959 765 903 879 q 1015 496 1015 650 q 958 226 1015 340 q 796 49 901 111 q 546 -12 690 -12 m 546 131 q 760 225 683 131 q 836 496 836 319 q 760 765 836 671 q 546 858 683 858 q 332 765 408 858 q 256 496 256 672 q 332 225 256 319 q 546 131 408 131 m 546 1088 q 396 1125 460 1088 q 304 1239 332 1163 l 390 1276 q 456 1214 418 1232 q 546 1196 494 1196 q 634 1214 596 1196 q 700 1276 672 1232 l 786 1239 q 695 1126 758 1164 q 546 1088 632 1088 z "},"Ô":{"ha":1092,"x_min":75,"x_max":1015,"o":"m 546 -12 q 297 49 403 -12 q 133 226 190 111 q 75 496 75 340 q 132 765 75 650 q 295 940 189 879 q 546 1001 401 1001 q 797 940 690 1001 q 959 765 903 879 q 1015 496 1015 650 q 958 226 1015 340 q 796 49 901 111 q 546 -12 690 -12 m 546 131 q 760 225 683 131 q 836 496 836 319 q 760 765 836 671 q 546 858 683 858 q 332 765 408 858 q 256 496 256 672 q 332 225 256 319 q 546 131 408 131 m 315 1074 l 493 1289 l 597 1289 l 775 1074 l 638 1074 l 546 1201 l 453 1074 l 315 1074 z "},"Ố":{"ha":1092,"x_min":75,"x_max":1015,"o":"m 546 -12 q 297 49 403 -12 q 133 226 190 111 q 75 496 75 340 q 132 765 75 650 q 295 940 189 879 q 546 1001 401 1001 q 797 940 690 1001 q 959 765 903 879 q 1015 496 1015 650 q 958 226 1015 340 q 796 49 901 111 q 546 -12 690 -12 m 546 131 q 760 225 683 131 q 836 496 836 319 q 760 765 836 671 q 546 858 683 858 q 332 765 408 858 q 256 496 256 672 q 332 225 256 319 q 546 131 408 131 m 672 1221 l 783 1418 l 936 1418 l 763 1221 l 672 1221 m 315 1074 l 493 1272 l 597 1272 l 775 1074 l 639 1074 l 546 1188 l 451 1074 l 315 1074 z "},"Ộ":{"ha":1092,"x_min":75,"x_max":1015,"o":"m 546 -12 q 297 49 403 -12 q 133 226 190 111 q 75 496 75 340 q 132 765 75 650 q 295 940 189 879 q 546 1001 401 1001 q 797 940 690 1001 q 959 765 903 879 q 1015 496 1015 650 q 958 226 1015 340 q 796 49 901 111 q 546 -12 690 -12 m 546 131 q 760 225 683 131 q 836 496 836 319 q 760 765 836 671 q 546 858 683 858 q 332 765 408 858 q 256 496 256 672 q 332 225 256 319 q 546 131 408 131 m 629 -108 l 629 -271 l 461 -271 l 461 -108 l 629 -108 m 315 1074 l 493 1289 l 597 1289 l 775 1074 l 638 1074 l 546 1201 l 453 1074 l 315 1074 z "},"Ồ":{"ha":1092,"x_min":75,"x_max":1015,"o":"m 546 -12 q 297 49 403 -12 q 133 226 190 111 q 75 496 75 340 q 132 765 75 650 q 295 940 189 879 q 546 1001 401 1001 q 797 940 690 1001 q 959 765 903 879 q 1015 496 1015 650 q 958 226 1015 340 q 796 49 901 111 q 546 -12 690 -12 m 546 131 q 760 225 683 131 q 836 496 836 319 q 760 765 836 671 q 546 858 683 858 q 332 765 408 858 q 256 496 256 672 q 332 225 256 319 q 546 131 408 131 m 567 1418 l 719 1418 l 822 1221 l 732 1221 l 567 1418 m 315 1074 l 493 1272 l 597 1272 l 775 1074 l 639 1074 l 546 1188 l 451 1074 l 315 1074 z "},"Ổ":{"ha":1092,"x_min":75,"x_max":1015,"o":"m 546 -12 q 297 49 403 -12 q 133 226 190 111 q 75 496 75 340 q 132 765 75 650 q 295 940 189 879 q 546 1001 401 1001 q 797 940 690 1001 q 959 765 903 879 q 1015 496 1015 650 q 958 226 1015 340 q 796 49 901 111 q 546 -12 690 -12 m 546 131 q 760 225 683 131 q 836 496 836 319 q 760 765 836 671 q 546 858 683 858 q 332 765 408 858 q 256 496 256 672 q 332 225 256 319 q 546 131 408 131 m 764 1222 l 671 1222 l 671 1249 q 688 1287 671 1274 q 735 1311 706 1300 q 755 1319 746 1315 q 764 1329 764 1324 q 751 1345 764 1339 q 714 1351 739 1351 q 631 1336 676 1351 l 606 1401 q 732 1426 663 1426 q 838 1403 799 1426 q 878 1342 878 1379 q 861 1301 878 1315 q 813 1275 844 1288 q 776 1256 788 1264 q 764 1233 764 1247 l 764 1222 m 315 1074 l 493 1272 l 597 1272 l 775 1074 l 639 1074 l 546 1188 l 451 1074 l 315 1074 z "},"Ỗ":{"ha":1092,"x_min":75,"x_max":1015,"o":"m 546 -12 q 297 49 403 -12 q 133 226 190 111 q 75 496 75 340 q 132 765 75 650 q 295 940 189 879 q 546 1001 401 1001 q 797 940 690 1001 q 959 765 903 879 q 1015 496 1015 650 q 958 226 1015 340 q 796 49 901 111 q 546 -12 690 -12 m 546 131 q 760 225 683 131 q 836 496 836 319 q 760 765 836 671 q 546 858 683 858 q 332 765 408 858 q 256 496 256 672 q 332 225 256 319 q 546 131 408 131 m 308 1294 q 349 1398 308 1357 q 450 1439 389 1439 q 500 1432 476 1439 q 561 1410 524 1425 q 640 1388 617 1388 q 684 1401 668 1388 q 703 1438 700 1414 l 782 1438 q 741 1335 782 1376 q 640 1293 700 1293 q 590 1300 614 1293 q 529 1322 567 1307 q 450 1346 476 1346 q 406 1332 422 1346 q 388 1294 390 1318 l 308 1294 m 315 1074 l 493 1272 l 597 1272 l 775 1074 l 639 1074 l 546 1188 l 451 1074 l 315 1074 z "},"Ȍ":{"ha":1092,"x_min":75,"x_max":1015,"o":"m 546 -12 q 297 49 403 -12 q 133 226 190 111 q 75 496 75 340 q 132 765 75 650 q 295 940 189 879 q 546 1001 401 1001 q 797 940 690 1001 q 959 765 903 879 q 1015 496 1015 650 q 958 226 1015 340 q 796 49 901 111 q 546 -12 690 -12 m 546 131 q 760 225 683 131 q 836 496 836 319 q 760 765 836 671 q 546 858 683 858 q 332 765 408 858 q 256 496 256 672 q 332 225 256 319 q 546 131 408 131 m 269 1289 l 394 1289 l 497 1074 l 408 1074 l 269 1289 m 454 1289 l 581 1289 l 682 1074 l 593 1074 l 454 1289 z "},"Ö":{"ha":1092,"x_min":75,"x_max":1015,"o":"m 546 -12 q 297 49 403 -12 q 133 226 190 111 q 75 496 75 340 q 132 765 75 650 q 295 940 189 879 q 546 1001 401 1001 q 797 940 690 1001 q 959 765 903 879 q 1015 496 1015 650 q 958 226 1015 340 q 796 49 901 111 q 546 -12 690 -12 m 546 131 q 760 225 683 131 q 836 496 836 319 q 760 765 836 671 q 546 858 683 858 q 332 765 408 858 q 256 496 256 672 q 332 225 256 319 q 546 131 408 131 m 500 1263 l 500 1103 l 333 1103 l 333 1263 l 500 1263 m 757 1263 l 757 1103 l 590 1103 l 590 1263 l 757 1263 z "},"Ȫ":{"ha":1092,"x_min":75,"x_max":1015,"o":"m 546 -12 q 297 49 403 -12 q 133 226 190 111 q 75 496 75 340 q 132 765 75 650 q 295 940 189 879 q 546 1001 401 1001 q 797 940 690 1001 q 959 765 903 879 q 1015 496 1015 650 q 958 226 1015 340 q 796 49 901 111 q 546 -12 690 -12 m 546 131 q 760 225 683 131 q 836 496 836 319 q 760 765 836 671 q 546 858 683 858 q 332 765 408 858 q 256 496 256 672 q 332 225 256 319 q 546 131 408 131 m 500 1263 l 500 1103 l 333 1103 l 333 1263 l 500 1263 m 757 1263 l 757 1103 l 590 1103 l 590 1263 l 757 1263 m 329 1464 l 761 1464 l 761 1350 l 329 1350 l 329 1464 z "},"Ȱ":{"ha":1092,"x_min":75,"x_max":1015,"o":"m 546 -12 q 297 49 403 -12 q 133 226 190 111 q 75 496 75 340 q 132 765 75 650 q 295 940 189 879 q 546 1001 401 1001 q 797 940 690 1001 q 959 765 903 879 q 1015 496 1015 650 q 958 226 1015 340 q 796 49 901 111 q 546 -12 690 -12 m 546 131 q 760 225 683 131 q 836 496 836 319 q 760 765 836 671 q 546 858 683 858 q 332 765 408 858 q 256 496 256 672 q 332 225 256 319 q 546 131 408 131 m 642 1268 l 642 1097 l 449 1097 l 449 1268 l 642 1268 m 329 1464 l 761 1464 l 761 1350 l 329 1350 l 329 1464 z "},"Ọ":{"ha":1092,"x_min":75,"x_max":1015,"o":"m 546 -12 q 297 49 403 -12 q 133 226 190 111 q 75 496 75 340 q 132 765 75 650 q 295 940 189 879 q 546 1001 401 1001 q 797 940 690 1001 q 959 765 903 879 q 1015 496 1015 650 q 958 226 1015 340 q 796 49 901 111 q 546 -12 690 -12 m 546 131 q 760 225 683 131 q 836 496 836 319 q 760 765 836 671 q 546 858 683 858 q 332 765 408 858 q 256 496 256 672 q 332 225 256 319 q 546 131 408 131 m 629 -108 l 629 -271 l 461 -271 l 461 -108 l 629 -108 z "},"Ò":{"ha":1092,"x_min":75,"x_max":1015,"o":"m 546 -12 q 297 49 403 -12 q 133 226 190 111 q 75 496 75 340 q 132 765 75 650 q 295 940 189 879 q 546 1001 401 1001 q 797 940 690 1001 q 959 765 903 879 q 1015 496 1015 650 q 958 226 1015 340 q 796 49 901 111 q 546 -12 690 -12 m 546 131 q 760 225 683 131 q 836 496 836 319 q 760 765 836 671 q 546 858 683 858 q 332 765 408 858 q 256 496 256 672 q 332 225 256 319 q 546 131 408 131 m 290 1289 l 458 1289 l 601 1074 l 489 1074 l 290 1289 z "},"Ỏ":{"ha":1092,"x_min":75,"x_max":1015,"o":"m 546 -12 q 297 49 403 -12 q 133 226 190 111 q 75 496 75 340 q 132 765 75 650 q 295 940 189 879 q 546 1001 401 1001 q 797 940 690 1001 q 959 765 903 879 q 1015 496 1015 650 q 958 226 1015 340 q 796 49 901 111 q 546 -12 690 -12 m 546 131 q 760 225 683 131 q 836 496 836 319 q 760 765 836 671 q 546 858 683 858 q 332 765 408 858 q 256 496 256 672 q 332 225 256 319 q 546 131 408 131 m 592 1074 l 499 1074 l 499 1101 q 515 1140 499 1126 q 558 1167 531 1153 q 584 1181 576 1175 q 592 1193 592 1186 q 540 1218 592 1218 q 460 1203 504 1218 l 435 1271 q 561 1294 493 1294 q 666 1269 626 1294 q 706 1206 706 1244 q 688 1163 706 1178 q 639 1133 671 1147 q 603 1113 614 1121 q 592 1090 592 1104 l 592 1074 z "},"Ơ":{"ha":1092,"x_min":75,"x_max":1015,"o":"m 1015 1114 q 970 973 1015 1029 q 846 903 925 917 q 972 735 929 839 q 1015 496 1015 632 q 958 226 1015 340 q 796 49 901 111 q 546 -12 690 -12 q 297 49 403 -12 q 133 226 190 111 q 75 496 75 340 q 133 765 75 650 q 297 940 190 879 q 550 1001 404 1001 q 646 994 594 1001 q 731 989 701 989 q 835 1022 804 989 q 865 1136 865 1056 l 865 1161 l 1015 1161 l 1015 1114 m 546 131 q 760 225 683 131 q 836 496 836 319 q 760 765 836 671 q 546 858 683 858 q 332 765 408 858 q 256 496 256 672 q 332 225 256 319 q 546 131 408 131 z "},"Ớ":{"ha":1092,"x_min":75,"x_max":1015,"o":"m 1015 1114 q 970 973 1015 1029 q 846 903 925 917 q 972 735 929 839 q 1015 496 1015 632 q 958 226 1015 340 q 796 49 901 111 q 546 -12 690 -12 q 297 49 403 -12 q 133 226 190 111 q 75 496 75 340 q 133 765 75 650 q 297 940 190 879 q 550 1001 404 1001 q 646 994 594 1001 q 731 989 701 989 q 835 1022 804 989 q 865 1136 865 1056 l 865 1161 l 1015 1161 l 1015 1114 m 546 131 q 760 225 683 131 q 836 496 836 319 q 760 765 836 671 q 546 858 683 858 q 332 765 408 858 q 256 496 256 672 q 332 225 256 319 q 546 131 408 131 m 489 1074 l 632 1289 l 800 1289 l 601 1074 l 489 1074 z "},"Ợ":{"ha":1092,"x_min":75,"x_max":1015,"o":"m 1015 1114 q 970 973 1015 1029 q 846 903 925 917 q 972 735 929 839 q 1015 496 1015 632 q 958 226 1015 340 q 796 49 901 111 q 546 -12 690 -12 q 297 49 403 -12 q 133 226 190 111 q 75 496 75 340 q 133 765 75 650 q 297 940 190 879 q 550 1001 404 1001 q 646 994 594 1001 q 731 989 701 989 q 835 1022 804 989 q 865 1136 865 1056 l 865 1161 l 1015 1161 l 1015 1114 m 546 131 q 760 225 683 131 q 836 496 836 319 q 760 765 836 671 q 546 858 683 858 q 332 765 408 858 q 256 496 256 672 q 332 225 256 319 q 546 131 408 131 m 631 -108 l 631 -271 l 463 -271 l 463 -108 l 631 -108 z "},"Ờ":{"ha":1092,"x_min":75,"x_max":1015,"o":"m 1015 1114 q 970 973 1015 1029 q 846 903 925 917 q 972 735 929 839 q 1015 496 1015 632 q 958 226 1015 340 q 796 49 901 111 q 546 -12 690 -12 q 297 49 403 -12 q 133 226 190 111 q 75 496 75 340 q 133 765 75 650 q 297 940 190 879 q 550 1001 404 1001 q 646 994 594 1001 q 731 989 701 989 q 835 1022 804 989 q 865 1136 865 1056 l 865 1161 l 1015 1161 l 1015 1114 m 546 131 q 760 225 683 131 q 836 496 836 319 q 760 765 836 671 q 546 858 683 858 q 332 765 408 858 q 256 496 256 672 q 332 225 256 319 q 546 131 408 131 m 290 1289 l 458 1289 l 601 1074 l 489 1074 l 290 1289 z "},"Ở":{"ha":1092,"x_min":75,"x_max":1015,"o":"m 1015 1114 q 970 973 1015 1029 q 846 903 925 917 q 972 735 929 839 q 1015 496 1015 632 q 958 226 1015 340 q 796 49 901 111 q 546 -12 690 -12 q 297 49 403 -12 q 133 226 190 111 q 75 496 75 340 q 133 765 75 650 q 297 940 190 879 q 550 1001 404 1001 q 646 994 594 1001 q 731 989 701 989 q 835 1022 804 989 q 865 1136 865 1056 l 865 1161 l 1015 1161 l 1015 1114 m 546 131 q 760 225 683 131 q 836 496 836 319 q 760 765 836 671 q 546 858 683 858 q 332 765 408 858 q 256 496 256 672 q 332 225 256 319 q 546 131 408 131 m 592 1074 l 499 1074 l 499 1101 q 515 1140 499 1126 q 558 1167 531 1153 q 584 1181 576 1175 q 592 1193 592 1186 q 540 1218 592 1218 q 460 1203 504 1218 l 435 1271 q 561 1294 493 1294 q 666 1269 626 1294 q 706 1206 706 1244 q 688 1163 706 1178 q 639 1133 671 1147 q 603 1113 614 1121 q 592 1090 592 1104 l 592 1074 z "},"Ỡ":{"ha":1092,"x_min":75,"x_max":1015,"o":"m 1015 1114 q 970 973 1015 1029 q 846 903 925 917 q 972 735 929 839 q 1015 496 1015 632 q 958 226 1015 340 q 796 49 901 111 q 546 -12 690 -12 q 297 49 403 -12 q 133 226 190 111 q 75 496 75 340 q 133 765 75 650 q 297 940 190 879 q 550 1001 404 1001 q 646 994 594 1001 q 731 989 701 989 q 835 1022 804 989 q 865 1136 865 1056 l 865 1161 l 1015 1161 l 1015 1114 m 546 131 q 760 225 683 131 q 836 496 836 319 q 760 765 836 671 q 546 858 683 858 q 332 765 408 858 q 256 496 256 672 q 332 225 256 319 q 546 131 408 131 m 308 1092 q 347 1231 308 1183 q 450 1278 386 1278 q 499 1268 476 1278 q 561 1236 522 1258 q 640 1203 613 1203 q 684 1222 668 1203 q 703 1274 700 1242 l 782 1274 q 743 1135 782 1182 q 640 1088 704 1088 q 591 1097 614 1088 q 529 1129 568 1107 q 450 1163 478 1163 q 406 1143 422 1163 q 388 1092 390 1124 l 308 1092 z "},"Ő":{"ha":1092,"x_min":75,"x_max":1015,"o":"m 546 -12 q 297 49 403 -12 q 133 226 190 111 q 75 496 75 340 q 132 765 75 650 q 295 940 189 879 q 546 1001 401 1001 q 797 940 690 1001 q 959 765 903 879 q 1015 496 1015 650 q 958 226 1015 340 q 796 49 901 111 q 546 -12 690 -12 m 546 131 q 760 225 683 131 q 836 496 836 319 q 760 765 836 671 q 546 858 683 858 q 332 765 408 858 q 256 496 256 672 q 332 225 256 319 q 546 131 408 131 m 510 1289 l 636 1289 l 497 1074 l 408 1074 l 510 1289 m 696 1289 l 821 1289 l 682 1074 l 593 1074 l 696 1289 z "},"Ȏ":{"ha":1092,"x_min":75,"x_max":1015,"o":"m 546 -12 q 297 49 403 -12 q 133 226 190 111 q 75 496 75 340 q 132 765 75 650 q 295 940 189 879 q 546 1001 401 1001 q 797 940 690 1001 q 959 765 903 879 q 1015 496 1015 650 q 958 226 1015 340 q 796 49 901 111 q 546 -12 690 -12 m 546 131 q 760 225 683 131 q 836 496 836 319 q 760 765 836 671 q 546 858 683 858 q 332 765 408 858 q 256 496 256 672 q 332 225 256 319 q 546 131 408 131 m 546 1276 q 695 1238 632 1276 q 786 1125 758 1200 l 700 1089 q 634 1150 672 1132 q 546 1168 596 1168 q 457 1150 496 1168 q 390 1089 418 1132 l 304 1125 q 396 1239 332 1201 q 546 1276 460 1276 z "},"Ō":{"ha":1092,"x_min":75,"x_max":1015,"o":"m 546 -12 q 297 49 403 -12 q 133 226 190 111 q 75 496 75 340 q 132 765 75 650 q 295 940 189 879 q 546 1001 401 1001 q 797 940 690 1001 q 959 765 903 879 q 1015 496 1015 650 q 958 226 1015 340 q 796 49 901 111 q 546 -12 690 -12 m 546 131 q 760 225 683 131 q 836 496 836 319 q 760 765 836 671 q 546 858 683 858 q 332 765 408 858 q 256 496 256 672 q 332 225 256 319 q 546 131 408 131 m 329 1239 l 761 1239 l 761 1125 l 329 1125 l 329 1239 z "},"Ṓ":{"ha":1092,"x_min":75,"x_max":1015,"o":"m 546 -12 q 297 49 403 -12 q 133 226 190 111 q 75 496 75 340 q 132 765 75 650 q 295 940 189 879 q 546 1001 401 1001 q 797 940 690 1001 q 959 765 903 879 q 1015 496 1015 650 q 958 226 1015 340 q 796 49 901 111 q 546 -12 690 -12 m 546 131 q 760 225 683 131 q 836 496 836 319 q 760 765 836 671 q 546 858 683 858 q 332 765 408 858 q 256 496 256 672 q 332 225 256 319 q 546 131 408 131 m 329 1239 l 761 1239 l 761 1125 l 329 1125 l 329 1239 m 489 1299 l 632 1514 l 800 1514 l 601 1299 l 489 1299 z "},"Ṑ":{"ha":1092,"x_min":75,"x_max":1015,"o":"m 546 -12 q 297 49 403 -12 q 133 226 190 111 q 75 496 75 340 q 132 765 75 650 q 295 940 189 879 q 546 1001 401 1001 q 797 940 690 1001 q 959 765 903 879 q 1015 496 1015 650 q 958 226 1015 340 q 796 49 901 111 q 546 -12 690 -12 m 546 131 q 760 225 683 131 q 836 496 836 319 q 760 765 836 671 q 546 858 683 858 q 332 765 408 858 q 256 496 256 672 q 332 225 256 319 q 546 131 408 131 m 329 1239 l 761 1239 l 761 1125 l 329 1125 l 329 1239 m 290 1514 l 458 1514 l 601 1299 l 489 1299 l 290 1514 z "},"Ǫ":{"ha":1092,"x_min":75,"x_max":1015,"o":"m 693 6 q 599 -99 599 -22 q 622 -157 599 -136 q 686 -178 644 -178 q 764 -158 721 -178 l 788 -244 q 656 -274 729 -274 q 530 -231 579 -274 q 481 -122 481 -189 q 525 -11 481 -60 q 286 56 388 -7 q 130 231 185 118 q 75 496 75 344 q 133 764 75 650 q 297 940 190 878 q 546 1001 403 1001 q 796 940 690 1001 q 958 765 901 879 q 1015 496 1015 650 q 931 178 1015 306 q 693 6 847 50 m 546 131 q 760 225 683 131 q 836 496 836 319 q 760 765 836 671 q 546 858 683 858 q 332 765 408 858 q 256 496 256 672 q 332 225 256 319 q 546 131 408 131 z "},"Ø":{"ha":1092,"x_min":75,"x_max":1015,"o":"m 858 896 q 975 728 935 829 q 1015 496 1015 626 q 958 226 1015 340 q 796 49 901 111 q 546 -12 690 -12 q 350 24 438 -12 l 288 -83 l 171 -14 l 233 94 q 116 263 157 161 q 75 496 75 365 q 132 765 75 650 q 295 940 189 879 q 546 1001 401 1001 q 742 967 653 1001 l 804 1072 l 921 1003 l 858 896 m 256 496 q 319 242 256 335 l 667 836 q 546 858 608 858 q 332 765 408 858 q 256 496 256 672 m 546 131 q 760 225 683 131 q 836 496 836 319 q 772 749 836 656 l 425 154 q 546 131 481 131 z "},"Ǿ":{"ha":1092,"x_min":75,"x_max":1015,"o":"m 858 896 q 975 728 935 829 q 1015 496 1015 626 q 958 226 1015 340 q 796 49 901 111 q 546 -12 690 -12 q 350 24 438 -12 l 288 -83 l 171 -14 l 233 94 q 116 263 157 161 q 75 496 75 365 q 132 765 75 650 q 295 940 189 879 q 546 1001 401 1001 q 742 967 653 1001 l 804 1072 l 921 1003 l 858 896 m 256 496 q 319 242 256 335 l 667 836 q 546 858 608 858 q 332 765 408 858 q 256 496 256 672 m 546 131 q 760 225 683 131 q 836 496 836 319 q 772 749 836 656 l 425 154 q 546 131 481 131 m 489 1074 l 632 1289 l 800 1289 l 601 1074 l 489 1074 z "},"Õ":{"ha":1092,"x_min":75,"x_max":1015,"o":"m 546 -12 q 297 49 403 -12 q 133 226 190 111 q 75 496 75 340 q 132 765 75 650 q 295 940 189 879 q 546 1001 401 1001 q 797 940 690 1001 q 959 765 903 879 q 1015 496 1015 650 q 958 226 1015 340 q 796 49 901 111 q 546 -12 690 -12 m 546 131 q 760 225 683 131 q 836 496 836 319 q 760 765 836 671 q 546 858 683 858 q 332 765 408 858 q 256 496 256 672 q 332 225 256 319 q 546 131 408 131 m 308 1092 q 347 1231 308 1183 q 450 1278 386 1278 q 499 1268 476 1278 q 561 1236 522 1258 q 640 1203 613 1203 q 684 1222 668 1203 q 703 1274 700 1242 l 782 1274 q 743 1135 782 1182 q 640 1088 704 1088 q 591 1097 614 1088 q 529 1129 568 1107 q 450 1163 478 1163 q 406 1143 422 1163 q 388 1092 390 1124 l 308 1092 z "},"Ṍ":{"ha":1092,"x_min":75,"x_max":1015,"o":"m 546 -12 q 297 49 403 -12 q 133 226 190 111 q 75 496 75 340 q 132 765 75 650 q 295 940 189 879 q 546 1001 401 1001 q 797 940 690 1001 q 959 765 903 879 q 1015 496 1015 650 q 958 226 1015 340 q 796 49 901 111 q 546 -12 690 -12 m 546 131 q 760 225 683 131 q 836 496 836 319 q 760 765 836 671 q 546 858 683 858 q 332 765 408 858 q 256 496 256 672 q 332 225 256 319 q 546 131 408 131 m 308 1092 q 347 1231 308 1183 q 450 1278 386 1278 q 499 1268 476 1278 q 561 1236 522 1258 q 640 1203 613 1203 q 684 1222 668 1203 q 703 1274 700 1242 l 782 1274 q 743 1135 782 1182 q 640 1088 704 1088 q 591 1097 614 1088 q 529 1129 568 1107 q 450 1163 478 1163 q 406 1143 422 1163 q 388 1092 390 1124 l 308 1092 m 489 1299 l 632 1514 l 800 1514 l 601 1299 l 489 1299 z "},"Ṏ":{"ha":1092,"x_min":75,"x_max":1015,"o":"m 546 -12 q 297 49 403 -12 q 133 226 190 111 q 75 496 75 340 q 132 765 75 650 q 295 940 189 879 q 546 1001 401 1001 q 797 940 690 1001 q 959 765 903 879 q 1015 496 1015 650 q 958 226 1015 340 q 796 49 901 111 q 546 -12 690 -12 m 546 131 q 760 225 683 131 q 836 496 836 319 q 760 765 836 671 q 546 858 683 858 q 332 765 408 858 q 256 496 256 672 q 332 225 256 319 q 546 131 408 131 m 308 1092 q 347 1231 308 1183 q 450 1278 386 1278 q 499 1268 476 1278 q 561 1236 522 1258 q 640 1203 613 1203 q 684 1222 668 1203 q 703 1274 700 1242 l 782 1274 q 743 1135 782 1182 q 640 1088 704 1088 q 591 1097 614 1088 q 529 1129 568 1107 q 450 1163 478 1163 q 406 1143 422 1163 q 388 1092 390 1124 l 308 1092 m 500 1488 l 500 1328 l 333 1328 l 333 1488 l 500 1488 m 757 1488 l 757 1328 l 590 1328 l 590 1488 l 757 1488 z "},"Ȭ":{"ha":1092,"x_min":75,"x_max":1015,"o":"m 546 -12 q 297 49 403 -12 q 133 226 190 111 q 75 496 75 340 q 132 765 75 650 q 295 940 189 879 q 546 1001 401 1001 q 797 940 690 1001 q 959 765 903 879 q 1015 496 1015 650 q 958 226 1015 340 q 796 49 901 111 q 546 -12 690 -12 m 546 131 q 760 225 683 131 q 836 496 836 319 q 760 765 836 671 q 546 858 683 858 q 332 765 408 858 q 256 496 256 672 q 332 225 256 319 q 546 131 408 131 m 308 1092 q 347 1231 308 1183 q 450 1278 386 1278 q 499 1268 476 1278 q 561 1236 522 1258 q 640 1203 613 1203 q 684 1222 668 1203 q 703 1274 700 1242 l 782 1274 q 743 1135 782 1182 q 640 1088 704 1088 q 591 1097 614 1088 q 529 1129 568 1107 q 450 1163 478 1163 q 406 1143 422 1163 q 388 1092 390 1124 l 308 1092 m 329 1464 l 761 1464 l 761 1350 l 329 1350 l 329 1464 z "},"Œ":{"ha":1465,"x_min":75,"x_max":1407,"o":"m 922 847 l 922 574 l 1379 574 l 1379 432 l 922 432 l 922 142 l 1407 142 l 1407 0 l 757 0 l 757 56 q 528 -12 669 -12 q 292 51 394 -12 q 132 231 189 115 q 75 496 75 346 q 132 760 75 644 q 292 938 189 875 q 528 1001 394 1001 q 757 935 672 1001 l 757 989 l 1407 989 l 1407 847 l 922 847 m 256 496 q 332 226 256 321 q 546 131 408 131 q 746 189 671 131 l 746 800 q 546 858 671 858 q 331 764 407 858 q 256 496 256 669 z "},"P":{"ha":925,"x_min":107,"x_max":874,"o":"m 107 989 l 536 989 q 785 912 696 989 q 874 701 874 835 q 784 490 874 568 q 536 413 694 413 l 286 413 l 286 0 l 107 0 l 107 989 m 515 551 q 656 590 608 551 q 704 700 704 628 q 657 812 704 774 q 515 850 610 850 l 286 850 l 286 551 l 515 551 z "},"Þ":{"ha":926,"x_min":107,"x_max":874,"o":"m 543 783 q 787 710 700 783 q 874 504 874 636 q 785 297 874 371 q 543 222 697 222 l 283 222 l 283 0 l 107 0 l 107 989 l 283 989 l 283 783 l 543 783 m 517 363 q 658 397 613 363 q 704 504 704 431 q 658 610 704 576 q 517 643 613 643 l 283 643 l 283 363 l 517 363 z "},"Q":{"ha":1092,"x_min":75,"x_max":1015,"o":"m 757 29 q 832 -72 788 -25 q 936 -168 876 -119 l 815 -265 q 690 -152 749 -218 q 586 -11 631 -86 q 546 -12 574 -12 q 297 49 403 -12 q 133 226 190 111 q 75 496 75 340 q 132 765 75 650 q 295 940 189 879 q 546 1001 401 1001 q 797 940 690 1001 q 959 765 903 879 q 1015 496 1015 650 q 948 206 1015 326 q 757 29 881 85 m 256 496 q 332 225 256 319 q 546 131 408 131 q 760 225 683 131 q 836 496 836 319 q 760 765 836 671 q 546 858 683 858 q 332 765 408 858 q 256 496 256 672 z "},"R":{"ha":975,"x_min":107,"x_max":921,"o":"m 921 0 l 732 0 l 606 329 q 554 393 589 375 q 464 411 519 411 l 285 411 l 285 0 l 107 0 l 107 989 l 531 989 q 786 915 699 989 q 874 704 874 842 q 822 537 874 606 q 674 439 769 468 q 800 317 761 421 l 921 0 m 506 550 q 656 588 607 550 q 704 701 704 625 q 656 813 704 776 q 506 850 608 850 l 282 850 l 282 550 l 506 550 z "},"Ŕ":{"ha":975,"x_min":107,"x_max":921,"o":"m 921 0 l 732 0 l 606 329 q 554 393 589 375 q 464 411 519 411 l 285 411 l 285 0 l 107 0 l 107 989 l 531 989 q 786 915 699 989 q 874 704 874 842 q 822 537 874 606 q 674 439 769 468 q 800 317 761 421 l 921 0 m 506 550 q 656 588 607 550 q 704 701 704 625 q 656 813 704 776 q 506 850 608 850 l 282 850 l 282 550 l 506 550 m 431 1074 l 574 1289 l 742 1289 l 543 1074 l 431 1074 z "},"Ř":{"ha":975,"x_min":107,"x_max":921,"o":"m 921 0 l 732 0 l 606 329 q 554 393 589 375 q 464 411 519 411 l 285 411 l 285 0 l 107 0 l 107 989 l 531 989 q 786 915 699 989 q 874 704 874 842 q 822 537 874 606 q 674 439 769 468 q 800 317 761 421 l 921 0 m 506 550 q 656 588 607 550 q 704 701 704 625 q 656 813 704 776 q 506 850 608 850 l 282 850 l 282 550 l 506 550 m 717 1289 l 539 1074 l 435 1074 l 257 1289 l 394 1289 l 488 1160 l 579 1289 l 717 1289 z "},"Ŗ":{"ha":975,"x_min":107,"x_max":921,"o":"m 921 0 l 732 0 l 606 329 q 554 393 589 375 q 464 411 519 411 l 285 411 l 285 0 l 107 0 l 107 989 l 531 989 q 786 915 699 989 q 874 704 874 842 q 822 537 874 606 q 674 439 769 468 q 800 317 761 421 l 921 0 m 506 550 q 656 588 607 550 q 704 701 704 625 q 656 813 704 776 q 506 850 608 850 l 282 850 l 282 550 l 506 550 m 579 -96 l 579 -182 q 562 -290 579 -243 q 500 -378 544 -337 l 433 -331 q 482 -239 475 -289 l 397 -239 l 397 -96 l 579 -96 z "},"Ȑ":{"ha":975,"x_min":107,"x_max":921,"o":"m 921 0 l 732 0 l 606 329 q 554 393 589 375 q 464 411 519 411 l 285 411 l 285 0 l 107 0 l 107 989 l 531 989 q 786 915 699 989 q 874 704 874 842 q 822 537 874 606 q 674 439 769 468 q 800 317 761 421 l 921 0 m 506 550 q 656 588 607 550 q 704 701 704 625 q 656 813 704 776 q 506 850 608 850 l 282 850 l 282 550 l 506 550 m 211 1289 l 336 1289 l 439 1074 l 350 1074 l 211 1289 m 396 1289 l 522 1289 l 624 1074 l 535 1074 l 396 1289 z "},"Ṛ":{"ha":975,"x_min":107,"x_max":921,"o":"m 921 0 l 732 0 l 606 329 q 554 393 589 375 q 464 411 519 411 l 285 411 l 285 0 l 107 0 l 107 989 l 531 989 q 786 915 699 989 q 874 704 874 842 q 822 537 874 606 q 674 439 769 468 q 800 317 761 421 l 921 0 m 506 550 q 656 588 607 550 q 704 701 704 625 q 656 813 704 776 q 506 850 608 850 l 282 850 l 282 550 l 506 550 m 572 -108 l 572 -271 l 404 -271 l 404 -108 l 572 -108 z "},"Ȓ":{"ha":975,"x_min":107,"x_max":921,"o":"m 921 0 l 732 0 l 606 329 q 554 393 589 375 q 464 411 519 411 l 285 411 l 285 0 l 107 0 l 107 989 l 531 989 q 786 915 699 989 q 874 704 874 842 q 822 537 874 606 q 674 439 769 468 q 800 317 761 421 l 921 0 m 506 550 q 656 588 607 550 q 704 701 704 625 q 656 813 704 776 q 506 850 608 850 l 282 850 l 282 550 l 506 550 m 488 1276 q 637 1238 574 1276 q 728 1125 700 1200 l 642 1089 q 576 1150 614 1132 q 488 1168 538 1168 q 399 1150 438 1168 q 332 1089 360 1132 l 246 1125 q 338 1239 274 1201 q 488 1276 401 1276 z "},"Ṟ":{"ha":975,"x_min":107,"x_max":921,"o":"m 921 0 l 732 0 l 606 329 q 554 393 589 375 q 464 411 519 411 l 285 411 l 285 0 l 107 0 l 107 989 l 531 989 q 786 915 699 989 q 874 704 874 842 q 822 537 874 606 q 674 439 769 468 q 800 317 761 421 l 921 0 m 506 550 q 656 588 607 550 q 704 701 704 625 q 656 813 704 776 q 506 850 608 850 l 282 850 l 282 550 l 506 550 m 272 -136 l 704 -136 l 704 -244 l 272 -244 l 272 -136 z "},"S":{"ha":894,"x_min":60,"x_max":835,"o":"m 442 -12 q 228 18 328 -12 q 60 106 129 49 l 121 236 q 272 156 193 182 q 443 131 350 131 q 602 167 546 131 q 658 268 658 203 q 606 353 658 324 q 435 410 554 383 q 164 514 249 450 q 79 700 79 578 q 126 856 79 788 q 260 963 174 924 q 461 1001 347 1001 q 659 970 565 1001 q 813 883 753 939 l 753 753 q 461 858 621 858 q 310 819 365 858 q 254 711 254 779 q 303 622 254 653 q 472 565 353 592 q 674 502 596 536 q 793 415 751 468 q 835 281 835 361 q 788 126 835 192 q 651 24 740 60 q 442 -12 563 -12 z "},"Ś":{"ha":894,"x_min":60,"x_max":835,"o":"m 442 -12 q 228 18 328 -12 q 60 106 129 49 l 121 236 q 272 156 193 182 q 443 131 350 131 q 602 167 546 131 q 658 268 658 203 q 606 353 658 324 q 435 410 554 383 q 164 514 249 450 q 79 700 79 578 q 126 856 79 788 q 260 963 174 924 q 461 1001 347 1001 q 659 970 565 1001 q 813 883 753 939 l 753 753 q 461 858 621 858 q 310 819 365 858 q 254 711 254 779 q 303 622 254 653 q 472 565 353 592 q 674 502 596 536 q 793 415 751 468 q 835 281 835 361 q 788 126 835 192 q 651 24 740 60 q 442 -12 563 -12 m 393 1074 l 536 1289 l 704 1289 l 506 1074 l 393 1074 z "},"Ṥ":{"ha":894,"x_min":60,"x_max":835,"o":"m 442 -12 q 228 18 328 -12 q 60 106 129 49 l 121 236 q 272 156 193 182 q 443 131 350 131 q 602 167 546 131 q 658 268 658 203 q 606 353 658 324 q 435 410 554 383 q 164 514 249 450 q 79 700 79 578 q 126 856 79 788 q 260 963 174 924 q 461 1001 347 1001 q 659 970 565 1001 q 813 883 753 939 l 753 753 q 461 858 621 858 q 310 819 365 858 q 254 711 254 779 q 303 622 254 653 q 472 565 353 592 q 674 502 596 536 q 793 415 751 468 q 835 281 835 361 q 788 126 835 192 q 651 24 740 60 q 442 -12 563 -12 m 421 1074 l 564 1289 l 732 1289 l 533 1074 l 421 1074 m 381 1289 l 381 1118 l 188 1118 l 188 1289 l 381 1289 z "},"Š":{"ha":894,"x_min":60,"x_max":835,"o":"m 442 -12 q 228 18 328 -12 q 60 106 129 49 l 121 236 q 272 156 193 182 q 443 131 350 131 q 602 167 546 131 q 658 268 658 203 q 606 353 658 324 q 435 410 554 383 q 164 514 249 450 q 79 700 79 578 q 126 856 79 788 q 260 963 174 924 q 461 1001 347 1001 q 659 970 565 1001 q 813 883 753 939 l 753 753 q 461 858 621 858 q 310 819 365 858 q 254 711 254 779 q 303 622 254 653 q 472 565 353 592 q 674 502 596 536 q 793 415 751 468 q 835 281 835 361 q 788 126 835 192 q 651 24 740 60 q 442 -12 563 -12 m 679 1289 l 501 1074 l 397 1074 l 219 1289 l 357 1289 l 450 1160 l 542 1289 l 679 1289 z "},"Ṧ":{"ha":894,"x_min":60,"x_max":835,"o":"m 442 -12 q 228 18 328 -12 q 60 106 129 49 l 121 236 q 272 156 193 182 q 443 131 350 131 q 602 167 546 131 q 658 268 658 203 q 606 353 658 324 q 435 410 554 383 q 164 514 249 450 q 79 700 79 578 q 126 856 79 788 q 260 963 174 924 q 461 1001 347 1001 q 659 970 565 1001 q 813 883 753 939 l 753 753 q 461 858 621 858 q 310 819 365 858 q 254 711 254 779 q 303 622 254 653 q 472 565 353 592 q 674 502 596 536 q 793 415 751 468 q 835 281 835 361 q 788 126 835 192 q 651 24 740 60 q 442 -12 563 -12 m 679 1289 l 501 1074 l 397 1074 l 219 1289 l 357 1289 l 450 1160 l 542 1289 l 679 1289 m 546 1493 l 546 1322 l 353 1322 l 353 1493 l 546 1493 z "},"Ş":{"ha":894,"x_min":60,"x_max":835,"o":"m 835 281 q 741 76 835 154 q 482 -11 647 -3 l 476 -57 q 500 -56 485 -56 q 581 -81 550 -56 q 613 -153 613 -107 q 565 -240 613 -207 q 433 -274 518 -274 q 367 -267 403 -274 q 306 -249 332 -261 l 322 -175 q 431 -194 382 -194 q 500 -153 500 -194 q 453 -122 500 -122 q 397 -132 433 -122 l 371 -106 l 382 -10 q 203 27 286 -3 q 60 106 119 57 l 121 236 q 272 156 193 182 q 443 131 350 131 q 602 167 546 131 q 658 268 658 203 q 606 353 658 324 q 435 410 554 383 q 164 514 249 450 q 79 700 79 578 q 126 856 79 788 q 260 963 174 924 q 461 1001 347 1001 q 659 970 565 1001 q 813 883 753 939 l 753 753 q 461 858 621 858 q 310 819 365 858 q 254 711 254 779 q 303 622 254 653 q 472 565 353 592 q 674 502 596 536 q 793 415 751 468 q 835 281 835 361 z "},"Ŝ":{"ha":894,"x_min":60,"x_max":835,"o":"m 442 -12 q 228 18 328 -12 q 60 106 129 49 l 121 236 q 272 156 193 182 q 443 131 350 131 q 602 167 546 131 q 658 268 658 203 q 606 353 658 324 q 435 410 554 383 q 164 514 249 450 q 79 700 79 578 q 126 856 79 788 q 260 963 174 924 q 461 1001 347 1001 q 659 970 565 1001 q 813 883 753 939 l 753 753 q 461 858 621 858 q 310 819 365 858 q 254 711 254 779 q 303 622 254 653 q 472 565 353 592 q 674 502 596 536 q 793 415 751 468 q 835 281 835 361 q 788 126 835 192 q 651 24 740 60 q 442 -12 563 -12 m 219 1074 l 397 1289 l 501 1289 l 679 1074 l 542 1074 l 450 1201 l 357 1074 l 219 1074 z "},"Ș":{"ha":894,"x_min":60,"x_max":835,"o":"m 442 -12 q 228 18 328 -12 q 60 106 129 49 l 121 236 q 272 156 193 182 q 443 131 350 131 q 602 167 546 131 q 658 268 658 203 q 606 353 658 324 q 435 410 554 383 q 164 514 249 450 q 79 700 79 578 q 126 856 79 788 q 260 963 174 924 q 461 1001 347 1001 q 659 970 565 1001 q 813 883 753 939 l 753 753 q 461 858 621 858 q 310 819 365 858 q 254 711 254 779 q 303 622 254 653 q 472 565 353 592 q 674 502 596 536 q 793 415 751 468 q 835 281 835 361 q 788 126 835 192 q 651 24 740 60 q 442 -12 563 -12 m 538 -96 l 538 -182 q 520 -290 538 -243 q 458 -378 503 -337 l 392 -331 q 440 -239 433 -289 l 356 -239 l 356 -96 l 538 -96 z "},"Ṡ":{"ha":894,"x_min":60,"x_max":835,"o":"m 442 -12 q 228 18 328 -12 q 60 106 129 49 l 121 236 q 272 156 193 182 q 443 131 350 131 q 602 167 546 131 q 658 268 658 203 q 606 353 658 324 q 435 410 554 383 q 164 514 249 450 q 79 700 79 578 q 126 856 79 788 q 260 963 174 924 q 461 1001 347 1001 q 659 970 565 1001 q 813 883 753 939 l 753 753 q 461 858 621 858 q 310 819 365 858 q 254 711 254 779 q 303 622 254 653 q 472 565 353 592 q 674 502 596 536 q 793 415 751 468 q 835 281 835 361 q 788 126 835 192 q 651 24 740 60 q 442 -12 563 -12 m 546 1268 l 546 1097 l 353 1097 l 353 1268 l 546 1268 z "},"Ṣ":{"ha":894,"x_min":60,"x_max":835,"o":"m 442 -12 q 228 18 328 -12 q 60 106 129 49 l 121 236 q 272 156 193 182 q 443 131 350 131 q 602 167 546 131 q 658 268 658 203 q 606 353 658 324 q 435 410 554 383 q 164 514 249 450 q 79 700 79 578 q 126 856 79 788 q 260 963 174 924 q 461 1001 347 1001 q 659 970 565 1001 q 813 883 753 939 l 753 753 q 461 858 621 858 q 310 819 365 858 q 254 711 254 779 q 303 622 254 653 q 472 565 353 592 q 674 502 596 536 q 793 415 751 468 q 835 281 835 361 q 788 126 835 192 q 651 24 740 60 q 442 -12 563 -12 m 531 -108 l 531 -271 l 363 -271 l 363 -108 l 531 -108 z "},"Ṩ":{"ha":894,"x_min":60,"x_max":835,"o":"m 442 -12 q 228 18 328 -12 q 60 106 129 49 l 121 236 q 272 156 193 182 q 443 131 350 131 q 602 167 546 131 q 658 268 658 203 q 606 353 658 324 q 435 410 554 383 q 164 514 249 450 q 79 700 79 578 q 126 856 79 788 q 260 963 174 924 q 461 1001 347 1001 q 659 970 565 1001 q 813 883 753 939 l 753 753 q 461 858 621 858 q 310 819 365 858 q 254 711 254 779 q 303 622 254 653 q 472 565 353 592 q 674 502 596 536 q 793 415 751 468 q 835 281 835 361 q 788 126 835 192 q 651 24 740 60 q 442 -12 563 -12 m 531 -108 l 531 -271 l 363 -271 l 363 -108 l 531 -108 m 546 1268 l 546 1097 l 353 1097 l 353 1268 l 546 1268 z "},"ẞ":{"ha":985,"x_min":107,"x_max":921,"o":"m 714 515 q 867 433 813 496 q 921 274 921 369 q 881 128 921 193 q 771 28 842 64 q 611 -8 700 -8 q 350 75 456 -8 l 400 204 q 600 128 511 128 q 710 169 669 129 q 750 281 750 210 q 701 394 750 358 q 544 429 651 429 l 390 429 l 390 572 l 513 572 q 637 608 593 572 q 681 713 681 644 q 633 819 681 781 q 504 857 586 857 q 339 799 394 857 q 283 628 283 742 l 283 0 l 107 0 l 107 628 q 210 903 107 807 q 508 999 314 999 q 758 925 665 999 q 850 726 850 851 q 815 599 850 654 q 714 515 779 543 z "},"Ə":{"ha":1064,"x_min":75,"x_max":988,"o":"m 499 1001 q 758 940 647 1001 q 928 764 868 878 q 988 496 988 650 q 932 231 988 346 q 775 51 876 115 q 542 -12 674 -12 q 292 48 397 -12 q 131 223 188 108 q 75 497 75 338 l 75 571 l 804 571 q 708 783 788 710 q 494 857 629 857 q 197 753 326 857 l 136 883 q 299 969 201 938 q 499 1001 397 1001 m 538 131 q 724 207 656 131 q 806 431 793 283 l 257 431 q 341 208 268 285 q 538 131 414 131 z "},"T":{"ha":860,"x_min":17,"x_max":843,"o":"m 339 842 l 17 842 l 17 989 l 843 989 l 843 842 l 519 842 l 519 0 l 339 0 l 339 842 z "},"Ŧ":{"ha":860,"x_min":17,"x_max":843,"o":"m 519 842 l 519 569 l 714 569 l 714 431 l 519 431 l 519 0 l 339 0 l 339 431 l 146 431 l 146 569 l 339 569 l 339 842 l 17 842 l 17 989 l 843 989 l 843 842 l 519 842 z "},"Ť":{"ha":860,"x_min":17,"x_max":843,"o":"m 339 842 l 17 842 l 17 989 l 843 989 l 843 842 l 519 842 l 519 0 l 339 0 l 339 842 m 658 1289 l 481 1074 l 376 1074 l 199 1289 l 336 1289 l 429 1160 l 521 1289 l 658 1289 z "},"Ţ":{"ha":860,"x_min":17,"x_max":843,"o":"m 465 0 l 458 -57 q 482 -56 467 -56 q 563 -81 532 -56 q 594 -153 594 -107 q 547 -240 594 -207 q 415 -274 500 -274 q 349 -267 385 -274 q 288 -249 314 -261 l 304 -175 q 413 -194 364 -194 q 482 -153 482 -194 q 435 -122 482 -122 q 379 -132 415 -122 l 353 -106 l 365 0 l 339 0 l 339 842 l 17 842 l 17 989 l 843 989 l 843 842 l 519 842 l 519 0 l 465 0 z "},"Ț":{"ha":860,"x_min":17,"x_max":843,"o":"m 339 842 l 17 842 l 17 989 l 843 989 l 843 842 l 519 842 l 519 0 l 339 0 l 339 842 m 519 -96 l 519 -182 q 502 -290 519 -243 q 440 -378 485 -337 l 374 -331 q 422 -239 415 -289 l 338 -239 l 338 -96 l 519 -96 z "},"Ṭ":{"ha":860,"x_min":17,"x_max":843,"o":"m 339 842 l 17 842 l 17 989 l 843 989 l 843 842 l 519 842 l 519 0 l 339 0 l 339 842 m 513 -108 l 513 -271 l 344 -271 l 344 -108 l 513 -108 z "},"Ṯ":{"ha":860,"x_min":17,"x_max":843,"o":"m 339 842 l 17 842 l 17 989 l 843 989 l 843 842 l 519 842 l 519 0 l 339 0 l 339 842 m 213 -136 l 644 -136 l 644 -244 l 213 -244 l 213 -136 z "},"U":{"ha":1028,"x_min":101,"x_max":928,"o":"m 515 -12 q 206 92 311 -12 q 101 400 101 197 l 101 989 l 278 989 l 278 390 q 338 197 278 263 q 515 131 397 131 q 691 197 631 131 q 751 390 751 264 l 751 989 l 928 989 l 928 400 q 822 93 928 199 q 515 -12 717 -12 z "},"Ú":{"ha":1028,"x_min":101,"x_max":928,"o":"m 515 -12 q 206 92 311 -12 q 101 400 101 197 l 101 989 l 278 989 l 278 390 q 338 197 278 263 q 515 131 397 131 q 691 197 631 131 q 751 390 751 264 l 751 989 l 928 989 l 928 400 q 822 93 928 199 q 515 -12 717 -12 m 458 1074 l 601 1289 l 769 1289 l 571 1074 l 458 1074 z "},"Ŭ":{"ha":1028,"x_min":101,"x_max":928,"o":"m 515 -12 q 206 92 311 -12 q 101 400 101 197 l 101 989 l 278 989 l 278 390 q 338 197 278 263 q 515 131 397 131 q 691 197 631 131 q 751 390 751 264 l 751 989 l 928 989 l 928 400 q 822 93 928 199 q 515 -12 717 -12 m 515 1088 q 365 1125 429 1088 q 274 1239 301 1163 l 360 1276 q 426 1214 388 1232 q 515 1196 464 1196 q 603 1214 565 1196 q 669 1276 642 1232 l 756 1239 q 665 1126 728 1164 q 515 1088 601 1088 z "},"Û":{"ha":1028,"x_min":101,"x_max":928,"o":"m 515 -12 q 206 92 311 -12 q 101 400 101 197 l 101 989 l 278 989 l 278 390 q 338 197 278 263 q 515 131 397 131 q 691 197 631 131 q 751 390 751 264 l 751 989 l 928 989 l 928 400 q 822 93 928 199 q 515 -12 717 -12 m 285 1074 l 463 1289 l 567 1289 l 744 1074 l 607 1074 l 515 1201 l 422 1074 l 285 1074 z "},"Ȕ":{"ha":1028,"x_min":101,"x_max":928,"o":"m 515 -12 q 206 92 311 -12 q 101 400 101 197 l 101 989 l 278 989 l 278 390 q 338 197 278 263 q 515 131 397 131 q 691 197 631 131 q 751 390 751 264 l 751 989 l 928 989 l 928 400 q 822 93 928 199 q 515 -12 717 -12 m 239 1289 l 364 1289 l 467 1074 l 378 1074 l 239 1289 m 424 1289 l 550 1289 l 651 1074 l 563 1074 l 424 1289 z "},"Ü":{"ha":1028,"x_min":101,"x_max":928,"o":"m 515 -12 q 206 92 311 -12 q 101 400 101 197 l 101 989 l 278 989 l 278 390 q 338 197 278 263 q 515 131 397 131 q 691 197 631 131 q 751 390 751 264 l 751 989 l 928 989 l 928 400 q 822 93 928 199 q 515 -12 717 -12 m 469 1263 l 469 1103 l 303 1103 l 303 1263 l 469 1263 m 726 1263 l 726 1103 l 560 1103 l 560 1263 l 726 1263 z "},"Ụ":{"ha":1028,"x_min":101,"x_max":928,"o":"m 515 -12 q 206 92 311 -12 q 101 400 101 197 l 101 989 l 278 989 l 278 390 q 338 197 278 263 q 515 131 397 131 q 691 197 631 131 q 751 390 751 264 l 751 989 l 928 989 l 928 400 q 822 93 928 199 q 515 -12 717 -12 m 599 -108 l 599 -271 l 431 -271 l 431 -108 l 599 -108 z "},"Ù":{"ha":1028,"x_min":101,"x_max":928,"o":"m 515 -12 q 206 92 311 -12 q 101 400 101 197 l 101 989 l 278 989 l 278 390 q 338 197 278 263 q 515 131 397 131 q 691 197 631 131 q 751 390 751 264 l 751 989 l 928 989 l 928 400 q 822 93 928 199 q 515 -12 717 -12 m 260 1289 l 428 1289 l 571 1074 l 458 1074 l 260 1289 z "},"Ủ":{"ha":1028,"x_min":101,"x_max":928,"o":"m 515 -12 q 206 92 311 -12 q 101 400 101 197 l 101 989 l 278 989 l 278 390 q 338 197 278 263 q 515 131 397 131 q 691 197 631 131 q 751 390 751 264 l 751 989 l 928 989 l 928 400 q 822 93 928 199 q 515 -12 717 -12 m 561 1074 l 468 1074 l 468 1101 q 484 1140 468 1126 q 528 1167 500 1153 q 553 1181 546 1175 q 561 1193 561 1186 q 510 1218 561 1218 q 429 1203 474 1218 l 404 1271 q 531 1294 463 1294 q 635 1269 596 1294 q 675 1206 675 1244 q 658 1163 675 1178 q 608 1133 640 1147 q 572 1113 583 1121 q 561 1090 561 1104 l 561 1074 z "},"Ư":{"ha":1028,"x_min":101,"x_max":1088,"o":"m 1088 1161 l 1088 1114 q 1045 976 1088 1032 q 928 904 1003 921 l 928 400 q 822 93 928 199 q 515 -12 717 -12 q 206 92 311 -12 q 101 400 101 197 l 101 989 l 278 989 l 278 390 q 338 197 278 263 q 515 131 397 131 q 691 197 631 131 q 751 390 751 264 l 751 989 l 803 989 q 906 1022 876 989 q 936 1136 936 1056 l 936 1161 l 1088 1161 z "},"Ứ":{"ha":1028,"x_min":101,"x_max":1088,"o":"m 1088 1161 l 1088 1114 q 1045 976 1088 1032 q 928 904 1003 921 l 928 400 q 822 93 928 199 q 515 -12 717 -12 q 206 92 311 -12 q 101 400 101 197 l 101 989 l 278 989 l 278 390 q 338 197 278 263 q 515 131 397 131 q 691 197 631 131 q 751 390 751 264 l 751 989 l 803 989 q 906 1022 876 989 q 936 1136 936 1056 l 936 1161 l 1088 1161 m 458 1074 l 601 1289 l 769 1289 l 571 1074 l 458 1074 z "},"Ự":{"ha":1028,"x_min":101,"x_max":1088,"o":"m 1088 1161 l 1088 1114 q 1045 976 1088 1032 q 928 904 1003 921 l 928 400 q 822 93 928 199 q 515 -12 717 -12 q 206 92 311 -12 q 101 400 101 197 l 101 989 l 278 989 l 278 390 q 338 197 278 263 q 515 131 397 131 q 691 197 631 131 q 751 390 751 264 l 751 989 l 803 989 q 906 1022 876 989 q 936 1136 936 1056 l 936 1161 l 1088 1161 m 599 -108 l 599 -271 l 431 -271 l 431 -108 l 599 -108 z "},"Ừ":{"ha":1028,"x_min":101,"x_max":1088,"o":"m 1088 1161 l 1088 1114 q 1045 976 1088 1032 q 928 904 1003 921 l 928 400 q 822 93 928 199 q 515 -12 717 -12 q 206 92 311 -12 q 101 400 101 197 l 101 989 l 278 989 l 278 390 q 338 197 278 263 q 515 131 397 131 q 691 197 631 131 q 751 390 751 264 l 751 989 l 803 989 q 906 1022 876 989 q 936 1136 936 1056 l 936 1161 l 1088 1161 m 260 1289 l 428 1289 l 571 1074 l 458 1074 l 260 1289 z "},"Ử":{"ha":1028,"x_min":101,"x_max":1088,"o":"m 1088 1161 l 1088 1114 q 1045 976 1088 1032 q 928 904 1003 921 l 928 400 q 822 93 928 199 q 515 -12 717 -12 q 206 92 311 -12 q 101 400 101 197 l 101 989 l 278 989 l 278 390 q 338 197 278 263 q 515 131 397 131 q 691 197 631 131 q 751 390 751 264 l 751 989 l 803 989 q 906 1022 876 989 q 936 1136 936 1056 l 936 1161 l 1088 1161 m 561 1074 l 468 1074 l 468 1101 q 484 1140 468 1126 q 528 1167 500 1153 q 553 1181 546 1175 q 561 1193 561 1186 q 510 1218 561 1218 q 429 1203 474 1218 l 404 1271 q 531 1294 463 1294 q 635 1269 596 1294 q 675 1206 675 1244 q 658 1163 675 1178 q 608 1133 640 1147 q 572 1113 583 1121 q 561 1090 561 1104 l 561 1074 z "},"Ữ":{"ha":1028,"x_min":101,"x_max":1088,"o":"m 1088 1161 l 1088 1114 q 1045 976 1088 1032 q 928 904 1003 921 l 928 400 q 822 93 928 199 q 515 -12 717 -12 q 206 92 311 -12 q 101 400 101 197 l 101 989 l 278 989 l 278 390 q 338 197 278 263 q 515 131 397 131 q 691 197 631 131 q 751 390 751 264 l 751 989 l 803 989 q 906 1022 876 989 q 936 1136 936 1056 l 936 1161 l 1088 1161 m 278 1092 q 317 1231 278 1183 q 419 1278 356 1278 q 469 1268 446 1278 q 531 1236 492 1258 q 610 1203 582 1203 q 653 1222 638 1203 q 672 1274 669 1242 l 751 1274 q 713 1135 751 1182 q 610 1088 674 1088 q 560 1097 583 1088 q 499 1129 538 1107 q 419 1163 447 1163 q 376 1143 392 1163 q 357 1092 360 1124 l 278 1092 z "},"Ű":{"ha":1028,"x_min":101,"x_max":928,"o":"m 515 -12 q 206 92 311 -12 q 101 400 101 197 l 101 989 l 278 989 l 278 390 q 338 197 278 263 q 515 131 397 131 q 691 197 631 131 q 751 390 751 264 l 751 989 l 928 989 l 928 400 q 822 93 928 199 q 515 -12 717 -12 m 479 1289 l 606 1289 l 467 1074 l 378 1074 l 479 1289 m 665 1289 l 790 1289 l 651 1074 l 563 1074 l 665 1289 z "},"Ȗ":{"ha":1028,"x_min":101,"x_max":928,"o":"m 515 -12 q 206 92 311 -12 q 101 400 101 197 l 101 989 l 278 989 l 278 390 q 338 197 278 263 q 515 131 397 131 q 691 197 631 131 q 751 390 751 264 l 751 989 l 928 989 l 928 400 q 822 93 928 199 q 515 -12 717 -12 m 515 1276 q 665 1238 601 1276 q 756 1125 728 1200 l 669 1089 q 603 1150 642 1132 q 515 1168 565 1168 q 426 1150 465 1168 q 360 1089 388 1132 l 274 1125 q 365 1239 301 1201 q 515 1276 429 1276 z "},"Ū":{"ha":1028,"x_min":101,"x_max":928,"o":"m 515 -12 q 206 92 311 -12 q 101 400 101 197 l 101 989 l 278 989 l 278 390 q 338 197 278 263 q 515 131 397 131 q 691 197 631 131 q 751 390 751 264 l 751 989 l 928 989 l 928 400 q 822 93 928 199 q 515 -12 717 -12 m 299 1239 l 731 1239 l 731 1125 l 299 1125 l 299 1239 z "},"Ṻ":{"ha":1028,"x_min":101,"x_max":928,"o":"m 515 -12 q 206 92 311 -12 q 101 400 101 197 l 101 989 l 278 989 l 278 390 q 338 197 278 263 q 515 131 397 131 q 691 197 631 131 q 751 390 751 264 l 751 989 l 928 989 l 928 400 q 822 93 928 199 q 515 -12 717 -12 m 299 1239 l 731 1239 l 731 1125 l 299 1125 l 299 1239 m 469 1488 l 469 1328 l 303 1328 l 303 1488 l 469 1488 m 726 1488 l 726 1328 l 560 1328 l 560 1488 l 726 1488 z "},"Ų":{"ha":1028,"x_min":101,"x_max":928,"o":"m 928 989 l 928 400 q 863 142 928 242 q 671 7 797 43 q 574 -99 574 -19 q 597 -157 574 -136 q 661 -178 619 -178 q 739 -158 696 -178 l 763 -244 q 631 -274 704 -274 q 506 -231 554 -274 q 457 -122 457 -189 q 504 -12 457 -57 q 203 95 306 -10 q 101 400 101 200 l 101 989 l 278 989 l 278 390 q 338 197 278 263 q 515 131 397 131 q 691 197 631 131 q 751 390 751 264 l 751 989 l 928 989 z "},"Ů":{"ha":1028,"x_min":101,"x_max":928,"o":"m 515 -12 q 206 92 311 -12 q 101 400 101 197 l 101 989 l 278 989 l 278 390 q 338 197 278 263 q 515 131 397 131 q 691 197 631 131 q 751 390 751 264 l 751 989 l 928 989 l 928 400 q 822 93 928 199 q 515 -12 717 -12 m 515 1067 q 409 1108 453 1067 q 365 1213 365 1150 q 409 1317 365 1274 q 515 1360 453 1360 q 620 1317 576 1360 q 664 1213 664 1274 q 621 1108 664 1150 q 515 1067 578 1067 m 515 1146 q 560 1165 542 1146 q 578 1213 578 1185 q 560 1259 578 1240 q 515 1278 542 1278 q 469 1259 488 1278 q 451 1213 451 1240 q 469 1165 451 1185 q 515 1146 488 1146 z "},"Ũ":{"ha":1028,"x_min":101,"x_max":928,"o":"m 515 -12 q 206 92 311 -12 q 101 400 101 197 l 101 989 l 278 989 l 278 390 q 338 197 278 263 q 515 131 397 131 q 691 197 631 131 q 751 390 751 264 l 751 989 l 928 989 l 928 400 q 822 93 928 199 q 515 -12 717 -12 m 278 1092 q 317 1231 278 1183 q 419 1278 356 1278 q 469 1268 446 1278 q 531 1236 492 1258 q 610 1203 582 1203 q 653 1222 638 1203 q 672 1274 669 1242 l 751 1274 q 713 1135 751 1182 q 610 1088 674 1088 q 560 1097 583 1088 q 499 1129 538 1107 q 419 1163 447 1163 q 376 1143 392 1163 q 357 1092 360 1124 l 278 1092 z "},"Ṹ":{"ha":1028,"x_min":101,"x_max":928,"o":"m 515 -12 q 206 92 311 -12 q 101 400 101 197 l 101 989 l 278 989 l 278 390 q 338 197 278 263 q 515 131 397 131 q 691 197 631 131 q 751 390 751 264 l 751 989 l 928 989 l 928 400 q 822 93 928 199 q 515 -12 717 -12 m 278 1092 q 317 1231 278 1183 q 419 1278 356 1278 q 469 1268 446 1278 q 531 1236 492 1258 q 610 1203 582 1203 q 653 1222 638 1203 q 672 1274 669 1242 l 751 1274 q 713 1135 751 1182 q 610 1088 674 1088 q 560 1097 583 1088 q 499 1129 538 1107 q 419 1163 447 1163 q 376 1143 392 1163 q 357 1092 360 1124 l 278 1092 m 458 1299 l 601 1514 l 769 1514 l 571 1299 l 458 1299 z "},"V":{"ha":1001,"x_min":-12,"x_max":1014,"o":"m 1014 989 l 574 0 l 428 0 l -12 989 l 174 989 l 503 225 l 832 989 l 1014 989 z "},"W":{"ha":1556,"x_min":33,"x_max":1524,"o":"m 1524 989 l 1174 0 l 1028 0 l 779 711 l 528 0 l 382 0 l 33 989 l 215 989 l 463 251 l 719 989 l 847 989 l 1099 246 l 1351 989 l 1524 989 z "},"Ẃ":{"ha":1556,"x_min":33,"x_max":1524,"o":"m 1524 989 l 1174 0 l 1028 0 l 779 711 l 528 0 l 382 0 l 33 989 l 215 989 l 463 251 l 719 989 l 847 989 l 1099 246 l 1351 989 l 1524 989 m 721 1074 l 864 1289 l 1032 1289 l 833 1074 l 721 1074 z "},"Ŵ":{"ha":1556,"x_min":33,"x_max":1524,"o":"m 1524 989 l 1174 0 l 1028 0 l 779 711 l 528 0 l 382 0 l 33 989 l 215 989 l 463 251 l 719 989 l 847 989 l 1099 246 l 1351 989 l 1524 989 m 547 1074 l 725 1289 l 829 1289 l 1007 1074 l 869 1074 l 778 1201 l 685 1074 l 547 1074 z "},"Ẅ":{"ha":1556,"x_min":33,"x_max":1524,"o":"m 1524 989 l 1174 0 l 1028 0 l 779 711 l 528 0 l 382 0 l 33 989 l 215 989 l 463 251 l 719 989 l 847 989 l 1099 246 l 1351 989 l 1524 989 m 732 1263 l 732 1103 l 565 1103 l 565 1263 l 732 1263 m 989 1263 l 989 1103 l 822 1103 l 822 1263 l 989 1263 z "},"Ẁ":{"ha":1556,"x_min":33,"x_max":1524,"o":"m 1524 989 l 1174 0 l 1028 0 l 779 711 l 528 0 l 382 0 l 33 989 l 215 989 l 463 251 l 719 989 l 847 989 l 1099 246 l 1351 989 l 1524 989 m 522 1289 l 690 1289 l 833 1074 l 721 1074 l 522 1289 z "},"X":{"ha":932,"x_min":-12,"x_max":943,"o":"m 943 0 l 733 0 l 465 369 l 197 0 l -12 0 l 364 504 l 0 989 l 210 989 l 465 635 l 724 989 l 932 989 l 567 503 l 943 0 z "},"Y":{"ha":874,"x_min":-54,"x_max":928,"o":"m 526 392 l 526 0 l 347 0 l 347 392 l -54 989 l 150 989 l 436 542 l 724 989 l 928 989 l 526 392 z "},"Ý":{"ha":874,"x_min":-54,"x_max":928,"o":"m 526 392 l 526 0 l 347 0 l 347 392 l -54 989 l 150 989 l 436 542 l 724 989 l 928 989 l 526 392 m 379 1074 l 522 1289 l 690 1289 l 492 1074 l 379 1074 z "},"Ŷ":{"ha":874,"x_min":-54,"x_max":928,"o":"m 526 392 l 526 0 l 347 0 l 347 392 l -54 989 l 150 989 l 436 542 l 724 989 l 928 989 l 526 392 m 206 1074 l 383 1289 l 488 1289 l 665 1074 l 528 1074 l 436 1201 l 343 1074 l 206 1074 z "},"Ÿ":{"ha":874,"x_min":-54,"x_max":928,"o":"m 526 392 l 526 0 l 347 0 l 347 392 l -54 989 l 150 989 l 436 542 l 724 989 l 928 989 l 526 392 m 390 1263 l 390 1103 l 224 1103 l 224 1263 l 390 1263 m 647 1263 l 647 1103 l 481 1103 l 481 1263 l 647 1263 z "},"Ẏ":{"ha":874,"x_min":-54,"x_max":928,"o":"m 526 392 l 526 0 l 347 0 l 347 392 l -54 989 l 150 989 l 436 542 l 724 989 l 928 989 l 526 392 m 532 1268 l 532 1097 l 339 1097 l 339 1268 l 532 1268 z "},"Ỵ":{"ha":874,"x_min":-54,"x_max":928,"o":"m 526 392 l 526 0 l 347 0 l 347 392 l -54 989 l 150 989 l 436 542 l 724 989 l 928 989 l 526 392 m 521 -108 l 521 -271 l 353 -271 l 353 -108 l 521 -108 z "},"Ỳ":{"ha":874,"x_min":-54,"x_max":928,"o":"m 526 392 l 526 0 l 347 0 l 347 392 l -54 989 l 150 989 l 436 542 l 724 989 l 928 989 l 526 392 m 181 1289 l 349 1289 l 492 1074 l 379 1074 l 181 1289 z "},"Ỷ":{"ha":874,"x_min":-54,"x_max":928,"o":"m 526 392 l 526 0 l 347 0 l 347 392 l -54 989 l 150 989 l 436 542 l 724 989 l 928 989 l 526 392 m 482 1074 l 389 1074 l 389 1101 q 405 1140 389 1126 q 449 1167 421 1153 q 474 1181 467 1175 q 482 1193 482 1186 q 431 1218 482 1218 q 350 1203 394 1218 l 325 1271 q 451 1294 383 1294 q 556 1269 517 1294 q 596 1206 596 1244 q 578 1163 596 1178 q 529 1133 561 1147 q 493 1113 504 1121 q 482 1090 482 1104 l 482 1074 z "},"Ȳ":{"ha":874,"x_min":-54,"x_max":928,"o":"m 526 392 l 526 0 l 347 0 l 347 392 l -54 989 l 150 989 l 436 542 l 724 989 l 928 989 l 526 392 m 219 1239 l 651 1239 l 651 1125 l 219 1125 l 219 1239 z "},"Ỹ":{"ha":874,"x_min":-54,"x_max":928,"o":"m 526 392 l 526 0 l 347 0 l 347 392 l -54 989 l 150 989 l 436 542 l 724 989 l 928 989 l 526 392 m 199 1092 q 238 1231 199 1183 q 340 1278 276 1278 q 390 1268 367 1278 q 451 1236 413 1258 q 531 1203 503 1203 q 574 1222 558 1203 q 593 1274 590 1242 l 672 1274 q 633 1135 672 1182 q 531 1088 594 1088 q 481 1097 504 1088 q 419 1129 458 1107 q 340 1163 368 1163 q 297 1143 313 1163 q 278 1092 281 1124 l 199 1092 z "},"Z":{"ha":844,"x_min":68,"x_max":794,"o":"m 794 143 l 794 0 l 68 0 l 68 131 l 576 846 l 68 846 l 68 989 l 779 989 l 779 860 l 268 143 l 794 143 z "},"Ź":{"ha":844,"x_min":68,"x_max":794,"o":"m 794 143 l 794 0 l 68 0 l 68 131 l 576 846 l 68 846 l 68 989 l 779 989 l 779 860 l 268 143 l 794 143 m 367 1074 l 510 1289 l 678 1289 l 479 1074 l 367 1074 z "},"Ž":{"ha":844,"x_min":68,"x_max":794,"o":"m 794 143 l 794 0 l 68 0 l 68 131 l 576 846 l 68 846 l 68 989 l 779 989 l 779 860 l 268 143 l 794 143 m 653 1289 l 475 1074 l 371 1074 l 193 1289 l 331 1289 l 424 1160 l 515 1289 l 653 1289 z "},"Ż":{"ha":844,"x_min":68,"x_max":794,"o":"m 794 143 l 794 0 l 68 0 l 68 131 l 576 846 l 68 846 l 68 989 l 779 989 l 779 860 l 268 143 l 794 143 m 519 1268 l 519 1097 l 326 1097 l 326 1268 l 519 1268 z "},"Ẓ":{"ha":844,"x_min":68,"x_max":794,"o":"m 794 143 l 794 0 l 68 0 l 68 131 l 576 846 l 68 846 l 68 989 l 779 989 l 779 860 l 268 143 l 794 143 m 506 -108 l 506 -271 l 338 -271 l 338 -108 l 506 -108 z "},"a":{"ha":860,"x_min":56,"x_max":765,"o":"m 765 701 l 765 0 l 594 0 l 594 113 q 503 22 563 54 q 367 -11 443 -11 q 204 33 275 -11 q 94 160 133 78 q 56 350 56 242 q 95 542 56 458 q 206 673 135 626 q 367 719 276 719 q 503 687 443 719 q 594 596 563 654 l 594 701 l 765 701 m 414 125 q 547 185 500 125 q 594 353 594 244 q 547 524 594 464 q 413 583 500 583 q 278 522 326 583 q 231 350 231 460 q 278 183 231 242 q 414 125 326 125 z "},"á":{"ha":860,"x_min":56,"x_max":765,"o":"m 765 701 l 765 0 l 594 0 l 594 113 q 503 22 563 54 q 367 -11 443 -11 q 204 33 275 -11 q 94 160 133 78 q 56 350 56 242 q 95 542 56 458 q 206 673 135 626 q 367 719 276 719 q 503 687 443 719 q 594 596 563 654 l 594 701 l 765 701 m 414 125 q 547 185 500 125 q 594 353 594 244 q 547 524 594 464 q 413 583 500 583 q 278 522 326 583 q 231 350 231 460 q 278 183 231 242 q 414 125 326 125 m 372 792 l 511 1078 l 689 1078 l 485 792 l 372 792 z "},"ă":{"ha":860,"x_min":56,"x_max":765,"o":"m 765 701 l 765 0 l 594 0 l 594 113 q 503 22 563 54 q 367 -11 443 -11 q 204 33 275 -11 q 94 160 133 78 q 56 350 56 242 q 95 542 56 458 q 206 673 135 626 q 367 719 276 719 q 503 687 443 719 q 594 596 563 654 l 594 701 l 765 701 m 414 125 q 547 185 500 125 q 594 353 594 244 q 547 524 594 464 q 413 583 500 583 q 278 522 326 583 q 231 350 231 460 q 278 183 231 242 q 414 125 326 125 m 429 828 q 274 876 343 828 q 179 1019 206 924 l 267 1058 q 429 942 326 942 q 590 1058 531 942 l 678 1021 q 583 876 651 925 q 429 828 515 828 z "},"ắ":{"ha":860,"x_min":56,"x_max":765,"o":"m 765 701 l 765 0 l 594 0 l 594 113 q 503 22 563 54 q 367 -11 443 -11 q 204 33 275 -11 q 94 160 133 78 q 56 350 56 242 q 95 542 56 458 q 206 673 135 626 q 367 719 276 719 q 503 687 443 719 q 594 596 563 654 l 594 701 l 765 701 m 414 125 q 547 185 500 125 q 594 353 594 244 q 547 524 594 464 q 413 583 500 583 q 278 522 326 583 q 231 350 231 460 q 278 183 231 242 q 414 125 326 125 m 376 940 l 515 1138 l 675 1138 l 481 940 l 376 940 m 429 785 q 279 822 343 785 q 188 936 215 860 l 258 967 q 330 901 285 922 q 429 881 375 881 q 527 901 482 881 q 599 967 572 922 l 669 936 q 578 823 642 861 q 429 785 515 785 z "},"ặ":{"ha":860,"x_min":56,"x_max":765,"o":"m 765 701 l 765 0 l 594 0 l 594 113 q 503 22 563 54 q 367 -11 443 -11 q 204 33 275 -11 q 94 160 133 78 q 56 350 56 242 q 95 542 56 458 q 206 673 135 626 q 367 719 276 719 q 503 687 443 719 q 594 596 563 654 l 594 701 l 765 701 m 414 125 q 547 185 500 125 q 594 353 594 244 q 547 524 594 464 q 413 583 500 583 q 278 522 326 583 q 231 350 231 460 q 278 183 231 242 q 414 125 326 125 m 513 -108 l 513 -271 l 344 -271 l 344 -108 l 513 -108 m 429 828 q 274 876 343 828 q 179 1019 206 924 l 267 1058 q 429 942 326 942 q 590 1058 531 942 l 678 1021 q 583 876 651 925 q 429 828 515 828 z "},"ằ":{"ha":860,"x_min":56,"x_max":765,"o":"m 765 701 l 765 0 l 594 0 l 594 113 q 503 22 563 54 q 367 -11 443 -11 q 204 33 275 -11 q 94 160 133 78 q 56 350 56 242 q 95 542 56 458 q 206 673 135 626 q 367 719 276 719 q 503 687 443 719 q 594 596 563 654 l 594 701 l 765 701 m 414 125 q 547 185 500 125 q 594 353 594 244 q 547 524 594 464 q 413 583 500 583 q 278 522 326 583 q 231 350 231 460 q 278 183 231 242 q 414 125 326 125 m 182 1138 l 342 1138 l 481 940 l 376 940 l 182 1138 m 429 785 q 279 822 343 785 q 188 936 215 860 l 258 967 q 330 901 285 922 q 429 881 375 881 q 527 901 482 881 q 599 967 572 922 l 669 936 q 578 823 642 861 q 429 785 515 785 z "},"ẳ":{"ha":860,"x_min":56,"x_max":765,"o":"m 765 701 l 765 0 l 594 0 l 594 113 q 503 22 563 54 q 367 -11 443 -11 q 204 33 275 -11 q 94 160 133 78 q 56 350 56 242 q 95 542 56 458 q 206 673 135 626 q 367 719 276 719 q 503 687 443 719 q 594 596 563 654 l 594 701 l 765 701 m 414 125 q 547 185 500 125 q 594 353 594 244 q 547 524 594 464 q 413 583 500 583 q 278 522 326 583 q 231 350 231 460 q 278 183 231 242 q 414 125 326 125 m 475 940 l 382 940 l 382 967 q 399 1004 382 992 q 446 1029 415 1017 q 475 1049 475 1039 q 462 1065 475 1058 q 424 1071 449 1071 q 343 1054 392 1071 l 318 1121 q 444 1146 381 1146 q 549 1122 510 1146 q 589 1058 589 1097 q 572 1019 589 1032 q 524 993 556 1006 q 488 976 500 985 q 475 953 475 967 l 475 940 m 429 785 q 279 822 343 785 q 188 936 215 860 l 258 967 q 330 901 285 922 q 429 881 375 881 q 527 901 482 881 q 599 967 572 922 l 669 936 q 578 823 642 861 q 429 785 515 785 z "},"ẵ":{"ha":860,"x_min":56,"x_max":765,"o":"m 765 701 l 765 0 l 594 0 l 594 113 q 503 22 563 54 q 367 -11 443 -11 q 204 33 275 -11 q 94 160 133 78 q 56 350 56 242 q 95 542 56 458 q 206 673 135 626 q 367 719 276 719 q 503 687 443 719 q 594 596 563 654 l 594 701 l 765 701 m 414 125 q 547 185 500 125 q 594 353 594 244 q 547 524 594 464 q 413 583 500 583 q 278 522 326 583 q 231 350 231 460 q 278 183 231 242 q 414 125 326 125 m 192 1000 q 232 1105 192 1064 q 333 1146 272 1146 q 383 1138 360 1146 q 444 1114 407 1131 q 487 1097 465 1104 q 524 1089 508 1089 q 567 1103 551 1089 q 586 1142 583 1117 l 665 1142 q 625 1037 665 1078 q 524 996 585 996 q 474 1003 497 996 q 413 1028 450 1011 q 370 1045 392 1038 q 333 1053 349 1053 q 290 1039 306 1053 q 271 1000 274 1025 l 192 1000 m 429 785 q 279 822 343 785 q 188 936 215 860 l 258 967 q 330 901 285 922 q 429 881 375 881 q 527 901 482 881 q 599 967 572 922 l 669 936 q 578 823 642 861 q 429 785 515 785 z "},"ǎ":{"ha":860,"x_min":56,"x_max":765,"o":"m 765 701 l 765 0 l 594 0 l 594 113 q 503 22 563 54 q 367 -11 443 -11 q 204 33 275 -11 q 94 160 133 78 q 56 350 56 242 q 95 542 56 458 q 206 673 135 626 q 367 719 276 719 q 503 687 443 719 q 594 596 563 654 l 594 701 l 765 701 m 414 125 q 547 185 500 125 q 594 353 594 244 q 547 524 594 464 q 413 583 500 583 q 278 522 326 583 q 231 350 231 460 q 278 183 231 242 q 414 125 326 125 m 658 1078 l 483 792 l 374 792 l 199 1078 l 340 1078 l 429 900 l 517 1078 l 658 1078 z "},"â":{"ha":860,"x_min":56,"x_max":765,"o":"m 765 701 l 765 0 l 594 0 l 594 113 q 503 22 563 54 q 367 -11 443 -11 q 204 33 275 -11 q 94 160 133 78 q 56 350 56 242 q 95 542 56 458 q 206 673 135 626 q 367 719 276 719 q 503 687 443 719 q 594 596 563 654 l 594 701 l 765 701 m 414 125 q 547 185 500 125 q 594 353 594 244 q 547 524 594 464 q 413 583 500 583 q 278 522 326 583 q 231 350 231 460 q 278 183 231 242 q 414 125 326 125 m 199 792 l 374 1078 l 483 1078 l 658 792 l 517 792 l 429 969 l 340 792 l 199 792 z "},"ấ":{"ha":860,"x_min":56,"x_max":819,"o":"m 765 701 l 765 0 l 594 0 l 594 113 q 503 22 563 54 q 367 -11 443 -11 q 204 33 275 -11 q 94 160 133 78 q 56 350 56 242 q 95 542 56 458 q 206 673 135 626 q 367 719 276 719 q 503 687 443 719 q 594 596 563 654 l 594 701 l 765 701 m 414 125 q 547 185 500 125 q 594 353 594 244 q 547 524 594 464 q 413 583 500 583 q 278 522 326 583 q 231 350 231 460 q 278 183 231 242 q 414 125 326 125 m 556 940 l 667 1138 l 819 1138 l 646 940 l 556 940 m 199 792 l 376 990 l 481 990 l 658 792 l 522 792 l 429 906 l 335 792 l 199 792 z "},"ậ":{"ha":860,"x_min":56,"x_max":765,"o":"m 765 701 l 765 0 l 594 0 l 594 113 q 503 22 563 54 q 367 -11 443 -11 q 204 33 275 -11 q 94 160 133 78 q 56 350 56 242 q 95 542 56 458 q 206 673 135 626 q 367 719 276 719 q 503 687 443 719 q 594 596 563 654 l 594 701 l 765 701 m 414 125 q 547 185 500 125 q 594 353 594 244 q 547 524 594 464 q 413 583 500 583 q 278 522 326 583 q 231 350 231 460 q 278 183 231 242 q 414 125 326 125 m 513 -108 l 513 -271 l 344 -271 l 344 -108 l 513 -108 m 199 792 l 374 1078 l 483 1078 l 658 792 l 517 792 l 429 969 l 340 792 l 199 792 z "},"ầ":{"ha":860,"x_min":56,"x_max":765,"o":"m 765 701 l 765 0 l 594 0 l 594 113 q 503 22 563 54 q 367 -11 443 -11 q 204 33 275 -11 q 94 160 133 78 q 56 350 56 242 q 95 542 56 458 q 206 673 135 626 q 367 719 276 719 q 503 687 443 719 q 594 596 563 654 l 594 701 l 765 701 m 414 125 q 547 185 500 125 q 594 353 594 244 q 547 524 594 464 q 413 583 500 583 q 278 522 326 583 q 231 350 231 460 q 278 183 231 242 q 414 125 326 125 m 450 1138 l 603 1138 l 706 940 l 615 940 l 450 1138 m 199 792 l 376 990 l 481 990 l 658 792 l 522 792 l 429 906 l 335 792 l 199 792 z "},"ẩ":{"ha":860,"x_min":56,"x_max":765,"o":"m 765 701 l 765 0 l 594 0 l 594 113 q 503 22 563 54 q 367 -11 443 -11 q 204 33 275 -11 q 94 160 133 78 q 56 350 56 242 q 95 542 56 458 q 206 673 135 626 q 367 719 276 719 q 503 687 443 719 q 594 596 563 654 l 594 701 l 765 701 m 414 125 q 547 185 500 125 q 594 353 594 244 q 547 524 594 464 q 413 583 500 583 q 278 522 326 583 q 231 350 231 460 q 278 183 231 242 q 414 125 326 125 m 647 940 l 554 940 l 554 967 q 571 1004 554 992 q 618 1029 588 1017 q 647 1049 647 1039 q 635 1065 647 1058 q 597 1071 622 1071 q 514 1054 564 1071 l 489 1121 q 615 1146 551 1146 q 722 1122 682 1146 q 761 1058 761 1097 q 744 1019 761 1032 q 696 993 728 1006 q 660 976 672 985 q 647 953 647 967 l 647 940 m 199 792 l 376 990 l 481 990 l 658 792 l 522 792 l 429 906 l 335 792 l 199 792 z "},"ẫ":{"ha":860,"x_min":56,"x_max":765,"o":"m 765 701 l 765 0 l 594 0 l 594 113 q 503 22 563 54 q 367 -11 443 -11 q 204 33 275 -11 q 94 160 133 78 q 56 350 56 242 q 95 542 56 458 q 206 673 135 626 q 367 719 276 719 q 503 687 443 719 q 594 596 563 654 l 594 701 l 765 701 m 414 125 q 547 185 500 125 q 594 353 594 244 q 547 524 594 464 q 413 583 500 583 q 278 522 326 583 q 231 350 231 460 q 278 183 231 242 q 414 125 326 125 m 192 1014 q 232 1117 192 1076 q 333 1157 272 1157 q 383 1150 360 1157 q 444 1128 407 1143 q 524 1106 500 1106 q 567 1119 551 1106 q 586 1156 583 1133 l 665 1156 q 625 1053 665 1094 q 524 1013 585 1013 q 474 1019 497 1013 q 413 1042 450 1026 q 333 1064 357 1064 q 290 1050 306 1064 q 271 1014 274 1036 l 192 1014 m 199 792 l 376 990 l 481 990 l 658 792 l 522 792 l 429 906 l 335 792 l 199 792 z "},"ȁ":{"ha":860,"x_min":56,"x_max":765,"o":"m 765 701 l 765 0 l 594 0 l 594 113 q 503 22 563 54 q 367 -11 443 -11 q 204 33 275 -11 q 94 160 133 78 q 56 350 56 242 q 95 542 56 458 q 206 673 135 626 q 367 719 276 719 q 503 687 443 719 q 594 596 563 654 l 594 701 l 765 701 m 414 125 q 547 185 500 125 q 594 353 594 244 q 547 524 594 464 q 413 583 500 583 q 278 522 326 583 q 231 350 231 460 q 278 183 231 242 q 414 125 326 125 m 188 1078 l 321 1078 l 375 792 l 297 792 l 188 1078 m 372 1078 l 506 1078 l 560 792 l 482 792 l 372 1078 z "},"ä":{"ha":860,"x_min":56,"x_max":765,"o":"m 765 701 l 765 0 l 594 0 l 594 113 q 503 22 563 54 q 367 -11 443 -11 q 204 33 275 -11 q 94 160 133 78 q 56 350 56 242 q 95 542 56 458 q 206 673 135 626 q 367 719 276 719 q 503 687 443 719 q 594 596 563 654 l 594 701 l 765 701 m 414 125 q 547 185 500 125 q 594 353 594 244 q 547 524 594 464 q 413 583 500 583 q 278 522 326 583 q 231 350 231 460 q 278 183 231 242 q 414 125 326 125 m 383 1014 l 383 854 l 217 854 l 217 1014 l 383 1014 m 640 1014 l 640 854 l 474 854 l 474 1014 l 640 1014 z "},"ȧ":{"ha":860,"x_min":56,"x_max":765,"o":"m 765 701 l 765 0 l 594 0 l 594 113 q 503 22 563 54 q 367 -11 443 -11 q 204 33 275 -11 q 94 160 133 78 q 56 350 56 242 q 95 542 56 458 q 206 673 135 626 q 367 719 276 719 q 503 687 443 719 q 594 596 563 654 l 594 701 l 765 701 m 414 125 q 547 185 500 125 q 594 353 594 244 q 547 524 594 464 q 413 583 500 583 q 278 522 326 583 q 231 350 231 460 q 278 183 231 242 q 414 125 326 125 m 525 1019 l 525 849 l 332 849 l 332 1019 l 525 1019 z "},"ạ":{"ha":860,"x_min":56,"x_max":765,"o":"m 765 701 l 765 0 l 594 0 l 594 113 q 503 22 563 54 q 367 -11 443 -11 q 204 33 275 -11 q 94 160 133 78 q 56 350 56 242 q 95 542 56 458 q 206 673 135 626 q 367 719 276 719 q 503 687 443 719 q 594 596 563 654 l 594 701 l 765 701 m 414 125 q 547 185 500 125 q 594 353 594 244 q 547 524 594 464 q 413 583 500 583 q 278 522 326 583 q 231 350 231 460 q 278 183 231 242 q 414 125 326 125 m 513 -108 l 513 -271 l 344 -271 l 344 -108 l 513 -108 z "},"à":{"ha":860,"x_min":56,"x_max":765,"o":"m 765 701 l 765 0 l 594 0 l 594 113 q 503 22 563 54 q 367 -11 443 -11 q 204 33 275 -11 q 94 160 133 78 q 56 350 56 242 q 95 542 56 458 q 206 673 135 626 q 367 719 276 719 q 503 687 443 719 q 594 596 563 654 l 594 701 l 765 701 m 414 125 q 547 185 500 125 q 594 353 594 244 q 547 524 594 464 q 413 583 500 583 q 278 522 326 583 q 231 350 231 460 q 278 183 231 242 q 414 125 326 125 m 168 1078 l 346 1078 l 485 792 l 372 792 l 168 1078 z "},"ả":{"ha":860,"x_min":56,"x_max":765,"o":"m 765 701 l 765 0 l 594 0 l 594 113 q 503 22 563 54 q 367 -11 443 -11 q 204 33 275 -11 q 94 160 133 78 q 56 350 56 242 q 95 542 56 458 q 206 673 135 626 q 367 719 276 719 q 503 687 443 719 q 594 596 563 654 l 594 701 l 765 701 m 414 125 q 547 185 500 125 q 594 353 594 244 q 547 524 594 464 q 413 583 500 583 q 278 522 326 583 q 231 350 231 460 q 278 183 231 242 q 414 125 326 125 m 478 792 l 383 792 l 383 829 q 397 876 383 857 q 436 918 411 896 q 461 942 453 932 q 469 964 469 953 q 418 997 469 997 q 343 983 381 997 l 318 1056 q 435 1082 375 1082 q 548 1053 507 1082 q 589 981 589 1024 q 574 928 589 949 q 526 883 558 908 q 490 851 503 865 q 478 819 478 838 l 478 792 z "},"ȃ":{"ha":860,"x_min":56,"x_max":765,"o":"m 765 701 l 765 0 l 594 0 l 594 113 q 503 22 563 54 q 367 -11 443 -11 q 204 33 275 -11 q 94 160 133 78 q 56 350 56 242 q 95 542 56 458 q 206 673 135 626 q 367 719 276 719 q 503 687 443 719 q 594 596 563 654 l 594 701 l 765 701 m 414 125 q 547 185 500 125 q 594 353 594 244 q 547 524 594 464 q 413 583 500 583 q 278 522 326 583 q 231 350 231 460 q 278 183 231 242 q 414 125 326 125 m 429 1053 q 583 1004 515 1053 q 678 860 651 956 l 590 824 q 429 940 529 940 q 267 824 328 940 l 179 860 q 274 1004 206 956 q 429 1053 342 1053 z "},"ā":{"ha":860,"x_min":56,"x_max":765,"o":"m 765 701 l 765 0 l 594 0 l 594 113 q 503 22 563 54 q 367 -11 443 -11 q 204 33 275 -11 q 94 160 133 78 q 56 350 56 242 q 95 542 56 458 q 206 673 135 626 q 367 719 276 719 q 503 687 443 719 q 594 596 563 654 l 594 701 l 765 701 m 414 125 q 547 185 500 125 q 594 353 594 244 q 547 524 594 464 q 413 583 500 583 q 278 522 326 583 q 231 350 231 460 q 278 183 231 242 q 414 125 326 125 m 213 990 l 644 990 l 644 876 l 213 876 l 213 990 z "},"ą":{"ha":860,"x_min":56,"x_max":825,"o":"m 825 -250 q 689 -281 764 -281 q 563 -237 613 -281 q 514 -124 514 -193 q 535 -43 514 -81 q 594 19 556 -6 l 594 113 q 503 22 563 54 q 367 -11 443 -11 q 204 34 275 -11 q 94 160 133 79 q 56 350 56 242 q 95 542 56 458 q 206 673 135 626 q 367 719 276 719 q 503 687 443 719 q 594 596 563 654 l 594 701 l 765 701 l 765 0 l 756 0 q 665 -28 700 0 q 631 -101 631 -56 q 654 -162 631 -140 q 721 -183 678 -183 q 800 -162 758 -183 l 825 -250 m 414 125 q 547 185 500 125 q 594 353 594 244 q 547 524 594 464 q 413 583 500 583 q 278 522 326 583 q 231 350 231 460 q 278 183 231 242 q 414 125 326 125 z "},"å":{"ha":860,"x_min":56,"x_max":765,"o":"m 765 701 l 765 0 l 594 0 l 594 113 q 503 22 563 54 q 367 -11 443 -11 q 204 33 275 -11 q 94 160 133 78 q 56 350 56 242 q 95 542 56 458 q 206 673 135 626 q 367 719 276 719 q 503 687 443 719 q 594 596 563 654 l 594 701 l 765 701 m 414 125 q 547 185 500 125 q 594 353 594 244 q 547 524 594 464 q 413 583 500 583 q 278 522 326 583 q 231 350 231 460 q 278 183 231 242 q 414 125 326 125 m 429 789 q 323 831 367 789 q 279 936 279 874 q 323 1038 279 996 q 429 1081 367 1081 q 534 1038 490 1081 q 578 936 578 996 q 535 831 578 874 q 429 789 492 789 m 429 868 q 474 888 456 868 q 492 936 492 907 q 474 983 492 964 q 429 1001 456 1001 q 383 983 401 1001 q 365 936 365 964 q 383 888 365 907 q 429 868 401 868 z "},"ǻ":{"ha":860,"x_min":56,"x_max":765,"o":"m 429 792 q 323 835 367 792 q 279 942 279 878 q 323 1047 279 1004 q 429 1089 367 1089 q 497 1074 464 1089 l 603 1224 l 763 1217 l 565 1010 q 582 942 582 979 q 538 835 582 878 q 429 792 493 792 m 429 1008 q 383 989 401 1008 q 365 942 365 969 q 383 892 365 913 q 429 872 401 872 q 477 892 458 872 q 496 942 496 913 q 477 989 496 969 q 429 1008 458 1008 m 765 701 l 765 0 l 594 0 l 594 113 q 503 22 563 54 q 367 -11 443 -11 q 204 33 275 -11 q 94 160 133 78 q 56 350 56 242 q 95 542 56 458 q 206 673 135 626 q 367 719 276 719 q 503 687 443 719 q 594 596 563 654 l 594 701 l 765 701 m 414 125 q 547 185 500 125 q 594 353 594 244 q 547 524 594 464 q 413 583 500 583 q 278 522 326 583 q 231 350 231 460 q 278 183 231 242 q 414 125 326 125 z "},"ã":{"ha":860,"x_min":56,"x_max":765,"o":"m 765 701 l 765 0 l 594 0 l 594 113 q 503 22 563 54 q 367 -11 443 -11 q 204 33 275 -11 q 94 160 133 78 q 56 350 56 242 q 95 542 56 458 q 206 673 135 626 q 367 719 276 719 q 503 687 443 719 q 594 596 563 654 l 594 701 l 765 701 m 414 125 q 547 185 500 125 q 594 353 594 244 q 547 524 594 464 q 413 583 500 583 q 278 522 326 583 q 231 350 231 460 q 278 183 231 242 q 414 125 326 125 m 192 844 q 231 984 192 936 q 333 1032 269 1032 q 384 1022 360 1032 q 444 989 408 1011 q 490 964 472 972 q 524 956 508 956 q 567 976 551 956 q 586 1028 583 996 l 665 1028 q 626 888 665 936 q 524 840 588 840 q 474 850 497 840 q 413 882 451 860 q 333 915 361 915 q 290 896 306 915 q 271 844 274 876 l 192 844 z "},"æ":{"ha":1211,"x_min":67,"x_max":1157,"o":"m 1157 342 l 683 342 q 737 180 686 238 q 888 122 788 122 q 994 142 940 122 q 1096 197 1047 161 l 1144 78 q 1024 13 1097 38 q 879 -11 951 -11 q 702 28 776 -11 q 586 144 628 68 q 491 29 556 69 q 339 -11 426 -11 q 199 17 261 -11 q 102 97 138 46 q 67 215 67 149 q 106 341 67 293 q 233 412 146 389 q 464 435 319 435 l 517 435 l 517 446 q 487 552 517 519 q 388 585 457 585 q 144 513 265 585 l 96 632 q 236 695 153 671 q 394 719 319 719 q 625 617 561 719 q 728 693 668 667 q 861 719 789 719 q 1017 676 950 719 q 1120 552 1083 632 q 1157 367 1157 472 l 1157 342 m 857 594 q 690 435 719 594 l 1007 435 q 961 553 1000 513 q 857 594 922 594 m 360 114 q 474 164 432 114 q 517 293 517 214 l 517 343 l 472 343 q 291 315 344 343 q 238 224 238 286 q 272 144 238 174 q 360 114 306 114 z "},"ǽ":{"ha":1211,"x_min":67,"x_max":1157,"o":"m 1157 342 l 683 342 q 737 180 686 238 q 888 122 788 122 q 994 142 940 122 q 1096 197 1047 161 l 1144 78 q 1024 13 1097 38 q 879 -11 951 -11 q 702 28 776 -11 q 586 144 628 68 q 491 29 556 69 q 339 -11 426 -11 q 199 17 261 -11 q 102 97 138 46 q 67 215 67 149 q 106 341 67 293 q 233 412 146 389 q 464 435 319 435 l 517 435 l 517 446 q 487 552 517 519 q 388 585 457 585 q 144 513 265 585 l 96 632 q 236 695 153 671 q 394 719 319 719 q 625 617 561 719 q 728 693 668 667 q 861 719 789 719 q 1017 676 950 719 q 1120 552 1083 632 q 1157 367 1157 472 l 1157 342 m 857 594 q 690 435 719 594 l 1007 435 q 961 553 1000 513 q 857 594 922 594 m 360 114 q 474 164 432 114 q 517 293 517 214 l 517 343 l 472 343 q 291 315 344 343 q 238 224 238 286 q 272 144 238 174 q 360 114 306 114 m 544 792 l 683 1078 l 861 1078 l 657 792 l 544 792 z "},"b":{"ha":861,"x_min":94,"x_max":804,"o":"m 494 719 q 656 674 586 719 q 765 547 726 629 q 804 357 804 465 q 765 165 804 249 q 655 35 725 81 q 494 -11 585 -11 q 356 22 417 -11 q 265 115 296 56 l 265 0 l 94 0 l 94 1022 l 267 1022 l 267 596 q 358 687 299 654 q 494 719 418 719 m 449 125 q 582 186 535 125 q 629 357 629 247 q 582 524 629 465 q 447 583 535 583 q 313 524 360 583 q 265 354 265 464 q 313 184 265 243 q 449 125 360 125 z "},"c":{"ha":699,"x_min":56,"x_max":676,"o":"m 413 -11 q 222 33 303 -11 q 99 159 142 78 q 56 350 56 240 q 101 543 56 460 q 228 673 146 626 q 419 719 311 719 q 565 696 494 719 q 676 631 635 672 l 628 508 q 533 563 583 544 q 435 582 483 582 q 288 523 340 582 q 235 353 235 464 q 287 183 235 242 q 435 125 339 125 q 533 144 483 125 q 628 200 583 164 l 676 78 q 561 13 632 36 q 413 -11 490 -11 z "},"ć":{"ha":699,"x_min":56,"x_max":676,"o":"m 413 -11 q 222 33 303 -11 q 99 159 142 78 q 56 350 56 240 q 101 543 56 460 q 228 673 146 626 q 419 719 311 719 q 565 696 494 719 q 676 631 635 672 l 628 508 q 533 563 583 544 q 435 582 483 582 q 288 523 340 582 q 235 353 235 464 q 287 183 235 242 q 435 125 339 125 q 533 144 483 125 q 628 200 583 164 l 676 78 q 561 13 632 36 q 413 -11 490 -11 m 357 792 l 496 1078 l 674 1078 l 469 792 l 357 792 z "},"č":{"ha":699,"x_min":56,"x_max":676,"o":"m 413 -11 q 222 33 303 -11 q 99 159 142 78 q 56 350 56 240 q 101 543 56 460 q 228 673 146 626 q 419 719 311 719 q 565 696 494 719 q 676 631 635 672 l 628 508 q 533 563 583 544 q 435 582 483 582 q 288 523 340 582 q 235 353 235 464 q 287 183 235 242 q 435 125 339 125 q 533 144 483 125 q 628 200 583 164 l 676 78 q 561 13 632 36 q 413 -11 490 -11 m 643 1078 l 468 792 l 358 792 l 183 1078 l 325 1078 l 414 900 l 501 1078 l 643 1078 z "},"ç":{"ha":699,"x_min":56,"x_max":676,"o":"m 676 78 q 573 16 636 39 q 439 -10 510 -7 l 433 -57 q 457 -56 442 -56 q 538 -81 507 -56 q 569 -153 569 -107 q 522 -240 569 -207 q 390 -274 475 -274 q 324 -267 360 -274 q 263 -249 289 -261 l 279 -175 q 388 -194 339 -194 q 457 -153 457 -194 q 410 -122 457 -122 q 354 -132 390 -122 l 328 -106 l 339 -6 q 131 110 206 15 q 56 350 56 204 q 101 543 56 460 q 228 673 146 626 q 419 719 311 719 q 565 696 494 719 q 676 631 635 672 l 628 508 q 533 563 583 544 q 435 582 483 582 q 288 523 340 582 q 235 353 235 464 q 287 183 235 242 q 435 125 339 125 q 533 144 483 125 q 628 200 583 164 l 676 78 z "},"ḉ":{"ha":699,"x_min":56,"x_max":676,"o":"m 469 792 l 357 792 l 496 1078 l 674 1078 l 469 792 m 676 78 q 573 16 636 39 q 439 -10 510 -7 l 433 -57 q 457 -56 442 -56 q 538 -81 507 -56 q 569 -153 569 -107 q 522 -240 569 -207 q 390 -274 475 -274 q 324 -267 360 -274 q 263 -249 289 -261 l 279 -175 q 388 -194 339 -194 q 457 -153 457 -194 q 410 -122 457 -122 q 354 -132 390 -122 l 328 -106 l 339 -6 q 131 110 206 15 q 56 350 56 204 q 101 543 56 460 q 228 673 146 626 q 419 719 311 719 q 565 696 494 719 q 676 631 635 672 l 628 508 q 533 563 583 544 q 435 582 483 582 q 288 523 340 582 q 235 353 235 464 q 287 183 235 242 q 435 125 339 125 q 533 144 483 125 q 628 200 583 164 l 676 78 z "},"ĉ":{"ha":699,"x_min":56,"x_max":676,"o":"m 413 -11 q 222 33 303 -11 q 99 159 142 78 q 56 350 56 240 q 101 543 56 460 q 228 673 146 626 q 419 719 311 719 q 565 696 494 719 q 676 631 635 672 l 628 508 q 533 563 583 544 q 435 582 483 582 q 288 523 340 582 q 235 353 235 464 q 287 183 235 242 q 435 125 339 125 q 533 144 483 125 q 628 200 583 164 l 676 78 q 561 13 632 36 q 413 -11 490 -11 m 183 792 l 358 1078 l 468 1078 l 643 792 l 501 792 l 414 969 l 325 792 l 183 792 z "},"ċ":{"ha":699,"x_min":56,"x_max":676,"o":"m 413 -11 q 222 33 303 -11 q 99 159 142 78 q 56 350 56 240 q 101 543 56 460 q 228 673 146 626 q 419 719 311 719 q 565 696 494 719 q 676 631 635 672 l 628 508 q 533 563 583 544 q 435 582 483 582 q 288 523 340 582 q 235 353 235 464 q 287 183 235 242 q 435 125 339 125 q 533 144 483 125 q 628 200 583 164 l 676 78 q 561 13 632 36 q 413 -11 490 -11 m 510 1019 l 510 849 l 317 849 l 317 1019 l 510 1019 z "},"d":{"ha":860,"x_min":56,"x_max":765,"o":"m 765 1022 l 765 0 l 594 0 l 594 113 q 503 22 563 54 q 367 -11 443 -11 q 206 35 276 -11 q 95 165 135 81 q 56 357 56 249 q 94 547 56 465 q 204 674 133 629 q 367 719 275 719 q 501 688 442 719 q 592 600 560 657 l 592 1022 l 765 1022 m 413 125 q 547 185 499 125 q 594 354 594 244 q 547 524 594 464 q 414 583 500 583 q 278 524 326 583 q 231 357 231 465 q 278 186 231 247 q 413 125 326 125 z "},"ð":{"ha":832,"x_min":56,"x_max":775,"o":"m 639 819 q 740 635 706 738 q 775 421 775 533 q 679 101 775 213 q 406 -11 583 -11 q 223 31 303 -11 q 99 148 143 72 q 56 322 56 224 q 98 494 56 419 q 217 611 140 569 q 392 653 293 653 q 597 575 526 653 q 488 774 568 693 l 247 700 l 221 794 l 394 847 q 217 914 315 894 l 257 1036 q 561 899 436 1003 l 743 954 l 768 860 l 639 819 m 411 125 q 545 176 497 125 q 593 322 593 228 q 546 469 593 418 q 413 521 499 521 q 277 469 324 521 q 231 322 231 418 q 276 175 231 225 q 411 125 322 125 z "},"ď":{"ha":860,"x_min":56,"x_max":911,"o":"m 592 1022 l 765 1022 l 765 0 l 594 0 l 594 113 q 503 22 563 54 q 367 -11 443 -11 q 206 35 276 -11 q 95 165 135 81 q 56 357 56 249 q 94 547 56 465 q 204 674 133 629 q 367 719 275 719 q 501 688 442 719 q 592 600 560 657 l 592 1022 m 911 1022 l 874 747 l 807 747 l 807 1022 l 911 1022 m 413 125 q 547 185 499 125 q 594 354 594 244 q 547 524 594 464 q 414 583 500 583 q 278 524 326 583 q 231 357 231 465 q 278 186 231 247 q 413 125 326 125 z "},"đ":{"ha":860,"x_min":56,"x_max":893,"o":"m 893 789 l 765 789 l 765 0 l 594 0 l 594 113 q 503 22 563 54 q 367 -11 443 -11 q 206 35 276 -11 q 95 165 135 81 q 56 357 56 249 q 94 547 56 465 q 204 674 133 629 q 367 719 275 719 q 501 688 442 719 q 592 600 560 657 l 592 789 l 322 789 l 322 913 l 592 913 l 592 1022 l 765 1022 l 765 913 l 893 913 l 893 789 m 413 125 q 547 185 499 125 q 594 354 594 244 q 547 524 594 464 q 414 583 500 583 q 278 524 326 583 q 231 357 231 465 q 278 186 231 247 q 413 125 326 125 z "},"ḍ":{"ha":860,"x_min":56,"x_max":765,"o":"m 765 1022 l 765 0 l 594 0 l 594 113 q 503 22 563 54 q 367 -11 443 -11 q 206 35 276 -11 q 95 165 135 81 q 56 357 56 249 q 94 547 56 465 q 204 674 133 629 q 367 719 275 719 q 501 688 442 719 q 592 600 560 657 l 592 1022 l 765 1022 m 413 125 q 547 185 499 125 q 594 354 594 244 q 547 524 594 464 q 414 583 500 583 q 278 524 326 583 q 231 357 231 465 q 278 186 231 247 q 413 125 326 125 m 514 -108 l 514 -271 l 346 -271 l 346 -108 l 514 -108 z "},"ḏ":{"ha":860,"x_min":56,"x_max":765,"o":"m 765 1022 l 765 0 l 594 0 l 594 113 q 503 22 563 54 q 367 -11 443 -11 q 206 35 276 -11 q 95 165 135 81 q 56 357 56 249 q 94 547 56 465 q 204 674 133 629 q 367 719 275 719 q 501 688 442 719 q 592 600 560 657 l 592 1022 l 765 1022 m 413 125 q 547 185 499 125 q 594 354 594 244 q 547 524 594 464 q 414 583 500 583 q 278 524 326 583 q 231 357 231 465 q 278 186 231 247 q 413 125 326 125 m 214 -136 l 646 -136 l 646 -244 l 214 -244 l 214 -136 z "},"ǆ":{"ha":1590,"x_min":56,"x_max":1538,"o":"m 765 1022 l 765 0 l 594 0 l 594 113 q 503 22 563 54 q 367 -11 443 -11 q 206 35 276 -11 q 95 165 135 81 q 56 357 56 249 q 94 547 56 465 q 204 674 133 629 q 367 719 275 719 q 501 688 442 719 q 592 600 560 657 l 592 1022 l 765 1022 m 413 125 q 547 185 499 125 q 594 354 594 244 q 547 524 594 464 q 414 583 500 583 q 278 524 326 583 q 231 357 231 465 q 278 186 231 247 q 413 125 326 125 m 1538 132 l 1538 0 l 928 0 l 928 121 l 1315 571 l 936 571 l 936 701 l 1522 701 l 1522 583 l 1133 132 l 1538 132 m 1464 1078 l 1289 792 l 1179 792 l 1004 1078 l 1146 1078 l 1235 900 l 1322 1078 l 1464 1078 z "},"e":{"ha":761,"x_min":56,"x_max":708,"o":"m 708 342 l 225 342 q 281 176 231 229 q 432 122 332 122 q 646 197 547 122 l 696 78 q 573 13 646 38 q 425 -11 500 -11 q 154 86 253 -11 q 56 353 56 183 q 99 543 56 460 q 219 673 142 626 q 396 719 297 719 q 624 626 540 719 q 708 368 708 532 l 708 342 m 400 594 q 287 553 331 594 q 231 435 243 513 l 557 435 q 509 554 549 514 q 400 594 469 594 z "},"é":{"ha":761,"x_min":56,"x_max":708,"o":"m 708 342 l 225 342 q 281 176 231 229 q 432 122 332 122 q 646 197 547 122 l 696 78 q 573 13 646 38 q 425 -11 500 -11 q 154 86 253 -11 q 56 353 56 183 q 99 543 56 460 q 219 673 142 626 q 396 719 297 719 q 624 626 540 719 q 708 368 708 532 l 708 342 m 400 594 q 287 553 331 594 q 231 435 243 513 l 557 435 q 509 554 549 514 q 400 594 469 594 m 339 792 l 478 1078 l 656 1078 l 451 792 l 339 792 z "},"ĕ":{"ha":761,"x_min":56,"x_max":708,"o":"m 708 342 l 225 342 q 281 176 231 229 q 432 122 332 122 q 646 197 547 122 l 696 78 q 573 13 646 38 q 425 -11 500 -11 q 154 86 253 -11 q 56 353 56 183 q 99 543 56 460 q 219 673 142 626 q 396 719 297 719 q 624 626 540 719 q 708 368 708 532 l 708 342 m 400 594 q 287 553 331 594 q 231 435 243 513 l 557 435 q 509 554 549 514 q 400 594 469 594 m 396 828 q 241 876 310 828 q 146 1019 172 924 l 233 1058 q 396 942 293 942 q 557 1058 497 942 l 644 1021 q 550 876 618 925 q 396 828 482 828 z "},"ě":{"ha":761,"x_min":56,"x_max":708,"o":"m 708 342 l 225 342 q 281 176 231 229 q 432 122 332 122 q 646 197 547 122 l 696 78 q 573 13 646 38 q 425 -11 500 -11 q 154 86 253 -11 q 56 353 56 183 q 99 543 56 460 q 219 673 142 626 q 396 719 297 719 q 624 626 540 719 q 708 368 708 532 l 708 342 m 400 594 q 287 553 331 594 q 231 435 243 513 l 557 435 q 509 554 549 514 q 400 594 469 594 m 625 1078 l 450 792 l 340 792 l 165 1078 l 307 1078 l 396 900 l 483 1078 l 625 1078 z "},"ḝ":{"ha":761,"x_min":56,"x_max":708,"o":"m 396 828 q 241 876 310 828 q 146 1019 172 924 l 233 1058 q 396 942 293 942 q 557 1058 497 942 l 644 1021 q 550 876 618 925 q 396 828 482 828 m 708 342 l 225 342 q 281 176 231 229 q 432 122 332 122 q 646 197 547 122 l 696 78 q 588 19 651 42 q 457 -10 525 -4 l 451 -57 q 475 -56 460 -56 q 556 -81 525 -56 q 588 -153 588 -107 q 540 -240 588 -207 q 408 -274 493 -274 q 342 -267 378 -274 q 281 -249 307 -261 l 297 -175 q 406 -194 357 -194 q 475 -153 475 -194 q 428 -122 475 -122 q 372 -132 408 -122 l 346 -106 l 357 -7 q 135 107 215 13 q 56 353 56 201 q 99 543 56 460 q 219 673 142 626 q 396 719 297 719 q 624 626 540 719 q 708 368 708 532 l 708 342 m 400 594 q 287 553 331 594 q 231 435 243 513 l 557 435 q 509 554 549 514 q 400 594 469 594 z "},"ê":{"ha":761,"x_min":56,"x_max":708,"o":"m 708 342 l 225 342 q 281 176 231 229 q 432 122 332 122 q 646 197 547 122 l 696 78 q 573 13 646 38 q 425 -11 500 -11 q 154 86 253 -11 q 56 353 56 183 q 99 543 56 460 q 219 673 142 626 q 396 719 297 719 q 624 626 540 719 q 708 368 708 532 l 708 342 m 400 594 q 287 553 331 594 q 231 435 243 513 l 557 435 q 509 554 549 514 q 400 594 469 594 m 165 792 l 340 1078 l 450 1078 l 625 792 l 483 792 l 396 969 l 307 792 l 165 792 z "},"ế":{"ha":761,"x_min":56,"x_max":786,"o":"m 708 342 l 225 342 q 281 176 231 229 q 432 122 332 122 q 646 197 547 122 l 696 78 q 573 13 646 38 q 425 -11 500 -11 q 154 86 253 -11 q 56 353 56 183 q 99 543 56 460 q 219 673 142 626 q 396 719 297 719 q 624 626 540 719 q 708 368 708 532 l 708 342 m 400 594 q 287 553 331 594 q 231 435 243 513 l 557 435 q 509 554 549 514 q 400 594 469 594 m 522 940 l 633 1138 l 786 1138 l 613 940 l 522 940 m 165 792 l 343 990 l 447 990 l 625 792 l 489 792 l 396 906 l 301 792 l 165 792 z "},"ệ":{"ha":761,"x_min":56,"x_max":708,"o":"m 708 342 l 225 342 q 281 176 231 229 q 432 122 332 122 q 646 197 547 122 l 696 78 q 573 13 646 38 q 425 -11 500 -11 q 154 86 253 -11 q 56 353 56 183 q 99 543 56 460 q 219 673 142 626 q 396 719 297 719 q 624 626 540 719 q 708 368 708 532 l 708 342 m 400 594 q 287 553 331 594 q 231 435 243 513 l 557 435 q 509 554 549 514 q 400 594 469 594 m 506 -108 l 506 -271 l 338 -271 l 338 -108 l 506 -108 m 165 792 l 340 1078 l 450 1078 l 625 792 l 483 792 l 396 969 l 307 792 l 165 792 z "},"ề":{"ha":761,"x_min":56,"x_max":708,"o":"m 708 342 l 225 342 q 281 176 231 229 q 432 122 332 122 q 646 197 547 122 l 696 78 q 573 13 646 38 q 425 -11 500 -11 q 154 86 253 -11 q 56 353 56 183 q 99 543 56 460 q 219 673 142 626 q 396 719 297 719 q 624 626 540 719 q 708 368 708 532 l 708 342 m 400 594 q 287 553 331 594 q 231 435 243 513 l 557 435 q 509 554 549 514 q 400 594 469 594 m 417 1138 l 569 1138 l 672 940 l 582 940 l 417 1138 m 165 792 l 343 990 l 447 990 l 625 792 l 489 792 l 396 906 l 301 792 l 165 792 z "},"ể":{"ha":761,"x_min":56,"x_max":728,"o":"m 708 342 l 225 342 q 281 176 231 229 q 432 122 332 122 q 646 197 547 122 l 696 78 q 573 13 646 38 q 425 -11 500 -11 q 154 86 253 -11 q 56 353 56 183 q 99 543 56 460 q 219 673 142 626 q 396 719 297 719 q 624 626 540 719 q 708 368 708 532 l 708 342 m 400 594 q 287 553 331 594 q 231 435 243 513 l 557 435 q 509 554 549 514 q 400 594 469 594 m 614 940 l 521 940 l 521 967 q 538 1004 521 992 q 585 1029 554 1017 q 614 1049 614 1039 q 601 1065 614 1058 q 564 1071 589 1071 q 481 1054 531 1071 l 456 1121 q 582 1146 518 1146 q 688 1122 649 1146 q 728 1058 728 1097 q 711 1019 728 1032 q 663 993 694 1006 q 626 976 639 985 q 614 953 614 967 l 614 940 m 165 792 l 343 990 l 447 990 l 625 792 l 489 792 l 396 906 l 301 792 l 165 792 z "},"ễ":{"ha":761,"x_min":56,"x_max":708,"o":"m 708 342 l 225 342 q 281 176 231 229 q 432 122 332 122 q 646 197 547 122 l 696 78 q 573 13 646 38 q 425 -11 500 -11 q 154 86 253 -11 q 56 353 56 183 q 99 543 56 460 q 219 673 142 626 q 396 719 297 719 q 624 626 540 719 q 708 368 708 532 l 708 342 m 400 594 q 287 553 331 594 q 231 435 243 513 l 557 435 q 509 554 549 514 q 400 594 469 594 m 158 1014 q 199 1117 158 1076 q 300 1157 239 1157 q 350 1150 326 1157 q 411 1128 374 1143 q 490 1106 467 1106 q 534 1119 518 1106 q 553 1156 550 1133 l 632 1156 q 592 1053 632 1094 q 490 1013 551 1013 q 440 1019 464 1013 q 379 1042 417 1026 q 300 1064 324 1064 q 256 1050 272 1064 q 238 1014 240 1036 l 158 1014 m 165 792 l 343 990 l 447 990 l 625 792 l 489 792 l 396 906 l 301 792 l 165 792 z "},"ȅ":{"ha":761,"x_min":56,"x_max":708,"o":"m 708 342 l 225 342 q 281 176 231 229 q 432 122 332 122 q 646 197 547 122 l 696 78 q 573 13 646 38 q 425 -11 500 -11 q 154 86 253 -11 q 56 353 56 183 q 99 543 56 460 q 219 673 142 626 q 396 719 297 719 q 624 626 540 719 q 708 368 708 532 l 708 342 m 400 594 q 287 553 331 594 q 231 435 243 513 l 557 435 q 509 554 549 514 q 400 594 469 594 m 154 1078 l 288 1078 l 342 792 l 264 792 l 154 1078 m 339 1078 l 472 1078 l 526 792 l 449 792 l 339 1078 z "},"ë":{"ha":761,"x_min":56,"x_max":708,"o":"m 708 342 l 225 342 q 281 176 231 229 q 432 122 332 122 q 646 197 547 122 l 696 78 q 573 13 646 38 q 425 -11 500 -11 q 154 86 253 -11 q 56 353 56 183 q 99 543 56 460 q 219 673 142 626 q 396 719 297 719 q 624 626 540 719 q 708 368 708 532 l 708 342 m 400 594 q 287 553 331 594 q 231 435 243 513 l 557 435 q 509 554 549 514 q 400 594 469 594 m 350 1014 l 350 854 l 183 854 l 183 1014 l 350 1014 m 607 1014 l 607 854 l 440 854 l 440 1014 l 607 1014 z "},"ė":{"ha":761,"x_min":56,"x_max":708,"o":"m 708 342 l 225 342 q 281 176 231 229 q 432 122 332 122 q 646 197 547 122 l 696 78 q 573 13 646 38 q 425 -11 500 -11 q 154 86 253 -11 q 56 353 56 183 q 99 543 56 460 q 219 673 142 626 q 396 719 297 719 q 624 626 540 719 q 708 368 708 532 l 708 342 m 400 594 q 287 553 331 594 q 231 435 243 513 l 557 435 q 509 554 549 514 q 400 594 469 594 m 492 1019 l 492 849 l 299 849 l 299 1019 l 492 1019 z "},"ẹ":{"ha":761,"x_min":56,"x_max":708,"o":"m 708 342 l 225 342 q 281 176 231 229 q 432 122 332 122 q 646 197 547 122 l 696 78 q 573 13 646 38 q 425 -11 500 -11 q 154 86 253 -11 q 56 353 56 183 q 99 543 56 460 q 219 673 142 626 q 396 719 297 719 q 624 626 540 719 q 708 368 708 532 l 708 342 m 400 594 q 287 553 331 594 q 231 435 243 513 l 557 435 q 509 554 549 514 q 400 594 469 594 m 506 -108 l 506 -271 l 338 -271 l 338 -108 l 506 -108 z "},"è":{"ha":761,"x_min":56,"x_max":708,"o":"m 708 342 l 225 342 q 281 176 231 229 q 432 122 332 122 q 646 197 547 122 l 696 78 q 573 13 646 38 q 425 -11 500 -11 q 154 86 253 -11 q 56 353 56 183 q 99 543 56 460 q 219 673 142 626 q 396 719 297 719 q 624 626 540 719 q 708 368 708 532 l 708 342 m 400 594 q 287 553 331 594 q 231 435 243 513 l 557 435 q 509 554 549 514 q 400 594 469 594 m 135 1078 l 313 1078 l 451 792 l 339 792 l 135 1078 z "},"ẻ":{"ha":761,"x_min":56,"x_max":708,"o":"m 708 342 l 225 342 q 281 176 231 229 q 432 122 332 122 q 646 197 547 122 l 696 78 q 573 13 646 38 q 425 -11 500 -11 q 154 86 253 -11 q 56 353 56 183 q 99 543 56 460 q 219 673 142 626 q 396 719 297 719 q 624 626 540 719 q 708 368 708 532 l 708 342 m 400 594 q 287 553 331 594 q 231 435 243 513 l 557 435 q 509 554 549 514 q 400 594 469 594 m 444 792 l 350 792 l 350 829 q 364 876 350 857 q 403 918 378 896 q 428 942 419 932 q 436 964 436 953 q 385 997 436 997 q 310 983 347 997 l 285 1056 q 401 1082 342 1082 q 515 1053 474 1082 q 556 981 556 1024 q 540 928 556 949 q 493 883 525 908 q 457 851 469 865 q 444 819 444 838 l 444 792 z "},"ȇ":{"ha":761,"x_min":56,"x_max":708,"o":"m 708 342 l 225 342 q 281 176 231 229 q 432 122 332 122 q 646 197 547 122 l 696 78 q 573 13 646 38 q 425 -11 500 -11 q 154 86 253 -11 q 56 353 56 183 q 99 543 56 460 q 219 673 142 626 q 396 719 297 719 q 624 626 540 719 q 708 368 708 532 l 708 342 m 400 594 q 287 553 331 594 q 231 435 243 513 l 557 435 q 509 554 549 514 q 400 594 469 594 m 396 1053 q 550 1004 482 1053 q 644 860 618 956 l 557 824 q 396 940 496 940 q 233 824 294 940 l 146 860 q 240 1004 172 956 q 396 1053 308 1053 z "},"ē":{"ha":761,"x_min":56,"x_max":708,"o":"m 708 342 l 225 342 q 281 176 231 229 q 432 122 332 122 q 646 197 547 122 l 696 78 q 573 13 646 38 q 425 -11 500 -11 q 154 86 253 -11 q 56 353 56 183 q 99 543 56 460 q 219 673 142 626 q 396 719 297 719 q 624 626 540 719 q 708 368 708 532 l 708 342 m 400 594 q 287 553 331 594 q 231 435 243 513 l 557 435 q 509 554 549 514 q 400 594 469 594 m 179 990 l 611 990 l 611 876 l 179 876 l 179 990 z "},"ḗ":{"ha":761,"x_min":56,"x_max":708,"o":"m 708 342 l 225 342 q 281 176 231 229 q 432 122 332 122 q 646 197 547 122 l 696 78 q 573 13 646 38 q 425 -11 500 -11 q 154 86 253 -11 q 56 353 56 183 q 99 543 56 460 q 219 673 142 626 q 396 719 297 719 q 624 626 540 719 q 708 368 708 532 l 708 342 m 400 594 q 287 553 331 594 q 231 435 243 513 l 557 435 q 509 554 549 514 q 400 594 469 594 m 179 990 l 611 990 l 611 876 l 179 876 l 179 990 m 339 1060 l 478 1346 l 656 1346 l 451 1060 l 339 1060 z "},"ḕ":{"ha":761,"x_min":56,"x_max":708,"o":"m 708 342 l 225 342 q 281 176 231 229 q 432 122 332 122 q 646 197 547 122 l 696 78 q 573 13 646 38 q 425 -11 500 -11 q 154 86 253 -11 q 56 353 56 183 q 99 543 56 460 q 219 673 142 626 q 396 719 297 719 q 624 626 540 719 q 708 368 708 532 l 708 342 m 400 594 q 287 553 331 594 q 231 435 243 513 l 557 435 q 509 554 549 514 q 400 594 469 594 m 179 990 l 611 990 l 611 876 l 179 876 l 179 990 m 135 1346 l 313 1346 l 451 1060 l 339 1060 l 135 1346 z "},"ę":{"ha":761,"x_min":56,"x_max":708,"o":"m 708 342 l 225 342 q 281 176 231 229 q 432 122 332 122 q 646 197 547 122 l 696 79 q 669 58 685 68 q 617 32 653 49 q 528 -31 554 -1 q 503 -101 503 -61 q 526 -162 503 -140 q 590 -183 549 -183 q 671 -162 629 -183 l 694 -250 q 560 -281 633 -281 q 433 -237 482 -281 q 383 -125 383 -193 q 432 -11 383 -57 l 425 -11 q 154 86 253 -11 q 56 353 56 183 q 99 543 56 460 q 219 673 142 626 q 396 719 297 719 q 624 626 540 719 q 708 368 708 532 l 708 342 m 400 594 q 288 553 332 594 q 231 435 244 511 l 557 435 q 509 554 549 514 q 400 594 469 594 z "},"ẽ":{"ha":761,"x_min":56,"x_max":708,"o":"m 708 342 l 225 342 q 281 176 231 229 q 432 122 332 122 q 646 197 547 122 l 696 78 q 573 13 646 38 q 425 -11 500 -11 q 154 86 253 -11 q 56 353 56 183 q 99 543 56 460 q 219 673 142 626 q 396 719 297 719 q 624 626 540 719 q 708 368 708 532 l 708 342 m 400 594 q 287 553 331 594 q 231 435 243 513 l 557 435 q 509 554 549 514 q 400 594 469 594 m 158 844 q 197 984 158 936 q 300 1032 236 1032 q 351 1022 326 1032 q 411 989 375 1011 q 457 964 439 972 q 490 956 475 956 q 534 976 518 956 q 553 1028 550 996 l 632 1028 q 593 888 632 936 q 490 840 554 840 q 441 850 464 840 q 379 882 418 860 q 300 915 328 915 q 256 896 272 915 q 238 844 240 876 l 158 844 z "},"ə":{"ha":761,"x_min":54,"x_max":706,"o":"m 347 719 q 537 675 456 719 q 662 548 618 631 q 706 354 706 465 q 664 163 706 246 q 547 35 622 81 q 375 -11 472 -11 q 140 82 225 -11 q 54 340 54 175 l 54 367 l 539 367 q 483 531 533 478 q 338 585 433 585 q 115 510 232 585 l 65 629 q 192 695 117 671 q 347 719 268 719 m 368 113 q 480 153 438 113 q 535 272 522 194 l 210 272 q 258 153 218 194 q 368 113 299 113 z "},"f":{"ha":510,"x_min":7,"x_max":494,"o":"m 426 885 q 314 761 314 885 l 314 701 l 471 701 l 471 571 l 314 571 l 314 0 l 140 0 l 140 571 l 7 571 l 7 701 l 140 701 l 140 769 q 203 962 140 894 q 385 1029 267 1029 q 494 1013 450 1029 l 494 875 q 426 885 456 885 z "},"g":{"ha":865,"x_min":56,"x_max":772,"o":"m 772 701 l 772 22 q 682 -226 772 -142 q 417 -311 592 -311 q 131 -243 254 -311 l 158 -111 q 413 -178 286 -178 q 600 8 600 -178 l 600 147 q 507 55 568 90 q 369 19 446 19 q 206 63 278 19 q 95 187 135 107 q 56 369 56 267 q 95 552 56 472 q 206 676 135 632 q 369 719 278 719 q 508 687 447 719 q 600 596 568 654 l 600 701 l 772 701 m 415 156 q 551 213 501 156 q 600 369 600 269 q 551 526 600 469 q 415 583 503 583 q 280 526 329 583 q 231 369 231 469 q 280 213 231 269 q 415 156 329 156 z "},"ğ":{"ha":865,"x_min":56,"x_max":772,"o":"m 772 701 l 772 22 q 682 -226 772 -142 q 417 -311 592 -311 q 131 -243 254 -311 l 158 -111 q 413 -178 286 -178 q 600 8 600 -178 l 600 147 q 507 55 568 90 q 369 19 446 19 q 206 63 278 19 q 95 187 135 107 q 56 369 56 267 q 95 552 56 472 q 206 676 135 632 q 369 719 278 719 q 508 687 447 719 q 600 596 568 654 l 600 701 l 772 701 m 415 156 q 551 213 501 156 q 600 369 600 269 q 551 526 600 469 q 415 583 503 583 q 280 526 329 583 q 231 369 231 469 q 280 213 231 269 q 415 156 329 156 m 435 828 q 280 876 349 828 q 185 1019 211 924 l 272 1058 q 435 942 332 942 q 596 1058 536 942 l 683 1021 q 589 876 657 925 q 435 828 521 828 z "},"ǧ":{"ha":865,"x_min":56,"x_max":772,"o":"m 772 701 l 772 22 q 682 -226 772 -142 q 417 -311 592 -311 q 131 -243 254 -311 l 158 -111 q 413 -178 286 -178 q 600 8 600 -178 l 600 147 q 507 55 568 90 q 369 19 446 19 q 206 63 278 19 q 95 187 135 107 q 56 369 56 267 q 95 552 56 472 q 206 676 135 632 q 369 719 278 719 q 508 687 447 719 q 600 596 568 654 l 600 701 l 772 701 m 415 156 q 551 213 501 156 q 600 369 600 269 q 551 526 600 469 q 415 583 503 583 q 280 526 329 583 q 231 369 231 469 q 280 213 231 269 q 415 156 329 156 m 664 1078 l 489 792 l 379 792 l 204 1078 l 346 1078 l 435 900 l 522 1078 l 664 1078 z "},"ĝ":{"ha":865,"x_min":56,"x_max":772,"o":"m 772 701 l 772 22 q 682 -226 772 -142 q 417 -311 592 -311 q 131 -243 254 -311 l 158 -111 q 413 -178 286 -178 q 600 8 600 -178 l 600 147 q 507 55 568 90 q 369 19 446 19 q 206 63 278 19 q 95 187 135 107 q 56 369 56 267 q 95 552 56 472 q 206 676 135 632 q 369 719 278 719 q 508 687 447 719 q 600 596 568 654 l 600 701 l 772 701 m 415 156 q 551 213 501 156 q 600 369 600 269 q 551 526 600 469 q 415 583 503 583 q 280 526 329 583 q 231 369 231 469 q 280 213 231 269 q 415 156 329 156 m 204 792 l 379 1078 l 489 1078 l 664 792 l 522 792 l 435 969 l 346 792 l 204 792 z "},"ģ":{"ha":865,"x_min":56,"x_max":772,"o":"m 772 701 l 772 22 q 682 -226 772 -142 q 417 -311 592 -311 q 131 -243 254 -311 l 158 -111 q 413 -178 286 -178 q 600 8 600 -178 l 600 147 q 507 55 568 90 q 369 19 446 19 q 206 63 278 19 q 95 187 135 107 q 56 369 56 267 q 95 552 56 472 q 206 676 135 632 q 369 719 278 719 q 508 687 447 719 q 600 596 568 654 l 600 701 l 772 701 m 415 156 q 551 213 501 156 q 600 369 600 269 q 551 526 600 469 q 415 583 503 583 q 280 526 329 583 q 231 369 231 469 q 280 213 231 269 q 415 156 329 156 m 525 975 l 525 832 l 343 832 l 343 918 q 360 1027 343 981 q 422 1114 378 1074 l 489 1068 q 439 975 446 1025 l 525 975 z "},"ġ":{"ha":865,"x_min":56,"x_max":772,"o":"m 772 701 l 772 22 q 682 -226 772 -142 q 417 -311 592 -311 q 131 -243 254 -311 l 158 -111 q 413 -178 286 -178 q 600 8 600 -178 l 600 147 q 507 55 568 90 q 369 19 446 19 q 206 63 278 19 q 95 187 135 107 q 56 369 56 267 q 95 552 56 472 q 206 676 135 632 q 369 719 278 719 q 508 687 447 719 q 600 596 568 654 l 600 701 l 772 701 m 415 156 q 551 213 501 156 q 600 369 600 269 q 551 526 600 469 q 415 583 503 583 q 280 526 329 583 q 231 369 231 469 q 280 213 231 269 q 415 156 329 156 m 531 1019 l 531 849 l 338 849 l 338 1019 l 531 1019 z "},"ḡ":{"ha":865,"x_min":56,"x_max":772,"o":"m 772 701 l 772 22 q 682 -226 772 -142 q 417 -311 592 -311 q 131 -243 254 -311 l 158 -111 q 413 -178 286 -178 q 600 8 600 -178 l 600 147 q 507 55 568 90 q 369 19 446 19 q 206 63 278 19 q 95 187 135 107 q 56 369 56 267 q 95 552 56 472 q 206 676 135 632 q 369 719 278 719 q 508 687 447 719 q 600 596 568 654 l 600 701 l 772 701 m 415 156 q 551 213 501 156 q 600 369 600 269 q 551 526 600 469 q 415 583 503 583 q 280 526 329 583 q 231 369 231 469 q 280 213 231 269 q 415 156 329 156 m 218 990 l 650 990 l 650 876 l 218 876 l 218 990 z "},"h":{"ha":838,"x_min":94,"x_max":747,"o":"m 496 719 q 747 431 747 719 l 747 0 l 574 0 l 574 422 q 542 544 574 506 q 443 582 510 582 q 315 531 364 582 q 267 397 267 481 l 267 0 l 94 0 l 94 1022 l 267 1022 l 267 600 q 363 688 303 657 q 496 719 422 719 z "},"ħ":{"ha":838,"x_min":-32,"x_max":747,"o":"m 496 719 q 747 431 747 719 l 747 0 l 574 0 l 574 422 q 542 544 574 506 q 443 582 510 582 q 315 531 364 582 q 267 397 267 481 l 267 0 l 94 0 l 94 789 l -32 789 l -32 913 l 94 913 l 94 1022 l 267 1022 l 267 913 l 538 913 l 538 789 l 267 789 l 267 600 q 363 688 303 657 q 496 719 422 719 z "},"ḫ":{"ha":838,"x_min":94,"x_max":747,"o":"m 496 719 q 747 431 747 719 l 747 0 l 574 0 l 574 422 q 542 544 574 506 q 443 582 510 582 q 315 531 364 582 q 267 397 267 481 l 267 0 l 94 0 l 94 1022 l 267 1022 l 267 600 q 363 688 303 657 q 496 719 422 719 m 419 -310 q 265 -261 333 -310 q 169 -117 196 -212 l 257 -81 q 419 -196 318 -196 q 581 -81 519 -196 l 668 -117 q 574 -261 642 -212 q 419 -310 506 -310 z "},"ĥ":{"ha":838,"x_min":-47,"x_max":747,"o":"m 496 719 q 747 431 747 719 l 747 0 l 574 0 l 574 422 q 542 544 574 506 q 443 582 510 582 q 315 531 364 582 q 267 397 267 481 l 267 0 l 94 0 l 94 1022 l 267 1022 l 267 600 q 363 688 303 657 q 496 719 422 719 m -47 1107 l 131 1322 l 235 1322 l 413 1107 l 275 1107 l 183 1235 l 90 1107 l -47 1107 z "},"ḥ":{"ha":838,"x_min":94,"x_max":747,"o":"m 496 719 q 747 431 747 719 l 747 0 l 574 0 l 574 422 q 542 544 574 506 q 443 582 510 582 q 315 531 364 582 q 267 397 267 481 l 267 0 l 94 0 l 94 1022 l 267 1022 l 267 600 q 363 688 303 657 q 496 719 422 719 m 503 -108 l 503 -271 l 335 -271 l 335 -108 l 503 -108 z "},"i":{"ha":363,"x_min":83,"x_max":276,"o":"m 94 701 l 267 701 l 267 0 l 94 0 l 94 701 m 276 1019 l 276 849 l 83 849 l 83 1019 l 276 1019 z "},"ı":{"ha":363,"x_min":94,"x_max":267,"o":"m 94 701 l 267 701 l 267 0 l 94 0 l 94 701 z "},"í":{"ha":363,"x_min":94,"x_max":440,"o":"m 94 701 l 267 701 l 267 0 l 94 0 l 94 701 m 124 792 l 263 1078 l 440 1078 l 236 792 l 124 792 z "},"ĭ":{"ha":363,"x_min":-69,"x_max":429,"o":"m 94 701 l 267 701 l 267 0 l 94 0 l 94 701 m 181 828 q 26 876 94 828 q -69 1019 -43 924 l 18 1058 q 181 942 78 942 q 342 1058 282 942 l 429 1021 q 335 876 403 925 q 181 828 267 828 z "},"î":{"ha":363,"x_min":-50,"x_max":410,"o":"m 94 701 l 267 701 l 267 0 l 94 0 l 94 701 m -50 792 l 125 1078 l 235 1078 l 410 792 l 268 792 l 181 969 l 92 792 l -50 792 z "},"ȉ":{"ha":363,"x_min":-61,"x_max":311,"o":"m 94 701 l 267 701 l 267 0 l 94 0 l 94 701 m -61 1078 l 72 1078 l 126 792 l 49 792 l -61 1078 m 124 1078 l 257 1078 l 311 792 l 233 792 l 124 1078 z "},"ï":{"ha":363,"x_min":-32,"x_max":392,"o":"m 94 701 l 267 701 l 267 0 l 94 0 l 94 701 m 135 1014 l 135 854 l -32 854 l -32 1014 l 135 1014 m 392 1014 l 392 854 l 225 854 l 225 1014 l 392 1014 z "},"ḯ":{"ha":363,"x_min":-32,"x_max":440,"o":"m 94 701 l 267 701 l 267 0 l 94 0 l 94 701 m 135 1014 l 135 854 l -32 854 l -32 1014 l 135 1014 m 392 1014 l 392 854 l 225 854 l 225 1014 l 392 1014 m 124 1060 l 263 1346 l 440 1346 l 236 1060 l 124 1060 z "},"ị":{"ha":363,"x_min":83,"x_max":276,"o":"m 94 701 l 267 701 l 267 0 l 94 0 l 94 701 m 276 1019 l 276 849 l 83 849 l 83 1019 l 276 1019 m 264 -108 l 264 -271 l 96 -271 l 96 -108 l 264 -108 z "},"ì":{"ha":363,"x_min":-81,"x_max":267,"o":"m 94 701 l 267 701 l 267 0 l 94 0 l 94 701 m -81 1078 l 97 1078 l 236 792 l 124 792 l -81 1078 z "},"ỉ":{"ha":363,"x_min":69,"x_max":340,"o":"m 94 701 l 267 701 l 267 0 l 94 0 l 94 701 m 229 792 l 135 792 l 135 829 q 149 876 135 857 q 188 918 163 896 q 213 942 204 932 q 221 964 221 953 q 169 997 221 997 q 94 983 132 997 l 69 1056 q 186 1082 126 1082 q 299 1053 258 1082 q 340 981 340 1024 q 325 928 340 949 q 278 883 310 908 q 242 851 254 865 q 229 819 229 838 l 229 792 z "},"ȋ":{"ha":363,"x_min":-69,"x_max":429,"o":"m 94 701 l 267 701 l 267 0 l 94 0 l 94 701 m 181 1053 q 335 1004 267 1053 q 429 860 403 956 l 342 824 q 181 940 281 940 q 18 824 79 940 l -69 860 q 25 1004 -43 956 q 181 1053 93 1053 z "},"ī":{"ha":363,"x_min":-36,"x_max":396,"o":"m 94 701 l 267 701 l 267 0 l 94 0 l 94 701 m -36 990 l 396 990 l 396 876 l -36 876 l -36 990 z "},"į":{"ha":363,"x_min":15,"x_max":325,"o":"m 278 853 l 85 853 l 85 1025 l 278 1025 l 278 853 m 325 -250 q 190 -281 261 -281 q 65 -237 114 -281 q 15 -124 15 -193 q 35 -44 15 -82 q 94 19 56 -7 l 94 701 l 267 701 l 267 0 l 257 0 q 167 -28 200 0 q 133 -101 133 -57 q 157 -162 133 -140 q 222 -183 181 -183 q 301 -162 260 -183 l 325 -250 z "},"ĩ":{"ha":363,"x_min":-57,"x_max":417,"o":"m 94 701 l 267 701 l 267 0 l 94 0 l 94 701 m -57 844 q -18 984 -57 936 q 85 1032 21 1032 q 135 1022 111 1032 q 196 989 160 1011 q 242 964 224 972 q 275 956 260 956 q 319 976 303 956 q 338 1028 335 996 l 417 1028 q 378 888 417 936 q 275 840 339 840 q 226 850 249 840 q 164 882 203 860 q 85 915 113 915 q 41 896 57 915 q 22 844 25 876 l -57 844 z "},"j":{"ha":363,"x_min":-85,"x_max":276,"o":"m -85 -154 q -17 -165 -47 -165 q 64 -136 33 -165 q 94 -42 94 -107 l 94 701 l 267 701 l 267 -50 q 203 -242 267 -175 q 24 -308 140 -308 q -85 -293 -39 -308 l -85 -154 m 276 1019 l 276 849 l 83 849 l 83 1019 l 276 1019 z "},"ȷ":{"ha":363,"x_min":-85,"x_max":267,"o":"m -85 -154 q -17 -165 -47 -165 q 64 -136 33 -165 q 94 -42 94 -107 l 94 701 l 267 701 l 267 -50 q 203 -242 267 -175 q 24 -308 140 -308 q -85 -293 -39 -308 l -85 -154 z "},"ĵ":{"ha":363,"x_min":-85,"x_max":410,"o":"m -85 -154 q -17 -165 -47 -165 q 64 -136 33 -165 q 94 -42 94 -107 l 94 701 l 267 701 l 267 -50 q 203 -242 267 -175 q 24 -308 140 -308 q -85 -293 -39 -308 l -85 -154 m -50 792 l 125 1078 l 235 1078 l 410 792 l 268 792 l 181 969 l 92 792 l -50 792 z "},"k":{"ha":765,"x_min":94,"x_max":790,"o":"m 574 0 l 267 324 l 267 0 l 94 0 l 94 1022 l 267 1022 l 267 392 l 556 700 l 765 700 l 450 365 l 790 0 l 574 0 z "},"ķ":{"ha":765,"x_min":94,"x_max":790,"o":"m 574 0 l 267 324 l 267 0 l 94 0 l 94 1022 l 267 1022 l 267 392 l 556 700 l 765 700 l 450 365 l 790 0 l 574 0 m 472 -96 l 472 -182 q 455 -290 472 -243 q 393 -378 438 -337 l 326 -331 q 375 -239 368 -289 l 290 -239 l 290 -96 l 472 -96 z "},"ĸ":{"ha":765,"x_min":94,"x_max":790,"o":"m 574 0 l 267 324 l 267 0 l 94 0 l 94 701 l 267 701 l 267 392 l 556 700 l 765 700 l 450 365 l 790 0 l 574 0 z "},"l":{"ha":363,"x_min":94,"x_max":267,"o":"m 94 1022 l 267 1022 l 267 0 l 94 0 l 94 1022 z "},"ĺ":{"ha":363,"x_min":94,"x_max":435,"o":"m 94 1022 l 267 1022 l 267 0 l 94 0 l 94 1022 m 124 1107 l 267 1322 l 435 1322 l 236 1107 l 124 1107 z "},"ľ":{"ha":363,"x_min":94,"x_max":414,"o":"m 94 1022 l 267 1022 l 267 0 l 94 0 l 94 1022 m 311 747 l 311 1022 l 414 1022 l 378 747 l 311 747 z "},"ļ":{"ha":363,"x_min":89,"x_max":271,"o":"m 94 1022 l 267 1022 l 267 0 l 94 0 l 94 1022 m 271 -96 l 271 -182 q 253 -290 271 -243 q 192 -378 236 -337 l 125 -331 q 174 -239 167 -289 l 89 -239 l 89 -96 l 271 -96 z "},"ŀ":{"ha":469,"x_min":94,"x_max":507,"o":"m 94 1022 l 267 1022 l 267 0 l 94 0 l 94 1022 m 507 582 l 507 411 l 313 411 l 313 582 l 507 582 z "},"ḷ":{"ha":363,"x_min":94,"x_max":267,"o":"m 94 1022 l 267 1022 l 267 0 l 94 0 l 94 1022 m 264 -108 l 264 -271 l 96 -271 l 96 -108 l 264 -108 z "},"ǉ":{"ha":725,"x_min":94,"x_max":639,"o":"m 94 1022 l 267 1022 l 267 0 l 94 0 l 94 1022 m 278 -154 q 346 -165 315 -165 q 426 -136 396 -165 q 457 -42 457 -107 l 457 701 l 629 701 l 629 -50 q 566 -242 629 -175 q 386 -308 503 -308 q 278 -293 324 -308 l 278 -154 m 639 1019 l 639 849 l 446 849 l 446 1019 l 639 1019 z "},"ḻ":{"ha":363,"x_min":-36,"x_max":396,"o":"m 94 1022 l 267 1022 l 267 0 l 94 0 l 94 1022 m -36 -136 l 396 -136 l 396 -244 l -36 -244 l -36 -136 z "},"ł":{"ha":461,"x_min":-18,"x_max":481,"o":"m 317 479 l 317 0 l 143 0 l 143 379 l 49 325 l -18 443 l 143 538 l 143 1022 l 317 1022 l 317 639 l 413 694 l 481 574 l 317 479 z "},"m":{"ha":1249,"x_min":83,"x_max":1158,"o":"m 922 719 q 1100 648 1042 719 q 1158 431 1158 576 l 1158 0 l 985 0 l 985 425 q 958 545 985 508 q 868 582 931 582 q 755 531 796 582 q 714 392 714 481 l 714 0 l 540 0 l 540 425 q 512 544 540 507 q 422 582 483 582 q 308 531 350 582 q 267 392 267 481 l 267 0 l 94 0 l 94 503 q 83 701 94 614 l 246 701 l 258 590 q 347 686 289 653 q 479 719 404 719 q 689 586 640 719 q 784 684 722 649 q 922 719 846 719 z "},"ṃ":{"ha":1249,"x_min":83,"x_max":1158,"o":"m 922 719 q 1100 648 1042 719 q 1158 431 1158 576 l 1158 0 l 985 0 l 985 425 q 958 545 985 508 q 868 582 931 582 q 755 531 796 582 q 714 392 714 481 l 714 0 l 540 0 l 540 425 q 512 544 540 507 q 422 582 483 582 q 308 531 350 582 q 267 392 267 481 l 267 0 l 94 0 l 94 503 q 83 701 94 614 l 246 701 l 258 590 q 347 686 289 653 q 479 719 404 719 q 689 586 640 719 q 784 684 722 649 q 922 719 846 719 m 711 -108 l 711 -271 l 543 -271 l 543 -108 l 711 -108 z "},"n":{"ha":838,"x_min":83,"x_max":747,"o":"m 496 719 q 747 431 747 719 l 747 0 l 574 0 l 574 422 q 542 544 574 506 q 443 582 510 582 q 315 531 364 582 q 267 397 267 481 l 267 0 l 94 0 l 94 503 q 83 701 94 614 l 246 701 l 258 586 q 356 685 294 650 q 496 719 418 719 z "},"ń":{"ha":838,"x_min":83,"x_max":747,"o":"m 496 719 q 747 431 747 719 l 747 0 l 574 0 l 574 422 q 542 544 574 506 q 443 582 510 582 q 315 531 364 582 q 267 397 267 481 l 267 0 l 94 0 l 94 503 q 83 701 94 614 l 246 701 l 258 586 q 356 685 294 650 q 496 719 418 719 m 363 792 l 501 1078 l 679 1078 l 475 792 l 363 792 z "},"ŉ":{"ha":838,"x_min":83,"x_max":747,"o":"m 297 1063 l 297 975 q 279 867 297 914 q 218 781 261 821 l 151 828 q 201 919 194 869 l 115 919 l 115 1063 l 297 1063 m 496 719 q 747 431 747 719 l 747 0 l 574 0 l 574 422 q 542 544 574 506 q 443 582 510 582 q 315 531 364 582 q 267 397 267 481 l 267 0 l 94 0 l 94 503 q 83 701 94 614 l 246 701 l 258 586 q 356 685 294 650 q 496 719 418 719 z "},"ň":{"ha":838,"x_min":83,"x_max":747,"o":"m 496 719 q 747 431 747 719 l 747 0 l 574 0 l 574 422 q 542 544 574 506 q 443 582 510 582 q 315 531 364 582 q 267 397 267 481 l 267 0 l 94 0 l 94 503 q 83 701 94 614 l 246 701 l 258 586 q 356 685 294 650 q 496 719 418 719 m 649 1078 l 474 792 l 364 792 l 189 1078 l 331 1078 l 419 900 l 507 1078 l 649 1078 z "},"ņ":{"ha":838,"x_min":83,"x_max":747,"o":"m 496 719 q 747 431 747 719 l 747 0 l 574 0 l 574 422 q 542 544 574 506 q 443 582 510 582 q 315 531 364 582 q 267 397 267 481 l 267 0 l 94 0 l 94 503 q 83 701 94 614 l 246 701 l 258 586 q 356 685 294 650 q 496 719 418 719 m 510 -96 l 510 -182 q 492 -290 510 -243 q 431 -378 475 -337 l 364 -331 q 413 -239 406 -289 l 328 -239 l 328 -96 l 510 -96 z "},"ṅ":{"ha":838,"x_min":83,"x_max":747,"o":"m 496 719 q 747 431 747 719 l 747 0 l 574 0 l 574 422 q 542 544 574 506 q 443 582 510 582 q 315 531 364 582 q 267 397 267 481 l 267 0 l 94 0 l 94 503 q 83 701 94 614 l 246 701 l 258 586 q 356 685 294 650 q 496 719 418 719 m 515 1019 l 515 849 l 322 849 l 322 1019 l 515 1019 z "},"ṇ":{"ha":838,"x_min":83,"x_max":747,"o":"m 496 719 q 747 431 747 719 l 747 0 l 574 0 l 574 422 q 542 544 574 506 q 443 582 510 582 q 315 531 364 582 q 267 397 267 481 l 267 0 l 94 0 l 94 503 q 83 701 94 614 l 246 701 l 258 586 q 356 685 294 650 q 496 719 418 719 m 503 -108 l 503 -271 l 335 -271 l 335 -108 l 503 -108 z "},"ŋ":{"ha":838,"x_min":83,"x_max":747,"o":"m 496 719 q 747 431 747 719 l 747 -21 q 504 -308 747 -308 q 394 -296 447 -308 l 394 -154 q 463 -165 432 -165 q 544 -131 514 -165 q 574 -12 574 -97 l 574 422 q 542 544 574 506 q 443 582 510 582 q 315 531 364 582 q 267 397 267 481 l 267 0 l 94 0 l 94 503 q 83 701 94 614 l 246 701 l 258 586 q 356 685 294 650 q 496 719 418 719 z "},"ǌ":{"ha":1200,"x_min":83,"x_max":1114,"o":"m 496 719 q 747 431 747 719 l 747 0 l 574 0 l 574 422 q 542 544 574 506 q 443 582 510 582 q 315 531 364 582 q 267 397 267 481 l 267 0 l 94 0 l 94 503 q 83 701 94 614 l 246 701 l 258 586 q 356 685 294 650 q 496 719 418 719 m 753 -154 q 821 -165 790 -165 q 901 -136 871 -165 q 932 -42 932 -107 l 932 701 l 1104 701 l 1104 -50 q 1041 -242 1104 -175 q 861 -308 978 -308 q 753 -293 799 -308 l 753 -154 m 1114 1019 l 1114 849 l 921 849 l 921 1019 l 1114 1019 z "},"ṉ":{"ha":838,"x_min":83,"x_max":747,"o":"m 496 719 q 747 431 747 719 l 747 0 l 574 0 l 574 422 q 542 544 574 506 q 443 582 510 582 q 315 531 364 582 q 267 397 267 481 l 267 0 l 94 0 l 94 503 q 83 701 94 614 l 246 701 l 258 586 q 356 685 294 650 q 496 719 418 719 m 203 -136 l 635 -136 l 635 -244 l 203 -244 l 203 -136 z "},"ñ":{"ha":838,"x_min":83,"x_max":747,"o":"m 496 719 q 747 431 747 719 l 747 0 l 574 0 l 574 422 q 542 544 574 506 q 443 582 510 582 q 315 531 364 582 q 267 397 267 481 l 267 0 l 94 0 l 94 503 q 83 701 94 614 l 246 701 l 258 586 q 356 685 294 650 q 496 719 418 719 m 182 844 q 221 984 182 936 q 324 1032 260 1032 q 374 1022 350 1032 q 435 989 399 1011 q 481 964 463 972 q 514 956 499 956 q 558 976 542 956 q 576 1028 574 996 l 656 1028 q 617 888 656 936 q 514 840 578 840 q 465 850 488 840 q 403 882 442 860 q 324 915 351 915 q 280 896 296 915 q 261 844 264 876 l 182 844 z "},"o":{"ha":822,"x_min":56,"x_max":767,"o":"m 413 -11 q 224 33 306 -11 q 99 160 143 78 q 56 354 56 243 q 99 548 56 465 q 224 675 143 631 q 413 719 306 719 q 599 675 518 719 q 723 548 679 631 q 767 354 767 465 q 723 160 767 243 q 599 33 679 78 q 413 -11 518 -11 m 411 125 q 547 183 500 125 q 593 354 593 240 q 546 526 593 467 q 413 585 499 585 q 278 526 325 585 q 231 354 231 467 q 277 183 231 240 q 411 125 324 125 z "},"ó":{"ha":822,"x_min":56,"x_max":767,"o":"m 413 -11 q 224 33 306 -11 q 99 160 143 78 q 56 354 56 243 q 99 548 56 465 q 224 675 143 631 q 413 719 306 719 q 599 675 518 719 q 723 548 679 631 q 767 354 767 465 q 723 160 767 243 q 599 33 679 78 q 413 -11 518 -11 m 411 125 q 547 183 500 125 q 593 354 593 240 q 546 526 593 467 q 413 585 499 585 q 278 526 325 585 q 231 354 231 467 q 277 183 231 240 q 411 125 324 125 m 356 792 l 494 1078 l 672 1078 l 468 792 l 356 792 z "},"ŏ":{"ha":822,"x_min":56,"x_max":767,"o":"m 413 -11 q 224 33 306 -11 q 99 160 143 78 q 56 354 56 243 q 99 548 56 465 q 224 675 143 631 q 413 719 306 719 q 599 675 518 719 q 723 548 679 631 q 767 354 767 465 q 723 160 767 243 q 599 33 679 78 q 413 -11 518 -11 m 411 125 q 547 183 500 125 q 593 354 593 240 q 546 526 593 467 q 413 585 499 585 q 278 526 325 585 q 231 354 231 467 q 277 183 231 240 q 411 125 324 125 m 413 828 q 258 876 326 828 q 163 1019 189 924 l 250 1058 q 413 942 310 942 q 574 1058 514 942 l 661 1021 q 567 876 635 925 q 413 828 499 828 z "},"ô":{"ha":822,"x_min":56,"x_max":767,"o":"m 413 -11 q 224 33 306 -11 q 99 160 143 78 q 56 354 56 243 q 99 548 56 465 q 224 675 143 631 q 413 719 306 719 q 599 675 518 719 q 723 548 679 631 q 767 354 767 465 q 723 160 767 243 q 599 33 679 78 q 413 -11 518 -11 m 411 125 q 547 183 500 125 q 593 354 593 240 q 546 526 593 467 q 413 585 499 585 q 278 526 325 585 q 231 354 231 467 q 277 183 231 240 q 411 125 324 125 m 182 792 l 357 1078 l 467 1078 l 642 792 l 500 792 l 413 969 l 324 792 l 182 792 z "},"ố":{"ha":822,"x_min":56,"x_max":803,"o":"m 413 -11 q 224 33 306 -11 q 99 160 143 78 q 56 354 56 243 q 99 548 56 465 q 224 675 143 631 q 413 719 306 719 q 599 675 518 719 q 723 548 679 631 q 767 354 767 465 q 723 160 767 243 q 599 33 679 78 q 413 -11 518 -11 m 411 125 q 547 183 500 125 q 593 354 593 240 q 546 526 593 467 q 413 585 499 585 q 278 526 325 585 q 231 354 231 467 q 277 183 231 240 q 411 125 324 125 m 539 940 l 650 1138 l 803 1138 l 629 940 l 539 940 m 182 792 l 360 990 l 464 990 l 642 792 l 506 792 l 413 906 l 318 792 l 182 792 z "},"ộ":{"ha":822,"x_min":56,"x_max":767,"o":"m 413 -11 q 224 33 306 -11 q 99 160 143 78 q 56 354 56 243 q 99 548 56 465 q 224 675 143 631 q 413 719 306 719 q 599 675 518 719 q 723 548 679 631 q 767 354 767 465 q 723 160 767 243 q 599 33 679 78 q 413 -11 518 -11 m 411 125 q 547 183 500 125 q 593 354 593 240 q 546 526 593 467 q 413 585 499 585 q 278 526 325 585 q 231 354 231 467 q 277 183 231 240 q 411 125 324 125 m 496 -108 l 496 -271 l 328 -271 l 328 -108 l 496 -108 m 182 792 l 357 1078 l 467 1078 l 642 792 l 500 792 l 413 969 l 324 792 l 182 792 z "},"ồ":{"ha":822,"x_min":56,"x_max":767,"o":"m 413 -11 q 224 33 306 -11 q 99 160 143 78 q 56 354 56 243 q 99 548 56 465 q 224 675 143 631 q 413 719 306 719 q 599 675 518 719 q 723 548 679 631 q 767 354 767 465 q 723 160 767 243 q 599 33 679 78 q 413 -11 518 -11 m 411 125 q 547 183 500 125 q 593 354 593 240 q 546 526 593 467 q 413 585 499 585 q 278 526 325 585 q 231 354 231 467 q 277 183 231 240 q 411 125 324 125 m 433 1138 l 586 1138 l 689 940 l 599 940 l 433 1138 m 182 792 l 360 990 l 464 990 l 642 792 l 506 792 l 413 906 l 318 792 l 182 792 z "},"ổ":{"ha":822,"x_min":56,"x_max":767,"o":"m 413 -11 q 224 33 306 -11 q 99 160 143 78 q 56 354 56 243 q 99 548 56 465 q 224 675 143 631 q 413 719 306 719 q 599 675 518 719 q 723 548 679 631 q 767 354 767 465 q 723 160 767 243 q 599 33 679 78 q 413 -11 518 -11 m 411 125 q 547 183 500 125 q 593 354 593 240 q 546 526 593 467 q 413 585 499 585 q 278 526 325 585 q 231 354 231 467 q 277 183 231 240 q 411 125 324 125 m 631 940 l 538 940 l 538 967 q 554 1004 538 992 q 601 1029 571 1017 q 631 1049 631 1039 q 618 1065 631 1058 q 581 1071 606 1071 q 497 1054 547 1071 l 472 1121 q 599 1146 535 1146 q 705 1122 665 1146 q 744 1058 744 1097 q 728 1019 744 1032 q 679 993 711 1006 q 643 976 656 985 q 631 953 631 967 l 631 940 m 182 792 l 360 990 l 464 990 l 642 792 l 506 792 l 413 906 l 318 792 l 182 792 z "},"ỗ":{"ha":822,"x_min":56,"x_max":767,"o":"m 413 -11 q 224 33 306 -11 q 99 160 143 78 q 56 354 56 243 q 99 548 56 465 q 224 675 143 631 q 413 719 306 719 q 599 675 518 719 q 723 548 679 631 q 767 354 767 465 q 723 160 767 243 q 599 33 679 78 q 413 -11 518 -11 m 411 125 q 547 183 500 125 q 593 354 593 240 q 546 526 593 467 q 413 585 499 585 q 278 526 325 585 q 231 354 231 467 q 277 183 231 240 q 411 125 324 125 m 175 1014 q 215 1117 175 1076 q 317 1157 256 1157 q 367 1150 343 1157 q 428 1128 390 1143 q 507 1106 483 1106 q 551 1119 535 1106 q 569 1156 567 1133 l 649 1156 q 608 1053 649 1094 q 507 1013 568 1013 q 457 1019 481 1013 q 396 1042 433 1026 q 317 1064 340 1064 q 273 1050 289 1064 q 254 1014 257 1036 l 175 1014 m 182 792 l 360 990 l 464 990 l 642 792 l 506 792 l 413 906 l 318 792 l 182 792 z "},"ȍ":{"ha":822,"x_min":56,"x_max":767,"o":"m 413 -11 q 224 33 306 -11 q 99 160 143 78 q 56 354 56 243 q 99 548 56 465 q 224 675 143 631 q 413 719 306 719 q 599 675 518 719 q 723 548 679 631 q 767 354 767 465 q 723 160 767 243 q 599 33 679 78 q 413 -11 518 -11 m 411 125 q 547 183 500 125 q 593 354 593 240 q 546 526 593 467 q 413 585 499 585 q 278 526 325 585 q 231 354 231 467 q 277 183 231 240 q 411 125 324 125 m 171 1078 l 304 1078 l 358 792 l 281 792 l 171 1078 m 356 1078 l 489 1078 l 543 792 l 465 792 l 356 1078 z "},"ö":{"ha":822,"x_min":56,"x_max":767,"o":"m 413 -11 q 224 33 306 -11 q 99 160 143 78 q 56 354 56 243 q 99 548 56 465 q 224 675 143 631 q 413 719 306 719 q 599 675 518 719 q 723 548 679 631 q 767 354 767 465 q 723 160 767 243 q 599 33 679 78 q 413 -11 518 -11 m 411 125 q 547 183 500 125 q 593 354 593 240 q 546 526 593 467 q 413 585 499 585 q 278 526 325 585 q 231 354 231 467 q 277 183 231 240 q 411 125 324 125 m 367 1014 l 367 854 l 200 854 l 200 1014 l 367 1014 m 624 1014 l 624 854 l 457 854 l 457 1014 l 624 1014 z "},"ȫ":{"ha":822,"x_min":56,"x_max":767,"o":"m 413 -11 q 224 33 306 -11 q 99 160 143 78 q 56 354 56 243 q 99 548 56 465 q 224 675 143 631 q 413 719 306 719 q 599 675 518 719 q 723 548 679 631 q 767 354 767 465 q 723 160 767 243 q 599 33 679 78 q 413 -11 518 -11 m 411 125 q 547 183 500 125 q 593 354 593 240 q 546 526 593 467 q 413 585 499 585 q 278 526 325 585 q 231 354 231 467 q 277 183 231 240 q 411 125 324 125 m 367 1014 l 367 854 l 200 854 l 200 1014 l 367 1014 m 624 1014 l 624 854 l 457 854 l 457 1014 l 624 1014 m 196 1258 l 628 1258 l 628 1144 l 196 1144 l 196 1258 z "},"ȱ":{"ha":822,"x_min":56,"x_max":767,"o":"m 413 -11 q 224 33 306 -11 q 99 160 143 78 q 56 354 56 243 q 99 548 56 465 q 224 675 143 631 q 413 719 306 719 q 599 675 518 719 q 723 548 679 631 q 767 354 767 465 q 723 160 767 243 q 599 33 679 78 q 413 -11 518 -11 m 411 125 q 547 183 500 125 q 593 354 593 240 q 546 526 593 467 q 413 585 499 585 q 278 526 325 585 q 231 354 231 467 q 277 183 231 240 q 411 125 324 125 m 508 1019 l 508 849 l 315 849 l 315 1019 l 508 1019 m 196 1258 l 628 1258 l 628 1144 l 196 1144 l 196 1258 z "},"ọ":{"ha":822,"x_min":56,"x_max":767,"o":"m 413 -11 q 224 33 306 -11 q 99 160 143 78 q 56 354 56 243 q 99 548 56 465 q 224 675 143 631 q 413 719 306 719 q 599 675 518 719 q 723 548 679 631 q 767 354 767 465 q 723 160 767 243 q 599 33 679 78 q 413 -11 518 -11 m 411 125 q 547 183 500 125 q 593 354 593 240 q 546 526 593 467 q 413 585 499 585 q 278 526 325 585 q 231 354 231 467 q 277 183 231 240 q 411 125 324 125 m 496 -108 l 496 -271 l 328 -271 l 328 -108 l 496 -108 z "},"ò":{"ha":822,"x_min":56,"x_max":767,"o":"m 413 -11 q 224 33 306 -11 q 99 160 143 78 q 56 354 56 243 q 99 548 56 465 q 224 675 143 631 q 413 719 306 719 q 599 675 518 719 q 723 548 679 631 q 767 354 767 465 q 723 160 767 243 q 599 33 679 78 q 413 -11 518 -11 m 411 125 q 547 183 500 125 q 593 354 593 240 q 546 526 593 467 q 413 585 499 585 q 278 526 325 585 q 231 354 231 467 q 277 183 231 240 q 411 125 324 125 m 151 1078 l 329 1078 l 468 792 l 356 792 l 151 1078 z "},"ỏ":{"ha":822,"x_min":56,"x_max":767,"o":"m 413 -11 q 224 33 306 -11 q 99 160 143 78 q 56 354 56 243 q 99 548 56 465 q 224 675 143 631 q 413 719 306 719 q 599 675 518 719 q 723 548 679 631 q 767 354 767 465 q 723 160 767 243 q 599 33 679 78 q 413 -11 518 -11 m 411 125 q 547 183 500 125 q 593 354 593 240 q 546 526 593 467 q 413 585 499 585 q 278 526 325 585 q 231 354 231 467 q 277 183 231 240 q 411 125 324 125 m 461 792 l 367 792 l 367 829 q 381 876 367 857 q 419 918 394 896 q 444 942 436 932 q 453 964 453 953 q 401 997 453 997 q 326 983 364 997 l 301 1056 q 418 1082 358 1082 q 531 1053 490 1082 q 572 981 572 1024 q 557 928 572 949 q 510 883 542 908 q 474 851 486 865 q 461 819 461 838 l 461 792 z "},"ơ":{"ha":822,"x_min":56,"x_max":789,"o":"m 789 836 q 753 707 789 761 q 654 631 718 653 q 738 513 710 583 q 767 353 767 442 q 723 160 767 243 q 599 33 679 78 q 413 -11 518 -11 q 224 33 306 -11 q 99 160 143 78 q 56 353 56 243 q 99 547 56 464 q 223 674 143 629 q 408 719 303 719 q 486 713 426 719 q 521 708 508 708 q 608 741 578 708 q 639 858 639 774 l 639 883 l 789 883 l 789 836 m 411 125 q 547 183 500 125 q 593 354 593 240 q 546 526 593 467 q 413 585 499 585 q 278 526 325 585 q 231 354 231 467 q 277 183 231 240 q 411 125 324 125 z "},"ớ":{"ha":822,"x_min":56,"x_max":789,"o":"m 789 836 q 753 707 789 761 q 654 631 718 653 q 738 513 710 583 q 767 353 767 442 q 723 160 767 243 q 599 33 679 78 q 413 -11 518 -11 q 224 33 306 -11 q 99 160 143 78 q 56 353 56 243 q 99 547 56 464 q 223 674 143 629 q 408 719 303 719 q 486 713 426 719 q 521 708 508 708 q 608 741 578 708 q 639 858 639 774 l 639 883 l 789 883 l 789 836 m 411 125 q 547 183 500 125 q 593 354 593 240 q 546 526 593 467 q 413 585 499 585 q 278 526 325 585 q 231 354 231 467 q 277 183 231 240 q 411 125 324 125 m 356 792 l 494 1078 l 672 1078 l 468 792 l 356 792 z "},"ợ":{"ha":822,"x_min":56,"x_max":789,"o":"m 789 836 q 753 707 789 761 q 654 631 718 653 q 738 513 710 583 q 767 353 767 442 q 723 160 767 243 q 599 33 679 78 q 413 -11 518 -11 q 224 33 306 -11 q 99 160 143 78 q 56 353 56 243 q 99 547 56 464 q 223 674 143 629 q 408 719 303 719 q 486 713 426 719 q 521 708 508 708 q 608 741 578 708 q 639 858 639 774 l 639 883 l 789 883 l 789 836 m 411 125 q 547 183 500 125 q 593 354 593 240 q 546 526 593 467 q 413 585 499 585 q 278 526 325 585 q 231 354 231 467 q 277 183 231 240 q 411 125 324 125 m 496 -108 l 496 -271 l 328 -271 l 328 -108 l 496 -108 z "},"ờ":{"ha":822,"x_min":56,"x_max":789,"o":"m 789 836 q 753 707 789 761 q 654 631 718 653 q 738 513 710 583 q 767 353 767 442 q 723 160 767 243 q 599 33 679 78 q 413 -11 518 -11 q 224 33 306 -11 q 99 160 143 78 q 56 353 56 243 q 99 547 56 464 q 223 674 143 629 q 408 719 303 719 q 486 713 426 719 q 521 708 508 708 q 608 741 578 708 q 639 858 639 774 l 639 883 l 789 883 l 789 836 m 411 125 q 547 183 500 125 q 593 354 593 240 q 546 526 593 467 q 413 585 499 585 q 278 526 325 585 q 231 354 231 467 q 277 183 231 240 q 411 125 324 125 m 151 1078 l 329 1078 l 468 792 l 356 792 l 151 1078 z "},"ở":{"ha":822,"x_min":56,"x_max":789,"o":"m 789 836 q 753 707 789 761 q 654 631 718 653 q 738 513 710 583 q 767 353 767 442 q 723 160 767 243 q 599 33 679 78 q 413 -11 518 -11 q 224 33 306 -11 q 99 160 143 78 q 56 353 56 243 q 99 547 56 464 q 223 674 143 629 q 408 719 303 719 q 486 713 426 719 q 521 708 508 708 q 608 741 578 708 q 639 858 639 774 l 639 883 l 789 883 l 789 836 m 411 125 q 547 183 500 125 q 593 354 593 240 q 546 526 593 467 q 413 585 499 585 q 278 526 325 585 q 231 354 231 467 q 277 183 231 240 q 411 125 324 125 m 461 792 l 367 792 l 367 829 q 381 876 367 857 q 419 918 394 896 q 444 942 436 932 q 453 964 453 953 q 401 997 453 997 q 326 983 364 997 l 301 1056 q 418 1082 358 1082 q 531 1053 490 1082 q 572 981 572 1024 q 557 928 572 949 q 510 883 542 908 q 474 851 486 865 q 461 819 461 838 l 461 792 z "},"ỡ":{"ha":822,"x_min":56,"x_max":789,"o":"m 789 836 q 753 707 789 761 q 654 631 718 653 q 738 513 710 583 q 767 353 767 442 q 723 160 767 243 q 599 33 679 78 q 413 -11 518 -11 q 224 33 306 -11 q 99 160 143 78 q 56 353 56 243 q 99 547 56 464 q 223 674 143 629 q 408 719 303 719 q 486 713 426 719 q 521 708 508 708 q 608 741 578 708 q 639 858 639 774 l 639 883 l 789 883 l 789 836 m 411 125 q 547 183 500 125 q 593 354 593 240 q 546 526 593 467 q 413 585 499 585 q 278 526 325 585 q 231 354 231 467 q 277 183 231 240 q 411 125 324 125 m 175 844 q 214 984 175 936 q 317 1032 253 1032 q 367 1022 343 1032 q 428 989 392 1011 q 474 964 456 972 q 507 956 492 956 q 551 976 535 956 q 569 1028 567 996 l 649 1028 q 610 888 649 936 q 507 840 571 840 q 458 850 481 840 q 396 882 435 860 q 317 915 344 915 q 273 896 289 915 q 254 844 257 876 l 175 844 z "},"ő":{"ha":822,"x_min":56,"x_max":767,"o":"m 413 -11 q 224 33 306 -11 q 99 160 143 78 q 56 354 56 243 q 99 548 56 465 q 224 675 143 631 q 413 719 306 719 q 599 675 518 719 q 723 548 679 631 q 767 354 767 465 q 723 160 767 243 q 599 33 679 78 q 413 -11 518 -11 m 411 125 q 547 183 500 125 q 593 354 593 240 q 546 526 593 467 q 413 585 499 585 q 278 526 325 585 q 231 354 231 467 q 277 183 231 240 q 411 125 324 125 m 281 792 l 335 1078 l 468 1078 l 358 792 l 281 792 m 465 792 l 519 1078 l 653 1078 l 543 792 l 465 792 z "},"ȏ":{"ha":822,"x_min":56,"x_max":767,"o":"m 413 -11 q 224 33 306 -11 q 99 160 143 78 q 56 354 56 243 q 99 548 56 465 q 224 675 143 631 q 413 719 306 719 q 599 675 518 719 q 723 548 679 631 q 767 354 767 465 q 723 160 767 243 q 599 33 679 78 q 413 -11 518 -11 m 411 125 q 547 183 500 125 q 593 354 593 240 q 546 526 593 467 q 413 585 499 585 q 278 526 325 585 q 231 354 231 467 q 277 183 231 240 q 411 125 324 125 m 413 1053 q 567 1004 499 1053 q 661 860 635 956 l 574 824 q 413 940 513 940 q 250 824 311 940 l 163 860 q 257 1004 189 956 q 413 1053 325 1053 z "},"ō":{"ha":822,"x_min":56,"x_max":767,"o":"m 413 -11 q 224 33 306 -11 q 99 160 143 78 q 56 354 56 243 q 99 548 56 465 q 224 675 143 631 q 413 719 306 719 q 599 675 518 719 q 723 548 679 631 q 767 354 767 465 q 723 160 767 243 q 599 33 679 78 q 413 -11 518 -11 m 411 125 q 547 183 500 125 q 593 354 593 240 q 546 526 593 467 q 413 585 499 585 q 278 526 325 585 q 231 354 231 467 q 277 183 231 240 q 411 125 324 125 m 196 990 l 628 990 l 628 876 l 196 876 l 196 990 z "},"ṓ":{"ha":822,"x_min":56,"x_max":767,"o":"m 413 -11 q 224 33 306 -11 q 99 160 143 78 q 56 354 56 243 q 99 548 56 465 q 224 675 143 631 q 413 719 306 719 q 599 675 518 719 q 723 548 679 631 q 767 354 767 465 q 723 160 767 243 q 599 33 679 78 q 413 -11 518 -11 m 411 125 q 547 183 500 125 q 593 354 593 240 q 546 526 593 467 q 413 585 499 585 q 278 526 325 585 q 231 354 231 467 q 277 183 231 240 q 411 125 324 125 m 196 990 l 628 990 l 628 876 l 196 876 l 196 990 m 356 1060 l 494 1346 l 672 1346 l 468 1060 l 356 1060 z "},"ṑ":{"ha":822,"x_min":56,"x_max":767,"o":"m 413 -11 q 224 33 306 -11 q 99 160 143 78 q 56 354 56 243 q 99 548 56 465 q 224 675 143 631 q 413 719 306 719 q 599 675 518 719 q 723 548 679 631 q 767 354 767 465 q 723 160 767 243 q 599 33 679 78 q 413 -11 518 -11 m 411 125 q 547 183 500 125 q 593 354 593 240 q 546 526 593 467 q 413 585 499 585 q 278 526 325 585 q 231 354 231 467 q 277 183 231 240 q 411 125 324 125 m 196 990 l 628 990 l 628 876 l 196 876 l 196 990 m 151 1346 l 329 1346 l 468 1060 l 356 1060 l 151 1346 z "},"ǫ":{"ha":822,"x_min":56,"x_max":767,"o":"m 542 10 q 463 -33 489 -6 q 438 -101 438 -60 q 462 -162 438 -140 q 528 -183 486 -183 q 608 -162 565 -183 l 631 -250 q 497 -281 569 -281 q 370 -237 419 -281 q 321 -125 321 -193 q 369 -8 321 -57 q 140 103 224 6 q 56 354 56 200 q 99 548 56 465 q 224 675 143 631 q 413 719 306 719 q 599 675 518 719 q 723 548 679 631 q 767 354 767 465 q 707 132 767 224 q 542 10 647 40 m 411 125 q 547 183 500 125 q 593 354 593 240 q 546 526 593 467 q 413 585 499 585 q 278 526 325 585 q 231 354 231 467 q 277 183 231 240 q 411 125 324 125 z "},"ø":{"ha":822,"x_min":56,"x_max":767,"o":"m 640 647 q 734 524 701 599 q 767 354 767 449 q 723 160 767 243 q 599 33 679 78 q 413 -11 518 -11 q 271 13 338 -11 l 218 -79 l 131 -28 l 182 61 q 88 183 121 108 q 56 354 56 258 q 99 548 56 465 q 224 675 143 631 q 413 719 306 719 q 551 696 488 719 l 604 786 l 693 736 l 640 647 m 226 354 q 263 199 226 256 l 481 574 q 413 585 447 585 q 274 526 322 585 q 226 354 226 468 m 411 124 q 549 181 501 124 q 596 354 596 239 q 561 508 596 450 l 342 133 q 411 124 371 124 z "},"ǿ":{"ha":822,"x_min":56,"x_max":767,"o":"m 640 647 q 734 524 701 599 q 767 354 767 449 q 723 160 767 243 q 599 33 679 78 q 413 -11 518 -11 q 271 13 338 -11 l 218 -79 l 131 -28 l 182 61 q 88 183 121 108 q 56 354 56 258 q 99 548 56 465 q 224 675 143 631 q 413 719 306 719 q 551 696 488 719 l 604 786 l 693 736 l 640 647 m 226 354 q 263 199 226 256 l 481 574 q 413 585 447 585 q 274 526 322 585 q 226 354 226 468 m 411 124 q 549 181 501 124 q 596 354 596 239 q 561 508 596 450 l 342 133 q 411 124 371 124 m 356 792 l 494 1078 l 672 1078 l 468 792 l 356 792 z "},"õ":{"ha":822,"x_min":56,"x_max":767,"o":"m 413 -11 q 224 33 306 -11 q 99 160 143 78 q 56 354 56 243 q 99 548 56 465 q 224 675 143 631 q 413 719 306 719 q 599 675 518 719 q 723 548 679 631 q 767 354 767 465 q 723 160 767 243 q 599 33 679 78 q 413 -11 518 -11 m 411 125 q 547 183 500 125 q 593 354 593 240 q 546 526 593 467 q 413 585 499 585 q 278 526 325 585 q 231 354 231 467 q 277 183 231 240 q 411 125 324 125 m 175 844 q 214 984 175 936 q 317 1032 253 1032 q 367 1022 343 1032 q 428 989 392 1011 q 474 964 456 972 q 507 956 492 956 q 551 976 535 956 q 569 1028 567 996 l 649 1028 q 610 888 649 936 q 507 840 571 840 q 458 850 481 840 q 396 882 435 860 q 317 915 344 915 q 273 896 289 915 q 254 844 257 876 l 175 844 z "},"ṍ":{"ha":822,"x_min":56,"x_max":767,"o":"m 413 -11 q 224 33 306 -11 q 99 160 143 78 q 56 354 56 243 q 99 548 56 465 q 224 675 143 631 q 413 719 306 719 q 599 675 518 719 q 723 548 679 631 q 767 354 767 465 q 723 160 767 243 q 599 33 679 78 q 413 -11 518 -11 m 411 125 q 547 183 500 125 q 593 354 593 240 q 546 526 593 467 q 413 585 499 585 q 278 526 325 585 q 231 354 231 467 q 277 183 231 240 q 411 125 324 125 m 175 844 q 214 984 175 936 q 317 1032 253 1032 q 367 1022 343 1032 q 428 989 392 1011 q 474 964 456 972 q 507 956 492 956 q 551 976 535 956 q 569 1028 567 996 l 649 1028 q 610 888 649 936 q 507 840 571 840 q 458 850 481 840 q 396 882 435 860 q 317 915 344 915 q 273 896 289 915 q 254 844 257 876 l 175 844 m 356 1060 l 494 1346 l 672 1346 l 468 1060 l 356 1060 z "},"ṏ":{"ha":822,"x_min":56,"x_max":767,"o":"m 413 -11 q 224 33 306 -11 q 99 160 143 78 q 56 354 56 243 q 99 548 56 465 q 224 675 143 631 q 413 719 306 719 q 599 675 518 719 q 723 548 679 631 q 767 354 767 465 q 723 160 767 243 q 599 33 679 78 q 413 -11 518 -11 m 411 125 q 547 183 500 125 q 593 354 593 240 q 546 526 593 467 q 413 585 499 585 q 278 526 325 585 q 231 354 231 467 q 277 183 231 240 q 411 125 324 125 m 175 844 q 214 984 175 936 q 317 1032 253 1032 q 367 1022 343 1032 q 428 989 392 1011 q 474 964 456 972 q 507 956 492 956 q 551 976 535 956 q 569 1028 567 996 l 649 1028 q 610 888 649 936 q 507 840 571 840 q 458 850 481 840 q 396 882 435 860 q 317 915 344 915 q 273 896 289 915 q 254 844 257 876 l 175 844 m 367 1282 l 367 1122 l 200 1122 l 200 1282 l 367 1282 m 624 1282 l 624 1122 l 457 1122 l 457 1282 l 624 1282 z "},"ȭ":{"ha":822,"x_min":56,"x_max":767,"o":"m 413 -11 q 224 33 306 -11 q 99 160 143 78 q 56 354 56 243 q 99 548 56 465 q 224 675 143 631 q 413 719 306 719 q 599 675 518 719 q 723 548 679 631 q 767 354 767 465 q 723 160 767 243 q 599 33 679 78 q 413 -11 518 -11 m 411 125 q 547 183 500 125 q 593 354 593 240 q 546 526 593 467 q 413 585 499 585 q 278 526 325 585 q 231 354 231 467 q 277 183 231 240 q 411 125 324 125 m 175 844 q 214 984 175 936 q 317 1032 253 1032 q 367 1022 343 1032 q 428 989 392 1011 q 474 964 456 972 q 507 956 492 956 q 551 976 535 956 q 569 1028 567 996 l 649 1028 q 610 888 649 936 q 507 840 571 840 q 458 850 481 840 q 396 882 435 860 q 317 915 344 915 q 273 896 289 915 q 254 844 257 876 l 175 844 m 196 1258 l 628 1258 l 628 1144 l 196 1144 l 196 1258 z "},"œ":{"ha":1293,"x_min":56,"x_max":1239,"o":"m 1239 319 l 765 319 q 822 170 775 218 q 960 122 869 122 q 1176 197 1078 122 l 1228 78 q 1106 13 1179 38 q 958 -11 1032 -11 q 793 24 864 -11 q 679 125 722 58 q 567 24 636 58 q 408 -11 499 -11 q 223 34 303 -11 q 99 162 143 79 q 56 354 56 244 q 99 547 56 464 q 223 674 143 629 q 408 719 303 719 q 567 685 499 719 q 679 583 636 650 q 788 684 721 649 q 942 719 856 719 q 1098 676 1031 719 q 1202 553 1165 632 q 1239 368 1239 474 l 1239 319 m 938 594 q 819 547 864 594 q 767 414 775 500 l 1090 414 q 1047 549 1086 503 q 938 594 1007 594 m 410 125 q 543 183 497 125 q 589 354 589 240 q 542 526 589 467 q 410 585 496 585 q 277 526 324 585 q 231 354 231 467 q 276 183 231 240 q 410 125 322 125 z "},"p":{"ha":861,"x_min":83,"x_max":804,"o":"m 494 719 q 655 673 585 719 q 765 542 725 626 q 804 350 804 458 q 765 160 804 242 q 656 33 726 78 q 494 -11 586 -11 q 358 22 418 -11 q 267 113 299 54 l 267 -300 l 94 -300 l 94 503 q 83 701 94 614 l 246 701 l 260 581 q 350 683 288 646 q 494 719 413 719 m 447 125 q 582 183 535 125 q 629 350 629 242 q 582 522 629 460 q 449 583 535 583 q 313 524 360 583 q 265 353 265 464 q 313 184 265 243 q 447 125 360 125 z "},"þ":{"ha":861,"x_min":94,"x_max":804,"o":"m 494 719 q 655 674 585 719 q 765 544 725 628 q 804 350 804 460 q 765 159 804 240 q 655 33 725 78 q 494 -11 585 -11 q 358 22 418 -11 q 267 113 299 54 l 267 -300 l 94 -300 l 94 1022 l 267 1022 l 267 596 q 358 687 299 654 q 494 719 418 719 m 447 125 q 582 183 535 125 q 629 350 629 242 q 582 522 629 460 q 449 583 535 583 q 313 524 360 583 q 265 353 265 464 q 313 184 265 243 q 447 125 360 125 z "},"q":{"ha":860,"x_min":56,"x_max":778,"o":"m 778 701 q 765 503 765 618 l 765 -300 l 592 -300 l 592 107 q 501 19 560 50 q 367 -11 442 -11 q 204 33 275 -11 q 94 160 133 78 q 56 350 56 242 q 95 542 56 458 q 206 673 135 626 q 367 719 276 719 q 510 683 447 719 q 601 582 572 647 l 614 701 l 778 701 m 414 125 q 547 185 500 125 q 594 353 594 244 q 547 524 594 464 q 413 583 500 583 q 278 522 326 583 q 231 350 231 460 q 278 183 231 242 q 414 125 326 125 z "},"r":{"ha":544,"x_min":83,"x_max":542,"o":"m 472 718 q 542 707 513 718 l 540 549 q 449 567 496 567 q 313 515 360 567 q 267 379 267 464 l 267 0 l 94 0 l 94 503 q 83 701 94 614 l 246 701 l 260 578 q 343 682 286 646 q 472 718 400 718 z "},"ŕ":{"ha":544,"x_min":83,"x_max":583,"o":"m 472 718 q 542 707 513 718 l 540 549 q 449 567 496 567 q 313 515 360 567 q 267 379 267 464 l 267 0 l 94 0 l 94 503 q 83 701 94 614 l 246 701 l 260 578 q 343 682 286 646 q 472 718 400 718 m 267 792 l 406 1078 l 583 1078 l 379 792 l 267 792 z "},"ř":{"ha":544,"x_min":83,"x_max":553,"o":"m 472 718 q 542 707 513 718 l 540 549 q 449 567 496 567 q 313 515 360 567 q 267 379 267 464 l 267 0 l 94 0 l 94 503 q 83 701 94 614 l 246 701 l 260 578 q 343 682 286 646 q 472 718 400 718 m 553 1078 l 378 792 l 268 792 l 93 1078 l 235 1078 l 324 900 l 411 1078 l 553 1078 z "},"ŗ":{"ha":544,"x_min":83,"x_max":542,"o":"m 472 718 q 542 707 513 718 l 540 549 q 449 567 496 567 q 313 515 360 567 q 267 379 267 464 l 267 0 l 94 0 l 94 503 q 83 701 94 614 l 246 701 l 260 578 q 343 682 286 646 q 472 718 400 718 m 271 -96 l 271 -182 q 253 -290 271 -243 q 192 -378 236 -337 l 125 -331 q 174 -239 167 -289 l 89 -239 l 89 -96 l 271 -96 z "},"ȑ":{"ha":544,"x_min":82,"x_max":542,"o":"m 472 718 q 542 707 513 718 l 540 549 q 449 567 496 567 q 313 515 360 567 q 267 379 267 464 l 267 0 l 94 0 l 94 503 q 83 701 94 614 l 246 701 l 260 578 q 343 682 286 646 q 472 718 400 718 m 82 1078 l 215 1078 l 269 792 l 192 792 l 82 1078 m 267 1078 l 400 1078 l 454 792 l 376 792 l 267 1078 z "},"ṛ":{"ha":544,"x_min":83,"x_max":542,"o":"m 472 718 q 542 707 513 718 l 540 549 q 449 567 496 567 q 313 515 360 567 q 267 379 267 464 l 267 0 l 94 0 l 94 503 q 83 701 94 614 l 246 701 l 260 578 q 343 682 286 646 q 472 718 400 718 m 264 -108 l 264 -271 l 96 -271 l 96 -108 l 264 -108 z "},"ȓ":{"ha":544,"x_min":74,"x_max":572,"o":"m 472 718 q 542 707 513 718 l 540 549 q 449 567 496 567 q 313 515 360 567 q 267 379 267 464 l 267 0 l 94 0 l 94 503 q 83 701 94 614 l 246 701 l 260 578 q 343 682 286 646 q 472 718 400 718 m 324 1053 q 478 1004 410 1053 q 572 860 546 956 l 485 824 q 324 940 424 940 q 161 824 222 940 l 74 860 q 168 1004 100 956 q 324 1053 236 1053 z "},"ṟ":{"ha":544,"x_min":-36,"x_max":542,"o":"m 472 718 q 542 707 513 718 l 540 549 q 449 567 496 567 q 313 515 360 567 q 267 379 267 464 l 267 0 l 94 0 l 94 503 q 83 701 94 614 l 246 701 l 260 578 q 343 682 286 646 q 472 718 400 718 m -36 -136 l 396 -136 l 396 -244 l -36 -244 l -36 -136 z "},"s":{"ha":696,"x_min":49,"x_max":642,"o":"m 351 -11 q 49 78 161 -11 l 97 200 q 354 117 210 117 q 451 138 417 117 q 485 196 485 158 q 461 247 485 228 q 381 279 438 265 l 264 306 q 72 501 72 347 q 108 615 72 565 q 210 692 144 664 q 361 719 275 719 q 506 697 436 719 q 628 631 575 674 l 576 513 q 360 590 471 590 q 267 568 300 590 q 233 507 233 546 q 253 458 233 476 q 322 428 274 440 l 442 401 q 594 328 546 378 q 642 200 642 279 q 564 46 642 103 q 351 -11 486 -11 z "},"ś":{"ha":696,"x_min":49,"x_max":642,"o":"m 351 -11 q 49 78 161 -11 l 97 200 q 354 117 210 117 q 451 138 417 117 q 485 196 485 158 q 461 247 485 228 q 381 279 438 265 l 264 306 q 72 501 72 347 q 108 615 72 565 q 210 692 144 664 q 361 719 275 719 q 506 697 436 719 q 628 631 575 674 l 576 513 q 360 590 471 590 q 267 568 300 590 q 233 507 233 546 q 253 458 233 476 q 322 428 274 440 l 442 401 q 594 328 546 378 q 642 200 642 279 q 564 46 642 103 q 351 -11 486 -11 m 303 792 l 442 1078 l 619 1078 l 415 792 l 303 792 z "},"ṥ":{"ha":696,"x_min":49,"x_max":642,"o":"m 351 -11 q 49 78 161 -11 l 97 200 q 354 117 210 117 q 451 138 417 117 q 485 196 485 158 q 461 247 485 228 q 381 279 438 265 l 264 306 q 72 501 72 347 q 108 615 72 565 q 210 692 144 664 q 361 719 275 719 q 506 697 436 719 q 628 631 575 674 l 576 513 q 360 590 471 590 q 267 568 300 590 q 233 507 233 546 q 253 458 233 476 q 322 428 274 440 l 442 401 q 594 328 546 378 q 642 200 642 279 q 564 46 642 103 q 351 -11 486 -11 m 317 781 l 456 1067 l 633 1067 l 429 781 l 317 781 m 310 1063 l 310 892 l 117 892 l 117 1063 l 310 1063 z "},"š":{"ha":696,"x_min":49,"x_max":642,"o":"m 351 -11 q 49 78 161 -11 l 97 200 q 354 117 210 117 q 451 138 417 117 q 485 196 485 158 q 461 247 485 228 q 381 279 438 265 l 264 306 q 72 501 72 347 q 108 615 72 565 q 210 692 144 664 q 361 719 275 719 q 506 697 436 719 q 628 631 575 674 l 576 513 q 360 590 471 590 q 267 568 300 590 q 233 507 233 546 q 253 458 233 476 q 322 428 274 440 l 442 401 q 594 328 546 378 q 642 200 642 279 q 564 46 642 103 q 351 -11 486 -11 m 589 1078 l 414 792 l 304 792 l 129 1078 l 271 1078 l 360 900 l 447 1078 l 589 1078 z "},"ṧ":{"ha":696,"x_min":49,"x_max":642,"o":"m 351 -11 q 49 78 161 -11 l 97 200 q 354 117 210 117 q 451 138 417 117 q 485 196 485 158 q 461 247 485 228 q 381 279 438 265 l 264 306 q 72 501 72 347 q 108 615 72 565 q 210 692 144 664 q 361 719 275 719 q 506 697 436 719 q 628 631 575 674 l 576 513 q 360 590 471 590 q 267 568 300 590 q 233 507 233 546 q 253 458 233 476 q 322 428 274 440 l 442 401 q 594 328 546 378 q 642 200 642 279 q 564 46 642 103 q 351 -11 486 -11 m 589 1078 l 414 792 l 304 792 l 129 1078 l 271 1078 l 360 900 l 447 1078 l 589 1078 m 456 1288 l 456 1117 l 263 1117 l 263 1288 l 456 1288 z "},"ş":{"ha":696,"x_min":49,"x_max":642,"o":"m 642 200 q 573 52 642 108 q 382 -10 504 -4 l 376 -57 q 400 -56 385 -56 q 481 -81 450 -56 q 513 -153 513 -107 q 465 -240 513 -207 q 333 -274 418 -274 q 267 -267 303 -274 q 206 -249 232 -261 l 222 -175 q 331 -194 282 -194 q 400 -153 400 -194 q 353 -122 400 -122 q 297 -132 333 -122 l 271 -106 l 282 -8 q 49 78 139 7 l 97 200 q 354 117 210 117 q 451 138 417 117 q 485 196 485 158 q 461 247 485 228 q 381 279 438 265 l 264 306 q 72 501 72 347 q 108 615 72 565 q 210 692 144 664 q 361 719 275 719 q 506 697 436 719 q 628 631 575 674 l 576 513 q 360 590 471 590 q 267 568 300 590 q 233 507 233 546 q 253 458 233 476 q 322 428 274 440 l 442 401 q 594 328 546 378 q 642 200 642 279 z "},"ŝ":{"ha":696,"x_min":49,"x_max":642,"o":"m 351 -11 q 49 78 161 -11 l 97 200 q 354 117 210 117 q 451 138 417 117 q 485 196 485 158 q 461 247 485 228 q 381 279 438 265 l 264 306 q 72 501 72 347 q 108 615 72 565 q 210 692 144 664 q 361 719 275 719 q 506 697 436 719 q 628 631 575 674 l 576 513 q 360 590 471 590 q 267 568 300 590 q 233 507 233 546 q 253 458 233 476 q 322 428 274 440 l 442 401 q 594 328 546 378 q 642 200 642 279 q 564 46 642 103 q 351 -11 486 -11 m 129 792 l 304 1078 l 414 1078 l 589 792 l 447 792 l 360 969 l 271 792 l 129 792 z "},"ș":{"ha":696,"x_min":49,"x_max":642,"o":"m 351 -11 q 49 78 161 -11 l 97 200 q 354 117 210 117 q 451 138 417 117 q 485 196 485 158 q 461 247 485 228 q 381 279 438 265 l 264 306 q 72 501 72 347 q 108 615 72 565 q 210 692 144 664 q 361 719 275 719 q 506 697 436 719 q 628 631 575 674 l 576 513 q 360 590 471 590 q 267 568 300 590 q 233 507 233 546 q 253 458 233 476 q 322 428 274 440 l 442 401 q 594 328 546 378 q 642 200 642 279 q 564 46 642 103 q 351 -11 486 -11 m 438 -96 l 438 -182 q 420 -290 438 -243 q 358 -378 403 -337 l 292 -331 q 340 -239 333 -289 l 256 -239 l 256 -96 l 438 -96 z "},"ṡ":{"ha":696,"x_min":49,"x_max":642,"o":"m 351 -11 q 49 78 161 -11 l 97 200 q 354 117 210 117 q 451 138 417 117 q 485 196 485 158 q 461 247 485 228 q 381 279 438 265 l 264 306 q 72 501 72 347 q 108 615 72 565 q 210 692 144 664 q 361 719 275 719 q 506 697 436 719 q 628 631 575 674 l 576 513 q 360 590 471 590 q 267 568 300 590 q 233 507 233 546 q 253 458 233 476 q 322 428 274 440 l 442 401 q 594 328 546 378 q 642 200 642 279 q 564 46 642 103 q 351 -11 486 -11 m 456 1019 l 456 849 l 263 849 l 263 1019 l 456 1019 z "},"ṣ":{"ha":696,"x_min":49,"x_max":642,"o":"m 351 -11 q 49 78 161 -11 l 97 200 q 354 117 210 117 q 451 138 417 117 q 485 196 485 158 q 461 247 485 228 q 381 279 438 265 l 264 306 q 72 501 72 347 q 108 615 72 565 q 210 692 144 664 q 361 719 275 719 q 506 697 436 719 q 628 631 575 674 l 576 513 q 360 590 471 590 q 267 568 300 590 q 233 507 233 546 q 253 458 233 476 q 322 428 274 440 l 442 401 q 594 328 546 378 q 642 200 642 279 q 564 46 642 103 q 351 -11 486 -11 m 431 -108 l 431 -271 l 263 -271 l 263 -108 l 431 -108 z "},"ṩ":{"ha":696,"x_min":49,"x_max":642,"o":"m 351 -11 q 49 78 161 -11 l 97 200 q 354 117 210 117 q 451 138 417 117 q 485 196 485 158 q 461 247 485 228 q 381 279 438 265 l 264 306 q 72 501 72 347 q 108 615 72 565 q 210 692 144 664 q 361 719 275 719 q 506 697 436 719 q 628 631 575 674 l 576 513 q 360 590 471 590 q 267 568 300 590 q 233 507 233 546 q 253 458 233 476 q 322 428 274 440 l 442 401 q 594 328 546 378 q 642 200 642 279 q 564 46 642 103 q 351 -11 486 -11 m 431 -108 l 431 -271 l 263 -271 l 263 -108 l 431 -108 m 456 1019 l 456 849 l 263 849 l 263 1019 l 456 1019 z "},"ß":{"ha":935,"x_min":94,"x_max":900,"o":"m 576 521 q 822 406 744 478 q 900 224 900 335 q 823 53 900 117 q 615 -11 746 -11 q 462 12 533 -11 q 342 78 390 35 l 392 203 q 615 121 496 121 q 708 150 676 121 q 739 231 739 179 q 663 348 739 297 q 410 443 588 399 l 410 572 q 569 660 524 611 q 615 776 615 708 q 577 872 615 839 q 468 904 539 904 q 318 849 369 904 q 267 682 267 793 l 267 0 l 94 0 l 94 658 q 190 937 94 842 q 467 1032 286 1032 q 695 967 613 1032 q 778 783 778 901 q 733 633 778 697 q 576 521 689 568 z "},"t":{"ha":526,"x_min":7,"x_max":501,"o":"m 315 571 l 315 257 q 431 133 315 133 q 500 144 463 133 l 500 7 q 389 -10 454 -10 q 206 57 269 -10 q 142 249 142 124 l 142 571 l 7 571 l 7 701 l 142 701 l 142 872 l 315 931 l 315 701 l 501 701 l 501 571 l 315 571 z "},"ŧ":{"ha":542,"x_min":14,"x_max":510,"o":"m 324 571 l 324 463 l 481 463 l 481 338 l 324 338 l 324 257 q 438 133 324 133 q 508 144 469 133 l 508 7 q 396 -10 463 -10 q 213 57 276 -10 q 149 249 149 124 l 149 338 l 43 338 l 43 463 l 149 463 l 149 571 l 14 571 l 14 701 l 149 701 l 149 872 l 324 931 l 324 701 l 510 701 l 510 571 l 324 571 z "},"ť":{"ha":526,"x_min":7,"x_max":514,"o":"m 474 749 l 378 749 l 378 992 l 514 992 l 474 749 m 315 701 l 501 701 l 501 571 l 315 571 l 315 257 q 431 133 315 133 q 500 144 463 133 l 500 7 q 389 -10 454 -10 q 206 57 269 -10 q 142 249 142 124 l 142 571 l 7 571 l 7 701 l 142 701 l 142 872 l 315 931 l 315 701 z "},"ţ":{"ha":526,"x_min":7,"x_max":501,"o":"m 315 571 l 315 257 q 431 133 315 133 q 500 144 463 133 l 500 7 q 389 -10 454 -10 l 369 -10 l 364 -57 q 388 -56 372 -56 q 469 -81 438 -56 q 500 -153 500 -107 q 453 -240 500 -207 q 321 -274 406 -274 q 255 -267 290 -274 q 193 -249 219 -261 l 210 -175 q 318 -194 269 -194 q 388 -153 388 -194 q 340 -122 388 -122 q 285 -132 321 -122 l 258 -106 l 272 13 q 175 100 208 40 q 142 249 142 160 l 142 571 l 7 571 l 7 701 l 142 701 l 142 872 l 315 931 l 315 701 l 501 701 l 501 571 l 315 571 z "},"ț":{"ha":526,"x_min":7,"x_max":501,"o":"m 315 571 l 315 257 q 431 133 315 133 q 500 144 463 133 l 500 7 q 389 -10 454 -10 q 206 57 269 -10 q 142 249 142 124 l 142 571 l 7 571 l 7 701 l 142 701 l 142 872 l 315 931 l 315 701 l 501 701 l 501 571 l 315 571 m 425 -96 l 425 -182 q 408 -290 425 -243 q 346 -378 390 -337 l 279 -331 q 328 -239 321 -289 l 243 -239 l 243 -96 l 425 -96 z "},"ẗ":{"ha":526,"x_min":7,"x_max":501,"o":"m 315 571 l 315 257 q 431 133 315 133 q 500 144 463 133 l 500 7 q 389 -10 454 -10 q 206 57 269 -10 q 142 249 142 124 l 142 571 l 7 571 l 7 701 l 142 701 l 142 872 l 315 931 l 315 701 l 501 701 l 501 571 l 315 571 m 183 1185 l 183 1025 l 17 1025 l 17 1185 l 183 1185 m 440 1185 l 440 1025 l 274 1025 l 274 1185 l 440 1185 z "},"ṭ":{"ha":526,"x_min":7,"x_max":501,"o":"m 315 571 l 315 257 q 431 133 315 133 q 500 144 463 133 l 500 7 q 389 -10 454 -10 q 206 57 269 -10 q 142 249 142 124 l 142 571 l 7 571 l 7 701 l 142 701 l 142 872 l 315 931 l 315 701 l 501 701 l 501 571 l 315 571 m 418 -108 l 418 -271 l 250 -271 l 250 -108 l 418 -108 z "},"ṯ":{"ha":526,"x_min":7,"x_max":550,"o":"m 315 571 l 315 257 q 431 133 315 133 q 500 144 463 133 l 500 7 q 389 -10 454 -10 q 206 57 269 -10 q 142 249 142 124 l 142 571 l 7 571 l 7 701 l 142 701 l 142 872 l 315 931 l 315 701 l 501 701 l 501 571 l 315 571 m 118 -136 l 550 -136 l 550 -244 l 118 -244 l 118 -136 z "},"u":{"ha":828,"x_min":90,"x_max":733,"o":"m 733 701 l 733 0 l 564 0 l 564 108 q 475 19 531 50 q 347 -11 419 -11 q 90 278 90 -11 l 90 701 l 263 701 l 263 276 q 294 164 263 200 q 390 128 325 128 q 513 178 467 128 q 558 311 558 228 l 558 701 l 733 701 z "},"ú":{"ha":828,"x_min":90,"x_max":733,"o":"m 733 701 l 733 0 l 564 0 l 564 108 q 475 19 531 50 q 347 -11 419 -11 q 90 278 90 -11 l 90 701 l 263 701 l 263 276 q 294 164 263 200 q 390 128 325 128 q 513 178 467 128 q 558 311 558 228 l 558 701 l 733 701 m 356 792 l 494 1078 l 672 1078 l 468 792 l 356 792 z "},"ŭ":{"ha":828,"x_min":90,"x_max":733,"o":"m 733 701 l 733 0 l 564 0 l 564 108 q 475 19 531 50 q 347 -11 419 -11 q 90 278 90 -11 l 90 701 l 263 701 l 263 276 q 294 164 263 200 q 390 128 325 128 q 513 178 467 128 q 558 311 558 228 l 558 701 l 733 701 m 413 828 q 258 876 326 828 q 163 1019 189 924 l 250 1058 q 413 942 310 942 q 574 1058 514 942 l 661 1021 q 567 876 635 925 q 413 828 499 828 z "},"û":{"ha":828,"x_min":90,"x_max":733,"o":"m 733 701 l 733 0 l 564 0 l 564 108 q 475 19 531 50 q 347 -11 419 -11 q 90 278 90 -11 l 90 701 l 263 701 l 263 276 q 294 164 263 200 q 390 128 325 128 q 513 178 467 128 q 558 311 558 228 l 558 701 l 733 701 m 182 792 l 357 1078 l 467 1078 l 642 792 l 500 792 l 413 969 l 324 792 l 182 792 z "},"ȕ":{"ha":828,"x_min":90,"x_max":733,"o":"m 733 701 l 733 0 l 564 0 l 564 108 q 475 19 531 50 q 347 -11 419 -11 q 90 278 90 -11 l 90 701 l 263 701 l 263 276 q 294 164 263 200 q 390 128 325 128 q 513 178 467 128 q 558 311 558 228 l 558 701 l 733 701 m 171 1078 l 304 1078 l 358 792 l 281 792 l 171 1078 m 356 1078 l 489 1078 l 543 792 l 465 792 l 356 1078 z "},"ü":{"ha":828,"x_min":90,"x_max":733,"o":"m 733 701 l 733 0 l 564 0 l 564 108 q 475 19 531 50 q 347 -11 419 -11 q 90 278 90 -11 l 90 701 l 263 701 l 263 276 q 294 164 263 200 q 390 128 325 128 q 513 178 467 128 q 558 311 558 228 l 558 701 l 733 701 m 367 1014 l 367 854 l 200 854 l 200 1014 l 367 1014 m 624 1014 l 624 854 l 457 854 l 457 1014 l 624 1014 z "},"ụ":{"ha":828,"x_min":90,"x_max":733,"o":"m 733 701 l 733 0 l 564 0 l 564 108 q 475 19 531 50 q 347 -11 419 -11 q 90 278 90 -11 l 90 701 l 263 701 l 263 276 q 294 164 263 200 q 390 128 325 128 q 513 178 467 128 q 558 311 558 228 l 558 701 l 733 701 m 496 -108 l 496 -271 l 328 -271 l 328 -108 l 496 -108 z "},"ù":{"ha":828,"x_min":90,"x_max":733,"o":"m 733 701 l 733 0 l 564 0 l 564 108 q 475 19 531 50 q 347 -11 419 -11 q 90 278 90 -11 l 90 701 l 263 701 l 263 276 q 294 164 263 200 q 390 128 325 128 q 513 178 467 128 q 558 311 558 228 l 558 701 l 733 701 m 151 1078 l 329 1078 l 468 792 l 356 792 l 151 1078 z "},"ủ":{"ha":828,"x_min":90,"x_max":733,"o":"m 733 701 l 733 0 l 564 0 l 564 108 q 475 19 531 50 q 347 -11 419 -11 q 90 278 90 -11 l 90 701 l 263 701 l 263 276 q 294 164 263 200 q 390 128 325 128 q 513 178 467 128 q 558 311 558 228 l 558 701 l 733 701 m 461 792 l 367 792 l 367 829 q 381 876 367 857 q 419 918 394 896 q 444 942 436 932 q 453 964 453 953 q 401 997 453 997 q 326 983 364 997 l 301 1056 q 418 1082 358 1082 q 531 1053 490 1082 q 572 981 572 1024 q 557 928 572 949 q 510 883 542 908 q 474 851 486 865 q 461 819 461 838 l 461 792 z "},"ư":{"ha":856,"x_min":90,"x_max":897,"o":"m 897 883 l 897 836 q 853 694 897 751 q 733 621 810 636 l 733 0 l 564 0 l 564 108 q 475 19 531 50 q 347 -11 419 -11 q 90 278 90 -11 l 90 701 l 263 701 l 263 276 q 294 164 263 200 q 390 128 325 128 q 513 178 467 128 q 558 311 558 228 l 558 701 l 608 701 q 714 738 682 701 q 746 858 746 774 l 746 883 l 897 883 z "},"ứ":{"ha":856,"x_min":90,"x_max":897,"o":"m 897 883 l 897 836 q 853 694 897 751 q 733 621 810 636 l 733 0 l 564 0 l 564 108 q 475 19 531 50 q 347 -11 419 -11 q 90 278 90 -11 l 90 701 l 263 701 l 263 276 q 294 164 263 200 q 390 128 325 128 q 513 178 467 128 q 558 311 558 228 l 558 701 l 608 701 q 714 738 682 701 q 746 858 746 774 l 746 883 l 897 883 m 356 792 l 494 1078 l 672 1078 l 468 792 l 356 792 z "},"ự":{"ha":856,"x_min":90,"x_max":897,"o":"m 897 883 l 897 836 q 853 694 897 751 q 733 621 810 636 l 733 0 l 564 0 l 564 108 q 475 19 531 50 q 347 -11 419 -11 q 90 278 90 -11 l 90 701 l 263 701 l 263 276 q 294 164 263 200 q 390 128 325 128 q 513 178 467 128 q 558 311 558 228 l 558 701 l 608 701 q 714 738 682 701 q 746 858 746 774 l 746 883 l 897 883 m 496 -108 l 496 -271 l 328 -271 l 328 -108 l 496 -108 z "},"ừ":{"ha":856,"x_min":90,"x_max":897,"o":"m 897 883 l 897 836 q 853 694 897 751 q 733 621 810 636 l 733 0 l 564 0 l 564 108 q 475 19 531 50 q 347 -11 419 -11 q 90 278 90 -11 l 90 701 l 263 701 l 263 276 q 294 164 263 200 q 390 128 325 128 q 513 178 467 128 q 558 311 558 228 l 558 701 l 608 701 q 714 738 682 701 q 746 858 746 774 l 746 883 l 897 883 m 151 1078 l 329 1078 l 468 792 l 356 792 l 151 1078 z "},"ử":{"ha":856,"x_min":90,"x_max":897,"o":"m 897 883 l 897 836 q 853 694 897 751 q 733 621 810 636 l 733 0 l 564 0 l 564 108 q 475 19 531 50 q 347 -11 419 -11 q 90 278 90 -11 l 90 701 l 263 701 l 263 276 q 294 164 263 200 q 390 128 325 128 q 513 178 467 128 q 558 311 558 228 l 558 701 l 608 701 q 714 738 682 701 q 746 858 746 774 l 746 883 l 897 883 m 461 792 l 367 792 l 367 829 q 381 876 367 857 q 419 918 394 896 q 444 942 436 932 q 453 964 453 953 q 401 997 453 997 q 326 983 364 997 l 301 1056 q 418 1082 358 1082 q 531 1053 490 1082 q 572 981 572 1024 q 557 928 572 949 q 510 883 542 908 q 474 851 486 865 q 461 819 461 838 l 461 792 z "},"ữ":{"ha":856,"x_min":90,"x_max":897,"o":"m 897 883 l 897 836 q 853 694 897 751 q 733 621 810 636 l 733 0 l 564 0 l 564 108 q 475 19 531 50 q 347 -11 419 -11 q 90 278 90 -11 l 90 701 l 263 701 l 263 276 q 294 164 263 200 q 390 128 325 128 q 513 178 467 128 q 558 311 558 228 l 558 701 l 608 701 q 714 738 682 701 q 746 858 746 774 l 746 883 l 897 883 m 175 844 q 214 984 175 936 q 317 1032 253 1032 q 367 1022 343 1032 q 428 989 392 1011 q 474 964 456 972 q 507 956 492 956 q 551 976 535 956 q 569 1028 567 996 l 649 1028 q 610 888 649 936 q 507 840 571 840 q 458 850 481 840 q 396 882 435 860 q 317 915 344 915 q 273 896 289 915 q 254 844 257 876 l 175 844 z "},"ű":{"ha":828,"x_min":90,"x_max":733,"o":"m 733 701 l 733 0 l 564 0 l 564 108 q 475 19 531 50 q 347 -11 419 -11 q 90 278 90 -11 l 90 701 l 263 701 l 263 276 q 294 164 263 200 q 390 128 325 128 q 513 178 467 128 q 558 311 558 228 l 558 701 l 733 701 m 281 792 l 335 1078 l 468 1078 l 358 792 l 281 792 m 465 792 l 519 1078 l 653 1078 l 543 792 l 465 792 z "},"ȗ":{"ha":828,"x_min":90,"x_max":733,"o":"m 733 701 l 733 0 l 564 0 l 564 108 q 475 19 531 50 q 347 -11 419 -11 q 90 278 90 -11 l 90 701 l 263 701 l 263 276 q 294 164 263 200 q 390 128 325 128 q 513 178 467 128 q 558 311 558 228 l 558 701 l 733 701 m 413 1053 q 567 1004 499 1053 q 661 860 635 956 l 574 824 q 413 940 513 940 q 250 824 311 940 l 163 860 q 257 1004 189 956 q 413 1053 325 1053 z "},"ū":{"ha":828,"x_min":90,"x_max":733,"o":"m 733 701 l 733 0 l 564 0 l 564 108 q 475 19 531 50 q 347 -11 419 -11 q 90 278 90 -11 l 90 701 l 263 701 l 263 276 q 294 164 263 200 q 390 128 325 128 q 513 178 467 128 q 558 311 558 228 l 558 701 l 733 701 m 196 990 l 628 990 l 628 876 l 196 876 l 196 990 z "},"ṻ":{"ha":828,"x_min":90,"x_max":733,"o":"m 733 701 l 733 0 l 564 0 l 564 108 q 475 19 531 50 q 347 -11 419 -11 q 90 278 90 -11 l 90 701 l 263 701 l 263 276 q 294 164 263 200 q 390 128 325 128 q 513 178 467 128 q 558 311 558 228 l 558 701 l 733 701 m 196 990 l 628 990 l 628 876 l 196 876 l 196 990 m 367 1282 l 367 1122 l 200 1122 l 200 1282 l 367 1282 m 624 1282 l 624 1122 l 457 1122 l 457 1282 l 624 1282 z "},"ų":{"ha":828,"x_min":90,"x_max":792,"o":"m 792 -250 q 657 -281 731 -281 q 530 -237 579 -281 q 481 -124 481 -193 q 502 -42 481 -79 q 564 22 524 -4 l 564 108 q 475 19 531 50 q 347 -11 419 -11 q 90 278 90 -11 l 90 701 l 263 701 l 263 276 q 294 164 263 200 q 390 128 325 128 q 513 178 467 128 q 558 311 558 228 l 558 701 l 733 701 l 733 0 l 722 0 q 633 -28 667 0 q 599 -101 599 -56 q 622 -162 599 -140 q 689 -183 646 -183 q 767 -162 728 -183 l 792 -250 z "},"ů":{"ha":828,"x_min":90,"x_max":733,"o":"m 733 701 l 733 0 l 564 0 l 564 108 q 475 19 531 50 q 347 -11 419 -11 q 90 278 90 -11 l 90 701 l 263 701 l 263 276 q 294 164 263 200 q 390 128 325 128 q 513 178 467 128 q 558 311 558 228 l 558 701 l 733 701 m 413 789 q 306 831 350 789 q 263 936 263 874 q 306 1038 263 996 q 413 1081 350 1081 q 517 1038 474 1081 q 561 936 561 996 q 518 831 561 874 q 413 789 475 789 m 413 868 q 457 888 439 868 q 475 936 475 907 q 457 983 475 964 q 413 1001 439 1001 q 367 983 385 1001 q 349 936 349 964 q 367 888 349 907 q 413 868 385 868 z "},"ũ":{"ha":828,"x_min":90,"x_max":733,"o":"m 733 701 l 733 0 l 564 0 l 564 108 q 475 19 531 50 q 347 -11 419 -11 q 90 278 90 -11 l 90 701 l 263 701 l 263 276 q 294 164 263 200 q 390 128 325 128 q 513 178 467 128 q 558 311 558 228 l 558 701 l 733 701 m 175 844 q 214 984 175 936 q 317 1032 253 1032 q 367 1022 343 1032 q 428 989 392 1011 q 474 964 456 972 q 507 956 492 956 q 551 976 535 956 q 569 1028 567 996 l 649 1028 q 610 888 649 936 q 507 840 571 840 q 458 850 481 840 q 396 882 435 860 q 317 915 344 915 q 273 896 289 915 q 254 844 257 876 l 175 844 z "},"ṹ":{"ha":828,"x_min":90,"x_max":733,"o":"m 733 701 l 733 0 l 564 0 l 564 108 q 475 19 531 50 q 347 -11 419 -11 q 90 278 90 -11 l 90 701 l 263 701 l 263 276 q 294 164 263 200 q 390 128 325 128 q 513 178 467 128 q 558 311 558 228 l 558 701 l 733 701 m 175 844 q 214 984 175 936 q 317 1032 253 1032 q 367 1022 343 1032 q 428 989 392 1011 q 474 964 456 972 q 507 956 492 956 q 551 976 535 956 q 569 1028 567 996 l 649 1028 q 610 888 649 936 q 507 840 571 840 q 458 850 481 840 q 396 882 435 860 q 317 915 344 915 q 273 896 289 915 q 254 844 257 876 l 175 844 m 356 1060 l 494 1346 l 672 1346 l 468 1060 l 356 1060 z "},"v":{"ha":754,"x_min":-3,"x_max":758,"o":"m 758 700 l 451 0 l 300 0 l -3 700 l 179 700 l 381 197 l 586 700 l 758 700 z "},"w":{"ha":1226,"x_min":14,"x_max":1211,"o":"m 1211 701 l 936 0 l 785 0 l 611 460 l 442 0 l 289 0 l 14 701 l 192 701 l 372 207 l 554 701 l 679 701 l 861 203 l 1042 701 l 1211 701 z "},"ẃ":{"ha":1226,"x_min":14,"x_max":1211,"o":"m 1211 701 l 936 0 l 785 0 l 611 460 l 442 0 l 289 0 l 14 701 l 192 701 l 372 207 l 554 701 l 679 701 l 861 203 l 1042 701 l 1211 701 m 556 792 l 694 1078 l 872 1078 l 668 792 l 556 792 z "},"ŵ":{"ha":1226,"x_min":14,"x_max":1211,"o":"m 1211 701 l 936 0 l 785 0 l 611 460 l 442 0 l 289 0 l 14 701 l 192 701 l 372 207 l 554 701 l 679 701 l 861 203 l 1042 701 l 1211 701 m 382 792 l 557 1078 l 667 1078 l 842 792 l 700 792 l 613 969 l 524 792 l 382 792 z "},"ẅ":{"ha":1226,"x_min":14,"x_max":1211,"o":"m 1211 701 l 936 0 l 785 0 l 611 460 l 442 0 l 289 0 l 14 701 l 192 701 l 372 207 l 554 701 l 679 701 l 861 203 l 1042 701 l 1211 701 m 567 1014 l 567 854 l 400 854 l 400 1014 l 567 1014 m 824 1014 l 824 854 l 657 854 l 657 1014 l 824 1014 z "},"ẁ":{"ha":1226,"x_min":14,"x_max":1211,"o":"m 1211 701 l 936 0 l 785 0 l 611 460 l 442 0 l 289 0 l 14 701 l 192 701 l 372 207 l 554 701 l 679 701 l 861 203 l 1042 701 l 1211 701 m 351 1078 l 529 1078 l 668 792 l 556 792 l 351 1078 z "},"x":{"ha":763,"x_min":-14,"x_max":776,"o":"m 776 0 l 569 0 l 381 238 l 192 0 l -14 0 l 281 361 l 4 701 l 210 701 l 381 483 l 551 701 l 758 701 l 482 361 l 776 0 z "},"y":{"ha":754,"x_min":-3,"x_max":758,"o":"m 758 701 l 432 -47 q 290 -237 376 -178 q 78 -317 204 -297 l 39 -183 q 187 -127 138 -161 q 267 -26 236 -93 l 289 25 l -3 701 l 179 701 l 381 197 l 586 701 l 758 701 z "},"ý":{"ha":754,"x_min":-3,"x_max":758,"o":"m 758 701 l 432 -47 q 290 -237 376 -178 q 78 -317 204 -297 l 39 -183 q 187 -127 138 -161 q 267 -26 236 -93 l 289 25 l -3 701 l 179 701 l 381 197 l 586 701 l 758 701 m 321 792 l 460 1078 l 638 1078 l 433 792 l 321 792 z "},"ŷ":{"ha":754,"x_min":-3,"x_max":758,"o":"m 758 701 l 432 -47 q 290 -237 376 -178 q 78 -317 204 -297 l 39 -183 q 187 -127 138 -161 q 267 -26 236 -93 l 289 25 l -3 701 l 179 701 l 381 197 l 586 701 l 758 701 m 147 792 l 322 1078 l 432 1078 l 607 792 l 465 792 l 378 969 l 289 792 l 147 792 z "},"ÿ":{"ha":754,"x_min":-3,"x_max":758,"o":"m 758 701 l 432 -47 q 290 -237 376 -178 q 78 -317 204 -297 l 39 -183 q 187 -127 138 -161 q 267 -26 236 -93 l 289 25 l -3 701 l 179 701 l 381 197 l 586 701 l 758 701 m 332 1014 l 332 854 l 165 854 l 165 1014 l 332 1014 m 589 1014 l 589 854 l 422 854 l 422 1014 l 589 1014 z "},"ẏ":{"ha":754,"x_min":-3,"x_max":758,"o":"m 758 701 l 432 -47 q 290 -237 376 -178 q 78 -317 204 -297 l 39 -183 q 187 -127 138 -161 q 267 -26 236 -93 l 289 25 l -3 701 l 179 701 l 381 197 l 586 701 l 758 701 m 474 1019 l 474 849 l 281 849 l 281 1019 l 474 1019 z "},"ỵ":{"ha":754,"x_min":-3,"x_max":758,"o":"m 758 701 l 432 -47 q 290 -237 376 -178 q 78 -317 204 -297 l 39 -183 q 187 -127 138 -161 q 267 -26 236 -93 l 289 25 l -3 701 l 179 701 l 381 197 l 586 701 l 758 701 m 669 -108 l 669 -271 l 501 -271 l 501 -108 l 669 -108 z "},"ỳ":{"ha":754,"x_min":-3,"x_max":758,"o":"m 758 701 l 432 -47 q 290 -237 376 -178 q 78 -317 204 -297 l 39 -183 q 187 -127 138 -161 q 267 -26 236 -93 l 289 25 l -3 701 l 179 701 l 381 197 l 586 701 l 758 701 m 117 1078 l 294 1078 l 433 792 l 321 792 l 117 1078 z "},"ỷ":{"ha":754,"x_min":-3,"x_max":758,"o":"m 758 701 l 432 -47 q 290 -237 376 -178 q 78 -317 204 -297 l 39 -183 q 187 -127 138 -161 q 267 -26 236 -93 l 289 25 l -3 701 l 179 701 l 381 197 l 586 701 l 758 701 m 426 792 l 332 792 l 332 829 q 346 876 332 857 q 385 918 360 896 q 410 942 401 932 q 418 964 418 953 q 367 997 418 997 q 292 983 329 997 l 267 1056 q 383 1082 324 1082 q 497 1053 456 1082 q 538 981 538 1024 q 522 928 538 949 q 475 883 507 908 q 439 851 451 865 q 426 819 426 838 l 426 792 z "},"ȳ":{"ha":754,"x_min":-3,"x_max":758,"o":"m 758 701 l 432 -47 q 290 -237 376 -178 q 78 -317 204 -297 l 39 -183 q 187 -127 138 -161 q 267 -26 236 -93 l 289 25 l -3 701 l 179 701 l 381 197 l 586 701 l 758 701 m 161 990 l 593 990 l 593 876 l 161 876 l 161 990 z "}}}
